<svg width="110" height="110" viewBox="0 0 110 110" xmlns="http://www.w3.org/2000/svg" xmlns:xlink="http://www.w3.org/1999/xlink">
  <g fill="none" fill-rule="evenodd"><path d="M55 110c30.293 0 55-24.707 55-55S85.293 0 55 0 0 24.707 0 55s24.707 55 55 55" fill="#EDEDED"/><path d="M81.451 34.702c2.22-7.639-2.293-13.322-16.645-13.322-22.65 0-22.271 18.056-27.29 8.892-4.698-8.58-24.05-3.518-17.3 13.371 7.956 19.91 4.62 21.451 1.654 21.384-1.675-.039-3.415-.418-2.752 1.675 1.344 4.248 12.135 7.055 12.992-9.662.15-2.934-2.29-22.654 4.81-19.87 1.23.48-3.058 21.252 13.108 27.947 3.81 1.578.808 10.459-2.446 14.256-7.114 8.304-1.21 8.079 8.078 16.287 2.332 2.06 15.504 6.477 8.843-1.48-1.981-2.366-2.384-30.452 16.455-24.756 4.412 1.334 4.557-1.029 4.261-4.439-.117-1.35-.303-2.863-.32-4.378-.017-1.345.1-2.69.517-3.919.324-.958.83-1.846 1.597-2.609 4.17-4.149-5.29-3.173-4.821-17.865.02-.63-.787-1.352-.74-1.512" fill="#FFF"/><path d="M19.213 68.404c-.009-.014-.014-.024-.007-.008 0 .002.003.005.007.008zm63.024-34.457l.084-.048a.395.395 0 00-.084.048zm5.337 27.796zm-1.37-19.285a.427.427 0 01.827.206c-.169.675-.612 1.31-1.174 1.784a3.703 3.703 0 01-1.384.745l.043.07c.684 1.071 1.336 1.976 2.13 2.888.79.908 1.725 1.822 2.976 2.91 1.697 1.479 1.425 2.588.669 3.456-.32.368-.73.673-1.093.943l-.2.15-.016.013c-.72.547-1.125 1.046-1.175 1.53-.05.474.242 1 .913 1.62.156.145.33.393.443.691.11.285.172.626.128.985-.045.363-.198.74-.52 1.089a2.792 2.792 0 01-.656.513c.18.123.379.286.555.515.262.337.456.8.428 1.448-.024.575-.463 1.006-.86 1.397-.116.115-.23.226-.316.33a1.882 1.882 0 00-.276.398.346.346 0 00-.037.216l.003.009a9.654 9.654 0 01.218.941 6.78 6.78 0 01.113 1.56c-.065 1.214-.527 2.102-1.243 2.738-.697.618-1.628.983-2.662 1.168-.893.161-1.866.19-2.829.138-1.232-.067-2.298-.238-3.271-.395-1.77-.284-3.225-.519-4.759.063-1.039.394-2 .923-2.876 1.562-3.063 2.23-5.148 5.815-6.12 9.771-.972 3.97-.822 8.306.589 12.024a15.383 15.383 0 001.933 3.608.425.425 0 01-.687.5 16.238 16.238 0 01-2.043-3.808c-1.472-3.879-1.63-8.395-.618-12.524 1.015-4.142 3.212-7.904 6.445-10.258a13.138 13.138 0 013.077-1.672c1.744-.661 3.3-.411 5.192-.107.952.154 1.994.322 3.181.386.907.049 1.815.023 2.636-.125.89-.16 1.679-.463 2.248-.968.55-.488.905-1.182.956-2.145a5.924 5.924 0 00-.099-1.365 9.11 9.11 0 00-.2-.862l-.007-.024a1.15 1.15 0 01.083-.783v-.001c.095-.21.24-.404.402-.596.106-.126.236-.253.37-.386.284-.279.597-.587.607-.824.018-.412-.097-.695-.251-.894-.162-.21-.383-.349-.544-.447-.087-.053-.172-.093-.239-.125v.002c-.181-.084-.306-.144-.378-.334l-.001-.001c-.115-.303-.013-.494.37-.64.446-.17.748-.37.942-.58.184-.2.271-.413.296-.616a1.216 1.216 0 00-.077-.577 1.023 1.023 0 00-.224-.37c-.883-.819-1.26-1.575-1.182-2.33.077-.745.596-1.43 1.505-2.122l.022-.016.203-.152.001-.001c.324-.241.69-.514.956-.82.458-.526.59-1.229-.586-2.252-1.281-1.115-2.241-2.055-3.06-2.993-.814-.936-1.49-1.875-2.203-2.993-.501-.786-.543-1.433-.628-2.742l-.016-.242a39.694 39.694 0 01-.06-1.756c-.041-2.03-.091-4.453-.993-6.52a.426.426 0 01.136-.512c.936-.775 1.613-1.628 2.04-2.52a5.47 5.47 0 00.466-3.335c-.198-1.145-.751-2.295-1.646-3.38-1.117-1.353-2.763-2.606-4.914-3.634a22.81 22.81 0 00-1.063-.474c-6.299-2.629-14.3-2.786-21.493-.69-7.174 2.09-13.531 6.419-16.566 12.77h.001c-.142.298-.274.592-.394.88a.426.426 0 01-.784.008c-1.777-4.005-5.297-5.839-8.985-5.935a12.858 12.858 0 00-5.032.916l-.032.012c-1.6.639-3.09 1.595-4.318 2.826-2.846 2.851-4.297 7.195-2.526 12.526.877 2.644 2.317 5.284 3.696 7.812.628 1.151 1.244 2.28 1.773 3.343 1.095 2.197 2.091 4.807 2.146 7.115.056 2.413-.889 4.486-3.73 5.448-.911.308-1.424.575-1.624.793.025.013.06.03.104.05.469.212 1.408.316 2.584.269 5.53-.223 8.197-2.348 9.367-5.47 1.198-3.197.885-7.475.447-11.85-.407-4.053-.518-7.547.14-10.094.69-2.675 2.203-4.321 5.042-4.511a.426.426 0 01.391.648c-.554 1.022-.94 2.362-1.147 3.908-.503 3.731.026 8.615 1.676 13.114 1.641 4.475 4.39 8.557 8.329 10.71a12.942 12.942 0 004.505 1.477c.191.025.335.174.364.355.81 5.069-.046 8.6-1.565 11.136-1.523 2.543-3.697 4.07-5.529 5.154a.427.427 0 01-.434-.734c1.743-1.03 3.807-2.478 5.233-4.857 1.397-2.333 2.193-5.584 1.502-10.257a13.759 13.759 0 01-4.483-1.527c-4.143-2.263-7.017-6.514-8.722-11.164-1.697-4.626-2.24-9.663-1.72-13.52.178-1.318.48-2.503.903-3.494-1.919.385-2.993 1.73-3.522 3.776-.627 2.43-.514 5.83-.116 9.797.448 4.476.766 8.861-.497 12.23-1.29 3.442-4.18 5.784-10.13 6.023-1.307.053-2.387-.08-2.968-.342-.296-.133-.5-.315-.591-.541-.11-.274-.058-.556.185-.834.286-.328.924-.688 2.002-1.052 2.402-.813 3.2-2.572 3.153-4.622-.05-2.154-1.007-4.643-2.059-6.754-.55-1.103-1.148-2.199-1.757-3.316-1.395-2.559-2.852-5.23-3.755-7.951-1.888-5.686-.326-10.334 2.73-13.395a13.675 13.675 0 014.603-3.014l.036-.017a13.687 13.687 0 015.366-.972c3.734.097 7.308 1.838 9.336 5.607l.036-.077h.002C41.441 25.73 48 21.25 55.39 19.096c7.371-2.148 15.582-1.981 22.057.72.363.152.731.317 1.103.495 2.266 1.082 4.01 2.414 5.203 3.861.993 1.203 1.608 2.487 1.83 3.777a6.305 6.305 0 01-.539 3.845c-.443.928-1.122 1.811-2.04 2.618.85 2.145.9 4.535.94 6.55.013.608.025 1.182.06 1.719l.016.242c.04.63.071 1.087.15 1.47.394-.09.794-.305 1.14-.596.431-.363.77-.841.894-1.34z" fill="#2B2B2B"/></g>
</svg>