<svg width="140" height="140" viewBox="0 0 140 140" fill="none" xmlns="http://www.w3.org/2000/svg">
<g clip-path="url(#clip0)">
<path fill-rule="evenodd" clip-rule="evenodd" d="M70 139.999C108.556 139.999 140.001 108.554 140.001 69.999C140.001 31.444 108.556 0.000976562 70 0.000976562C31.445 0.000976562 -0.000976562 31.444 -0.000976562 69.999C-0.000976562 108.554 31.445 139.999 70 139.999Z" fill="#F6F7F8"/>
<path fill-rule="evenodd" clip-rule="evenodd" d="M77.755 104.176L62.321 104.234C52.684 105.421 45.755 108.699 45.755 112.557C45.755 117.413 56.735 121.351 70.278 121.351C83.823 121.351 94.803 117.413 94.803 112.557C94.804 108.633 87.643 105.311 77.755 104.176Z" fill="white"/>
<path fill-rule="evenodd" clip-rule="evenodd" d="M71.189 18.441C88.627 18.179 94.97 37.483 68.126 36.45C53.044 35.868 48.563 60.04 56.053 71.316C61.856 80.052 75.491 81.351 81.616 75.85C88.189 69.946 95.542 72.776 90.62 84.819C90.032 86.259 76.212 100.744 74.129 104.842C71.979 109.072 66.158 112.876 62.077 107.576C50.743 92.863 23.184 83.67 28.514 48.956C32.64 22.081 49.142 18.77 71.189 18.441Z" fill="white"/>
<path fill-rule="evenodd" clip-rule="evenodd" d="M70.2781 22.059C52.7643 22.059 38.4971 36.8725 38.4971 55.236C38.4971 64.6215 44.0343 74.88 50.9785 84.5547C54.434 89.3689 58.2024 93.992 61.7381 98.2414C62.4407 99.0859 63.1349 99.9165 63.8159 100.731L63.8172 100.733L63.8179 100.734L63.8183 100.734C66.2011 103.585 68.4226 106.243 70.2782 108.626C72.1335 106.244 74.3544 103.587 76.7367 100.737C77.4192 99.9202 78.115 99.0878 78.8193 98.2414C82.3552 93.992 86.1238 89.3689 89.5794 84.5547C96.5239 74.88 102.061 64.6215 102.061 55.236C102.061 36.8736 87.7929 22.059 70.2781 22.059ZM36.4971 55.236C36.4971 35.8474 51.5819 20.059 70.2781 20.059C88.9752 20.059 104.061 35.8484 104.061 55.236C104.061 65.3054 98.1698 76.0169 91.2042 85.721C87.7048 90.5962 83.8981 95.2646 80.3566 99.5207C79.6429 100.378 78.9407 101.218 78.2543 102.04L78.2539 102.04C75.524 105.306 73.0433 108.274 71.0749 110.87C70.8858 111.12 70.5909 111.266 70.278 111.266C69.9651 111.266 69.6702 111.119 69.4812 110.87C67.5124 108.273 65.0308 105.304 62.2999 102.036L62.2994 102.036L62.2994 102.036C61.6141 101.216 60.9131 100.377 60.2006 99.5206C56.6595 95.2646 52.853 90.5961 49.3537 85.7209C42.3884 76.0169 36.4971 65.3054 36.4971 55.236ZM90.2995 92.7472C90.4369 92.2213 90.9692 91.9014 91.4981 92.0271L106.231 95.5271C106.249 95.5313 106.267 95.5361 106.285 95.5414C106.295 95.5445 106.306 95.5479 106.316 95.5514L119.849 100.066C120.365 100.238 120.649 100.791 120.488 101.31C120.328 101.83 119.782 102.126 119.259 101.977C113.627 100.37 109.327 99.1556 105.052 97.948L104.99 97.9307C100.736 96.7289 96.4986 95.5322 90.9927 93.9616C90.4699 93.8125 90.162 93.2731 90.2995 92.7472ZM47.5751 92.8066C47.682 93.3484 47.3293 93.8743 46.7874 93.9811C38.0142 95.7108 29.5251 98.3958 21.399 101.932C20.8926 102.152 20.3034 101.92 20.0831 101.414C19.8627 100.908 20.0946 100.318 20.601 100.098C28.855 96.5062 37.4818 93.7772 46.4006 92.0189C46.9424 91.9121 47.4683 92.2647 47.5751 92.8066ZM86.9998 50.7792C87.0126 53.3322 86.4558 55.7041 85.3276 57.8943C84.6665 59.1906 83.5388 60.8042 81.9444 62.7355L81.4777 63.3378C80.3632 64.6987 78.1851 66.6498 74.9446 69.1899C73.3242 70.4855 71.7298 71.6846 70.1614 72.7865C69.9413 72.9285 69.7208 73 69.5003 73C69.2666 73 69.0403 72.9285 68.8198 72.7865C67.2771 71.6846 65.6831 70.4855 64.0366 69.1899C60.7957 66.6494 58.6246 64.6987 57.5229 63.3378L57.0368 62.7355C55.4424 60.8042 54.3147 59.1906 53.6536 57.8943C52.5262 55.7041 51.9752 53.3326 52.0009 50.7792C52.0137 48.0832 52.9731 45.7763 54.8782 43.8578C56.7837 41.9526 59.0784 41 61.7617 41C63.3044 41 64.7494 41.3305 66.0973 41.9911C66.8341 42.3596 67.5071 42.8073 68.1161 43.3343C68.6214 43.7716 69.0827 44.2635 69.4999 44.8101C69.9173 44.2637 70.3787 43.7719 70.8841 43.3346C71.4932 42.8076 72.1661 42.3598 72.903 41.9911C74.2512 41.3305 75.6901 41 77.2199 41C79.9028 41 82.2038 41.9522 84.1225 43.8578C86.0408 45.7763 86.9998 48.0832 86.9998 50.7792ZM80.3634 61.5106L79.9141 62.0904C78.9462 63.2652 76.9298 65.0926 73.7107 67.6159L73.7032 67.6218L73.6957 67.6278C72.2715 68.7665 70.871 69.8267 69.4943 70.8084C68.1312 69.8235 66.7245 68.76 65.2734 67.6182L65.2705 67.6159C62.0335 65.0784 60.0245 63.2488 59.0785 62.0807L59.0774 62.0794L58.5932 61.4794L58.5862 61.4708L58.5791 61.4622C57.0213 59.5753 55.9994 58.0918 55.4353 56.9857L55.4319 56.979C54.4588 55.0885 53.9782 53.0397 54.0008 50.7993L54.0008 50.7888C54.0112 48.6205 54.7597 46.8166 56.2947 45.2697C57.8264 43.7394 59.6124 43 61.7617 43C63.005 43 64.1456 43.2632 65.2099 43.7835C66.2811 44.3205 67.1757 45.0614 67.9102 46.0236L69.4993 48.1055L71.0893 46.0242C71.8242 45.062 72.7191 44.3209 73.7905 43.7834C74.8575 43.262 75.9922 43 77.2199 43C79.3693 43 81.1642 43.7396 82.7108 45.2746C84.255 46.82 84.9998 48.6185 84.9998 50.7792L84.9998 50.7893C85.0111 53.0329 84.5247 55.0855 83.5496 56.9785L83.5459 56.9857C82.9818 58.0918 81.9599 59.5753 80.4021 61.4622L80.3824 61.4861L80.3634 61.5106Z" fill="#141414"/>
</g>
<defs>
<clipPath id="clip0">
<rect width="140" height="140" fill="white"/>
</clipPath>
</defs>
</svg>