<?xml version="1.0" encoding="UTF-8" standalone="no"?>
<svg width="140px" height="140px" viewBox="0 0 140 140" version="1.1" xmlns="http://www.w3.org/2000/svg" xmlns:xlink="http://www.w3.org/1999/xlink">
    <!-- Generator: Sketch 47.1 (45422) - http://www.bohemiancoding.com/sketch -->
    <title>Fall</title>
    <desc>Created with Sketch.</desc>
    <defs/>
    <g id="SVG-140x140" stroke="none" stroke-width="1" fill="none" fill-rule="evenodd">
        <g id="Fall" fill-rule="nonzero">
            <g id="Group-3" transform="translate(0.000000, -0.000280)" fill="#F6F7F8">
                <g id="Fill-1">
                    <path d="M70,140 C108.6,140 140,108.6 140,70 C140,31.4 108.6,0 70,0 C31.4,0 0,31.4 0,70 C0,108.6 31.4,140 70,140" id="Shape"/>
                </g>
            </g>
            <g id="Fill-4" transform="translate(33.000000, 15.000000)" fill="#FFFFFF">
                <path d="M63.7,13 C62.6,11.4 54.3,-8.4 51.6,5.6 C48.6,21.1 56,9.3 39.5,10.5 C28.5,11.3 35.2,24.2 30.1,23.1 C15,20 19.6,37.4 17.5,36.5 C1.6,29.6 2.6,58.9 1,58.6 C-6.2,57.2 54.8,80.5 60,27.4 C60.3,24.7 64.5,14.3 63.7,13" id="Shape"/>
            </g>
            <g id="Stroke-6" transform="translate(26.000000, 34.000000)" fill="#2B2B2B">
                <path d="M1.6,75 C1.2,75 0.8,74.8 0.6,74.4 C0.3,73.8 0.5,73.2 1.1,72.9 C25.6,59.6 59.1,37.9 66.5,1.9 C66.6,1.3 67.2,0.9 67.8,1 C68.4,1.1 68.8,1.7 68.7,2.3 C61.1,39.2 27.1,61.3 2.2,74.8 C2,75 1.8,75 1.6,75 Z" id="Shape"/>
            </g>
            <g id="Stroke-8" transform="translate(34.000000, 20.000000)" fill="#2B2B2B">
                <path d="M22.9,87.5 C15.5,87.5 6.7,85.1 4.3,82.6 C3.9,82.1 3.9,81.4 4.4,81 C4.9,80.6 5.6,80.6 6,81.1 C8.6,83.9 24.2,87.3 30.2,84 C31.8,83.1 32.3,81.8 31.8,79.9 C31.7,79.5 31.8,79.1 32,78.9 C32.2,78.6 32.6,78.5 33,78.5 C39.6,79.2 47.3,77.2 48.4,74.5 C49.1,72.7 46.5,70.5 44.9,69.4 C44.5,69.1 44.3,68.6 44.5,68.1 C44.6,67.6 45.1,67.3 45.6,67.3 C52.6,67.2 60.4,65.2 61.3,62.2 C61.8,60.5 60.1,58.1 56.3,55.5 C55.9,55.2 55.7,54.6 55.9,54.1 C56.1,53.6 56.6,53.3 57.2,53.4 C61.6,54.3 66.5,51.7 69,48.7 C70.7,46.8 71.3,44.7 70.8,43.2 C70.1,41.4 67.8,40.1 64.1,39.5 C63.6,39.4 63.3,39.1 63.2,38.6 C63.1,38.1 63.3,37.7 63.7,37.4 C71.8,31.8 72.9,26.5 71.4,23.7 C70.4,21.8 68.3,20.9 66.4,21.7 C66,21.8 65.6,21.8 65.3,21.5 C65,21.2 64.8,20.8 64.9,20.4 C67.1,7.3 63.8,3.9 62.7,3.1 C61.3,2.1 59.7,2.7 58.9,3.2 C56.4,4.7 53.9,8.7 54.3,14.3 C54.3,14.8 54,15.3 53.5,15.5 C53,15.7 52.5,15.5 52.2,15 C50,11.4 47.3,9.9 44.9,11 C41.8,12.4 39.9,17.8 42,24.3 C42.2,24.9 41.9,25.5 41.3,25.7 C40.7,25.9 40.1,25.7 39.9,25.1 C38.4,21.9 36.3,20 34.3,19.9 C33,19.8 31.8,20.5 31,21.9 C29.4,24.5 29,29.6 32.6,36.3 C32.9,36.8 32.7,37.5 32.2,37.8 C31.7,38.1 31,38 30.7,37.4 C27.7,32.8 24.1,30.7 21.6,32.2 C18.6,34 17.8,40.1 21.8,47.1 C22.1,47.6 21.9,48.2 21.5,48.5 C21.1,48.8 20.4,48.8 20,48.4 C16.5,45.2 13.1,44.1 11.4,45.7 C9.2,47.6 9.4,53.3 13.6,59.1 C13.9,59.5 13.9,60.2 13.5,60.5 C13.1,60.9 12.5,61 12.1,60.7 C9.9,59.2 6.9,57.7 5,59 C2.8,60.5 2.3,65.7 3.6,72.2 C3.7,72.8 3.3,73.4 2.7,73.5 C2.1,73.6 1.5,73.2 1.4,72.6 C-0.2,64.9 0.7,59.1 3.7,57 C5.3,55.9 7.3,55.9 9.6,56.8 C6.8,51.1 7.5,46.1 9.9,44 C11.9,42.2 14.8,42.3 17.9,44.1 C15.5,37.4 17.2,32.1 20.4,30.2 C22.3,29.1 25.1,28.9 28.2,31.2 C27,26.5 27.7,22.8 29.1,20.6 C30.4,18.6 32.3,17.5 34.5,17.6 C35.6,17.7 37.2,18.1 38.9,19.7 C38.6,14.2 41,10.2 44,8.8 C46.2,7.8 49.3,8 52.1,11 C52.6,6.2 55.1,2.7 57.8,1.2 C59.9,1.16573418e-14 62.2,1.16573418e-14 64,1.2 C66,2.6 69.1,6.8 67.4,19.1 C69.8,18.9 72.2,20.2 73.4,22.6 C75.3,26.1 74.4,31.9 67,37.8 C70.9,38.9 72.4,40.9 72.9,42.4 C73.7,44.7 72.9,47.6 70.7,50.1 C68.4,52.7 64.5,55.2 60.3,55.7 C63,58.2 64.1,60.6 63.4,62.8 C62.1,67.1 54.4,68.9 48.5,69.4 C50.5,71.4 51.2,73.4 50.5,75.2 C48.9,79.4 40.4,81.1 34.3,80.8 C34.4,83 33.4,84.7 31.4,85.9 C29.2,87 26.2,87.5 22.9,87.5 Z" id="Shape"/>
            </g>
            <g id="Stroke-10" transform="translate(59.000000, 62.000000)" fill="#2B2B2B">
                <path d="M4.9,22.1 C4.9,22.1 4.8,22.1 4.8,22.1 C4.2,22 3.7,21.5 3.8,20.8 C4.8,13.4 5.1,6 1,2.3 C0.5,1.9 0.5,1.2 0.9,0.7 C1.3,0.2 2,0.2 2.5,0.6 C7.4,5 7.1,13 6.1,21.1 C6,21.7 5.5,22.1 4.9,22.1 Z" id="Shape"/>
            </g>
            <g id="Stroke-12" transform="translate(79.000000, 63.000000)" fill="#2B2B2B">
                <path d="M6.6,4.5 C5,4.5 3.4,4.4 1.7,4.2 C1.1,4.1 0.6,3.6 0.7,2.9 C0.8,2.3 1.4,1.8 2,1.9 C7.6,2.6 12.8,2 17.9,0.2 C18.5,-2.77555756e-17 19.1,0.3 19.4,0.9 C19.6,1.5 19.3,2.1 18.7,2.4 C14.7,3.8 10.8,4.5 6.6,4.5 Z" id="Shape"/>
            </g>
            <g id="Stroke-14" transform="translate(67.000000, 77.000000)" fill="#2B2B2B">
                <path d="M8.8,4.3 C5.4,4.3 2.1,3.8 0.9,2.8 C0.4,2.4 0.3,1.7 0.7,1.2 C1.1,0.7 1.8,0.6 2.3,1 C3.8,2.2 12.6,2.5 16.4,0.8 C17,0.5 17.6,0.8 17.9,1.4 C18.2,2 17.9,2.6 17.3,2.9 C15.4,3.8 12,4.3 8.8,4.3 Z" id="Shape"/>
            </g>
            <g id="Stroke-16" transform="translate(54.000000, 89.000000)" fill="#2B2B2B">
                <path d="M9.6,4.3 C6.1,4.3 2.5,3.7 0.7,2.5 C0.2,2.2 -8.32667268e-16,1.5 0.4,0.9 C0.8,0.3 1.4,0.2 2,0.6 C5,2.5 14.4,2.5 17.5,0.6 C18,0.3 18.7,0.4 19.1,1 C19.4,1.5 19.3,2.2 18.7,2.6 C16.7,3.7 13.1,4.3 9.6,4.3 Z" id="Shape"/>
            </g>
            <g id="Stroke-18" transform="translate(80.000000, 38.000000)" fill="#2B2B2B">
                <path d="M1.4,12 C1.3,12 1.3,12 1.2,12 C0.6,11.9 0.2,11.3 0.3,10.7 C0.8,8.3 0.7,5.2 0.1,1.6 C-1.11022302e-16,1 0.4,0.4 1,0.3 C1.6,0.2 2.2,0.6 2.3,1.2 C3,5.2 3,8.5 2.5,11.1 C2.4,11.7 2,12 1.4,12 Z" id="Shape"/>
            </g>
        </g>
    </g>
</svg>