<?xml version="1.0" encoding="UTF-8" standalone="no"?>
<svg width="140px" height="140px" viewBox="0 0 140 140" version="1.1" xmlns="http://www.w3.org/2000/svg" xmlns:xlink="http://www.w3.org/1999/xlink">
    <!-- Generator: Sketch 47.1 (45422) - http://www.bohemiancoding.com/sketch -->
    <title>Refined</title>
    <desc>Created with Sketch.</desc>
    <defs/>
    <g id="SVG-140x140" stroke="none" stroke-width="1" fill="none" fill-rule="evenodd">
        <g id="Refined" fill-rule="nonzero">
            <g id="Group-3" transform="translate(0.000000, -0.000280)" fill="#F6F7F8">
                <path d="M70,140 C108.6,140 140,108.6 140,70 C140,31.4 108.6,0 70,0 C31.4,0 0,31.4 0,70 C0,108.6 31.4,140 70,140" id="Fill-1"/>
            </g>
            <path d="M78,16 C96.4,20 110.5,23.3 107.1,46.5 C105.7,55.9 80.5,85.7 84,102.9 C86.2,113.8 89,116.3 96,122.1 C101.2,126.4 82.3,126.2 74.2,119.5 C63.2,110.3 61.9,100.3 62,86 C62.1,73.2 77.5,61 81.1,47.4 C85,32.6 81.3,33.3 77.3,23.5 C74.9,17.5 65,14.5 77.2,15.6 C77.4,15.5 77.5,15.9 78,16" id="Fill-4" fill="#FFFFFF"/>
            <path d="M45.1,28.1 C62.1,31.5 75.2,34.3 72.1,54 C70.8,62 47.5,87.3 50.7,101.9 C52.7,111.1 55.3,113.3 61.8,118.2 C66.6,121.8 49.1,121.7 41.6,116 C31.4,108.2 30.2,99.7 30.3,87.6 C30.4,76.8 44.6,66.4 48,54.8 C51.6,42.3 48.2,42.8 44.5,34.5 C42.3,29.4 33.2,26.9 44.4,27.8 C44.6,27.7 44.6,28 45.1,28.1" id="Fill-6" fill="#FFFFFF"/>
            <path d="M67.6,57.5 C68.8,50.4 65.3,44.8 50.2,41.4 C59.6,53 53.7,63 47.7,73.2 C40.9,84.6 34.1,96.2 52.8,110.6 C49.3,97.3 55.7,84.6 61.2,73.5 C64.2,67.6 66.9,62.2 67.6,57.5 L67.6,57.5 Z M45.9,37.3 C67.5,41 72.4,48.4 70.7,58 C69.8,63.1 67,68.7 64,74.8 C58.1,86.7 51.2,100.4 57.3,114.1 C57.7,114.9 57.3,115.8 56.5,116.2 C56,116.4 55.4,116.4 54.9,116 C28.9,98.6 37,84.9 44.9,71.5 C50.9,61.4 56.8,51.4 44.6,40 C44,39.4 43.9,38.4 44.5,37.8 C44.9,37.4 45.4,37.3 45.9,37.3 L45.9,37.3 Z" id="Fill-8" fill="#2B2929"/>
            <path d="M96.4,41.2 C95.3,34.7 90.4,30.1 78.7,28.8 C88.7,42.9 82.1,56.9 75.8,70.4 C69,85 62.5,99.1 80.4,111.3 C77.7,98 83.7,83.7 89.2,70.5 L89.7,69.3 C94.2,58.8 97.7,48.6 96.4,41.2 L96.4,41.2 Z M75.3,25.3 C91.4,26.1 98.1,32 99.5,40.7 C100.9,49 97.2,59.6 92.6,70.6 L92.1,71.8 C86.2,85.8 79.8,101.1 84.4,114.4 C84.7,115.2 84.2,116.1 83.4,116.4 C82.9,116.6 82.5,116.5 82.1,116.3 C57.6,102 65.1,85.9 73,69 C79.3,55.5 85.9,41.4 74.1,27.9 C73.5,27.2 73.6,26.2 74.2,25.7 C74.5,25.4 74.9,25.3 75.3,25.3 L75.3,25.3 Z" id="Fill-10" fill="#2B2929"/>
        </g>
    </g>
</svg>