<?xml version="1.0" encoding="UTF-8" standalone="no"?>
<svg width="140px" height="140px" viewBox="0 0 140 140" version="1.1" xmlns="http://www.w3.org/2000/svg" xmlns:xlink="http://www.w3.org/1999/xlink">
    <!-- Generator: Sketch 47.1 (45422) - http://www.bohemiancoding.com/sketch -->
    <title>Sexy</title>
    <desc>Created with Sketch.</desc>
    <defs/>
    <g id="SVG-140x140" stroke="none" stroke-width="1" fill="none" fill-rule="evenodd">
        <g id="Sexy" fill-rule="nonzero">
            <g id="Fill-1" fill="#F6F7F8">
                <path d="M70,140 C108.6,140 140,108.6 140,70 C140,31.4 108.6,0 70,0 C31.4,0 0,31.4 0,70 C0,108.6 31.4,140 70,140" id="Shape"/>
            </g>
            <g id="Fill-2" transform="translate(46.000000, 62.000000)" fill="#FFFFFF">
                <path d="M23.8,0.8 C23.7,0.8 9.4,6.4 0.2,6.7 C-1.6,6.7 13.5,17.9 26.3,15.5 C28.1,15.2 56.6,6.1 45.8,6.5 C40.7,6.7 29.1,2.9 24.1,1 L23.8,0.8" id="Shape"/>
            </g>
            <g id="Fill-3" transform="translate(78.000000, 80.000000)" fill="#FFFFFF">
                <path d="M10.8,0.6 C7.4,-1.7 -4.3,7 3.8,8.3 C8.4,9 18.4,3.6 13.8,0.5 C13,-0.1 11,0.7 10.8,0.6" id="Shape"/>
            </g>
            <g id="Fill-4" transform="translate(44.000000, 78.000000)" fill="#FFFFFF">
                <path d="M6.9,10.2 C-2.5,6.8 -2.8,-3.9 15.4,2.1 C35.8,8.8 30.1,18.5 6.9,10.2" id="Shape"/>
            </g>
            <g id="Fill-5" transform="translate(39.000000, 44.000000)" fill="#FFFFFF">
                <path d="M24,2 C20.2,-1.9 6.2,3.8 2.2,8.1 C-2.6,13.3 3.5,15.1 11.3,10.4 C15.6,7.8 29.5,16.4 24.5,2.4 C24.4,2 24.3,2.4 24,2" id="Shape"/>
            </g>
            <g id="Fill-6" transform="translate(74.000000, 45.000000)" fill="#FFFFFF">
                <path d="M5.8,0.2 C-4.5,0.2 -0.1,11.8 12.6,9.1 C17.4,8.1 17.6,-0.3 6,0.3 C5.8,0.2 5.9,0.2 5.8,0.2" id="Shape"/>
            </g>
            <g id="Stroke-7" transform="translate(21.000000, 21.000000)" fill="#2B2B2B">
                <path d="M59.6,96.8 C59.5,96.8 59.5,96.8 59.4,96.8 C52.7,95.6 45.9,95.5 41.9,96.7 C41.3,96.9 40.7,96.5 40.5,95.9 C40.3,95.3 40.7,94.7 41.3,94.5 C45.6,93.2 52.8,93.3 59.9,94.6 C60.5,94.7 60.9,95.3 60.8,95.9 C60.7,96.4 60.2,96.8 59.6,96.8 Z M48.9,83.5 C24.5,83.5 18.6,72.9 12.4,61.7 C9.5,56.4 6.4,51 1.3,46.3 C1,46.1 0.9,45.7 0.9,45.4 C0.9,44.9 1.1,44.5 1.6,44.3 C4.6,43 8.4,39.6 12.4,36 C22.3,27.1 35.8,14.9 48.9,26.8 C62.1,14.9 75.5,27 85.4,36 C89.4,39.6 93.2,43 96.2,44.3 C96.7,44.5 96.9,45 96.9,45.4 C96.9,45.7 96.8,46.1 96.5,46.3 C91.3,51 88.4,56.5 85.5,61.8 C79.5,72.8 73.9,83.2 49.7,83.5 C49.5,83.5 49.2,83.5 48.9,83.5 Z M5.2,47 C9.2,51.3 11.8,56 14.4,60.6 C20.6,71.8 26,81.5 49.8,81.2 C72.6,81 77.7,71.6 83.7,60.7 C86.5,55.6 89.3,50.4 94.1,45.7 C91.1,44 87.8,41 84.1,37.7 C73.6,28.2 61.8,17.5 49.9,29.2 C49.5,29.6 48.7,29.6 48.3,29.2 C36.4,17.5 24.5,28.2 14.1,37.7 C11,40.5 8.2,43 5.6,44.8 C15.9,46.1 40.4,47.3 48.3,39.9 C48.7,39.5 49.5,39.5 49.9,39.9 C56,45.6 71.5,46 80.3,45.8 C82.3,45.7 84.2,45.6 85.9,45.5 C86.5,45.5 87.1,45.9 87.1,46.6 C87.1,47.2 86.7,47.8 86,47.8 C84.5,47.9 83,48 81.3,48.1 C81.2,48.1 81.1,48.1 81.1,48.2 C75.8,49 72.1,50.8 68.1,52.8 C62.8,55.4 57.4,58.1 48.6,58 C40.3,57.9 35.1,55.3 30,52.8 C26,50.8 22.2,48.9 17.1,48.2 C17,48.2 16.9,48.2 16.9,48.1 C12.2,47.8 8.2,47.4 5.2,47 Z M25.3,48 C27.3,48.8 29.1,49.7 30.9,50.6 C36,53.1 40.8,55.5 48.5,55.6 C56.8,55.7 61.8,53.2 67,50.6 C68.8,49.7 70.6,48.8 72.6,48 C63.6,47.7 54.2,46.3 49,42.2 C44,46.2 34.5,47.7 25.3,48 Z M48,7.4 C47.8,7.4 47.6,7.4 47.4,7.4 C43.2,7.2 39.6,5.4 37.6,2.5 C37.2,2 37.4,1.3 37.9,0.9 C38.4,0.5 39.1,0.7 39.5,1.2 C41.1,3.6 44,5 47.5,5.1 C51.2,5.3 54.7,3.9 56.4,1.8 C56.8,1.3 57.5,1.2 58,1.6 C58.5,2 58.6,2.7 58.2,3.2 C56.1,5.8 52.2,7.4 48,7.4 Z" id="Shape"/>
            </g>
        </g>
    </g>
</svg>