<?xml version="1.0" encoding="UTF-8" standalone="no"?>
<svg width="140px" height="140px" viewBox="0 0 140 140" version="1.1" xmlns="http://www.w3.org/2000/svg" xmlns:xlink="http://www.w3.org/1999/xlink">
    <!-- Generator: Sketch 47.1 (45422) - http://www.bohemiancoding.com/sketch -->
    <title>Spicy</title>
    <desc>Created with Sketch.</desc>
    <defs/>
    <g id="SVG-140x140" stroke="none" stroke-width="1" fill="none" fill-rule="evenodd">
        <g id="Spicy" fill-rule="nonzero">
            <g id="Group-3" transform="translate(0.000000, -0.000280)" fill="#F6F7F8">
                <g id="Fill-1">
                    <path d="M70,140 C108.6,140 140,108.6 140,70 C140,31.4 108.6,0 70,0 C31.4,0 0,31.4 0,70 C0,108.6 31.4,140 70,140" id="Shape"/>
                </g>
            </g>
            <g id="Fill-4" transform="translate(70.000000, 56.000000)" fill="#FFFFFF">
                <path d="M21.3,1.6 C17.6,-5.5 -9.8,23.8 4.3,21.6 C12.7,20.3 21.1,11.8 28.9,12.9 C34,13.6 33.9,6.2 23.4,3.2 C22.4,2.8 21.4,1.7 21.3,1.6" id="Shape"/>
            </g>
            <g id="Fill-6" transform="translate(15.000000, 64.000000)" fill="#FFFFFF">
                <path d="M49.8,0.8 C57.1,0.8 43.3,18.1 39,21.3 C24.3,32.4 15.4,29.9 1.7,17.3 C-4,12 8.9,10.4 12.3,8.9 C16.1,7 45.4,0.8 49.8,0.8" id="Shape"/>
            </g>
            <g id="Fill-8" transform="translate(16.000000, 67.000000)" fill="#FFFFFF">
                <path d="M101.4,14.6 C99.6,1.4 103.9,-6.5 83.9,8.5 C38.5,42.6 5.8,17.6 0.8,21 C-3.4,23.8 28.6,39.7 44,39.7 C64,39.7 87.3,41.1 101,23.4 C101.8,22.2 101.6,16.1 101.4,14.6" id="Shape"/>
            </g>
            <g id="Stroke-10" transform="translate(98.000000, 36.000000)" fill="#000000">
                <path d="M15.2,33.5 C15.1,33.5 14.9,33.5 14.8,33.4 C14.2,33.2 13.9,32.5 14.2,31.9 C14.9,30.2 15.1,28.5 15.2,26.8 C15.5,23.8 15.8,20.6 19.9,19.4 C22.7,18.6 23.8,15.7 24.3,13.4 C25.3,8.9 24.3,4.2 23.4,3.4 C22.2,2.3 20.1,2.1 18.5,2.4 C17.3,2.6 16.8,3 16.7,3.2 C18.7,5.8 19.5,8.3 19.3,10.6 C18.8,17.3 14.4,17.3 10.9,17.3 C7.7,17.3 3.3,17.3 1.5,17.7 C0.9,17.8 0.3,17.5 0.1,16.9 C-1.4058199e-14,16.3 0.3,15.7 0.9,15.5 C2.9,15 6.6,15 10.8,15 C14.7,15 16.6,14.8 16.9,10.4 C17,8.6 16.3,6.6 14.7,4.4 C14,3.4 14.1,2.2 15.1,1.4 C16.9,-0.2 22,-0.8 24.7,1.7 C26.5,3.3 27.3,9.3 26.3,13.9 C25.4,18 23.3,20.6 20.3,21.6 C17.8,22.4 17.5,23.9 17.2,27.1 C17,28.8 16.8,30.8 16,32.8 C16.1,33.2 15.6,33.5 15.2,33.5 Z" id="Shape"/>
            </g>
            <g id="Stroke-12" transform="translate(9.000000, 48.000000)" fill="#000000">
                <path d="M51.6,53.3 C30.6,53.3 12.7,47.2 5.1,37.2 C1.9,33.1 -0.3,27.7 1.8,25.9 C2.7,25.2 4.3,24.9 7.1,28 C17,38.6 40.5,30.3 50.4,22.9 C56.4,18.4 61,14.3 64.6,11 C69.2,6.9 72.6,3.9 76.1,2.3 C80.9,0.2 84.6,-0.2 87.4,1 C91,2.5 92.4,6.2 93.6,9.4 C94.7,12.4 95.5,14.2 97.1,14.2 C100.7,14.2 103.5,16.1 104.9,19.4 C105.1,20 104.9,20.6 104.3,20.9 C103.7,21.1 103.1,20.9 102.8,20.3 C101.7,17.9 99.7,16.5 97,16.5 C93.7,16.5 92.5,13.3 91.3,10.2 C90.2,7.3 89,4.2 86.3,3.1 C84.1,2.2 80.9,2.6 76.7,4.4 C73.5,5.8 70.3,8.7 65.8,12.7 C62.1,16 57.5,20.1 51.4,24.7 C41,32.7 16.3,41.2 5.4,29.5 C4.2,28.2 3.5,27.9 3.2,27.7 C3,28.6 3.8,31.7 6.8,35.7 C14.6,45.8 34.7,51.9 56.9,50.8 C77.8,49.8 94.8,42.7 101.2,32.3 C102,31.1 102.5,29.8 103,28.5 C103.2,27.9 103.8,27.6 104.4,27.8 C105,28 105.3,28.6 105.1,29.2 C104.6,30.7 104,32.1 103.1,33.5 C96.3,44.5 78.6,52 57,53.1 C55.2,53.2 53.4,53.3 51.6,53.3 Z" id="Shape"/>
            </g>
            <g id="Stroke-14" transform="translate(82.000000, 58.000000)" fill="#000000">
                <path d="M1.7,7.8 C1.5,7.8 1.3,7.7 1.1,7.6 C0.6,7.3 0.4,6.6 0.7,6 C2.5,3 6.5,0.5 9.8,0.4 C10.5,0.4 11,0.9 11,1.5 C11,2.1 10.5,2.7 9.9,2.7 C7.4,2.8 4.1,4.9 2.7,7.2 C2.4,7.6 2,7.8 1.7,7.8 Z" id="Shape"/>
            </g>
            <g id="Stroke-16" transform="translate(51.000000, 68.000000)" fill="#000000">
                <path d="M1.2,24.2 C0.6,24.2 0.1,23.7 0.1,23.1 C0.1,22.5 0.6,22 1.2,22 C34.1,21.9 44.2,12.1 46.6,9.1 C48.4,6.8 49,4.3 48.5,2.1 C48.3,1.5 48.7,0.9 49.3,0.7 C49.9,0.5 50.5,0.9 50.7,1.5 C51.5,4.4 50.7,7.5 48.4,10.4 C41.7,19 24.1,24.1 1.2,24.2 C1.2,24.2 1.2,24.2 1.2,24.2 Z" id="Shape"/>
            </g>
        </g>
    </g>
</svg>