<?xml version="1.0" encoding="UTF-8" standalone="no"?>
<svg width="140px" height="140px" viewBox="0 0 140 140" version="1.1" xmlns="http://www.w3.org/2000/svg" xmlns:xlink="http://www.w3.org/1999/xlink">
    <!-- Generator: Sketch 47.1 (45422) - http://www.bohemiancoding.com/sketch -->
    <title>Warm</title>
    <desc>Created with Sketch.</desc>
    <defs/>
    <g id="SVG-140x140" stroke="none" stroke-width="1" fill="none" fill-rule="evenodd">
        <g id="Warm" fill-rule="nonzero">
            <g id="Group-3" transform="translate(0.000000, -0.000280)" fill="#F6F7F8">
                <g id="Fill-1">
                    <path d="M70,140 C108.6,140 140,108.6 140,70 C140,31.4 108.6,0 70,0 C31.4,0 0,31.4 0,70 C0,108.6 31.4,140 70,140" id="Shape"/>
                </g>
            </g>
            <g id="Fill-4" transform="translate(63.000000, 18.000000)" fill="#FFFFFF">
                <path d="M16.8,0.3 C3.9,-0.1 -7,27.6 7.5,23.2 C37.1,14 26.3,54.7 41.2,46 C47.8,42.1 46.1,17.9 38.9,7.9 C32.7,-0.8 27.7,0.7 16.8,0.3" id="Shape"/>
            </g>
            <g id="Fill-6" transform="translate(27.000000, 28.000000)" fill="#FFFFFF">
                <path d="M29.9,6.1 C33.8,14.9 23.1,13.5 21.4,19.6 C19.3,26.9 18,43.9 12.3,45.8 C1.3,49.5 4.4,45.8 0.9,34.2 C-1.3,27 6.3,-3.1 22.9,0.4 C25.3,0.9 28.8,3.6 29.9,6.1" id="Shape"/>
            </g>
            <g id="Fill-8" transform="translate(45.000000, 83.000000)" fill="#FFFFFF">
                <path d="M9.5,3.9 C10.5,0.6 -9.6,-0.1 6.2,16.5 C41.3,53.3 34.9,-6.9 11.7,0.7 C11.1,0.9 9.7,3.1 9.5,3.9" id="Shape"/>
            </g>
            <g id="Stroke-10" transform="translate(32.000000, 23.000000)" fill="#2B2B2B">
                <path d="M46.1,85.3 C45.9,85.3 45.6,85.2 45.4,85.1 C44.9,84.7 44.8,84 45.2,83.5 C48.7,78.9 52.7,75.1 56.7,71.4 C60.9,67.4 64.9,63.6 68.2,59 C78.9,43.7 75,18.1 64.2,7.9 C59.5,3.5 51.8,0 41,8.4 C35.3,12.8 31,18.8 28,26.1 C27.8,26.6 27.3,26.9 26.8,26.8 C26.3,26.7 25.9,26.3 25.9,25.7 C25.5,19 23.5,14.8 20.3,14 C17.2,13.2 13.1,15.6 10.7,19.6 C4.8,29.4 2.5,49.2 2.9,57.1 C2.9,57.7 2.5,58.3 1.8,58.3 C1.2,58.3 0.6,57.9 0.6,57.2 C0.2,49.1 2.5,28.6 8.7,18.4 C11.2,14.2 16.2,10.6 20.8,11.8 C23.3,12.4 26.4,14.7 27.6,21.4 C30.6,15.4 34.6,10.4 39.6,6.6 C52.3,-3.3 61.4,2.1 65.7,6.2 C77.1,17 81.3,44.1 70,60.2 C66.6,65 62.4,69 58.2,72.9 C54.3,76.5 50.3,80.3 47,84.7 C46.8,85.1 46.5,85.3 46.1,85.3 Z" id="Shape"/>
            </g>
            <g id="Stroke-12" transform="translate(23.000000, 80.000000)" fill="#2B2B2B">
                <path d="M45.4,44.7 C39.9,44.7 33.2,39.3 27.3,34.5 C24.7,32.4 22.2,30.3 20.3,29.3 C1.5,18.5 0,10.9 0.8,7.3 C1.7,3.5 5.7,0.9 11.7,0.5 C13.8,0.4 16.9,0.5 18.9,0.7 C19.5,0.8 20,1.4 19.9,2 C19.8,2.6 19.2,3.1 18.6,3 C16.5,2.7 13.5,2.7 11.9,2.8 C7,3.2 3.7,5 3.1,7.8 C2,12.8 8.9,20.1 21.6,27.3 C23.6,28.5 26.2,30.5 28.9,32.7 C35,37.7 42.7,43.9 47.4,42.1 C49.9,41.1 51.6,37.9 52.4,32.4 C54.2,20.5 40.9,11 28.9,6.6 C28.3,6.4 28,5.7 28.2,5.1 C28.4,4.5 29.1,4.2 29.7,4.4 C43.1,9.4 56.7,19.5 54.7,32.7 C53.7,39.1 51.6,42.9 48.2,44.2 C47.3,44.6 46.4,44.7 45.4,44.7 Z" id="Shape"/>
            </g>
            <g id="Stroke-14" transform="translate(30.000000, 87.000000)" fill="#2B2B2B">
                <path d="M1.7,11.4 C1.2,11.4 0.7,11.1 0.6,10.5 C-0.2,7.4 0.9,4 3.7,0.5 C4.1,1.17961196e-16 4.8,-0.1 5.3,0.3 C5.8,0.7 5.9,1.4 5.5,1.9 C3.1,4.8 2.3,7.5 2.9,9.9 C3.1,10.5 2.7,11.1 2.1,11.3 C1.9,11.4 1.8,11.4 1.7,11.4 Z" id="Shape"/>
            </g>
            <g id="Stroke-16" transform="translate(35.000000, 89.000000)" fill="#2B2B2B">
                <path d="M1.4,15.8 C0.8,15.8 0.3,15.3 0.3,14.7 C0.3,9.6 3.2,2.6 7.8,0.3 C8.4,3.60822483e-16 9,0.2 9.3,0.8 C9.6,1.4 9.4,2 8.8,2.3 C5.1,4.2 2.6,10.2 2.6,14.6 C2.6,15.3 2.1,15.8 1.4,15.8 Z" id="Shape"/>
            </g>
            <g id="Stroke-18" transform="translate(43.000000, 95.000000)" fill="#2B2B2B">
                <path d="M1.2,12.5 C1.1,12.5 1.1,12.5 1.2,12.5 C0.5,12.5 -2.35922393e-16,11.9 0.1,11.3 C0.5,6.4 2.6,3.8 4.6,1.2 L5,0.8 C5.4,0.3 6.1,0.2 6.6,0.6 C7.1,1 7.2,1.7 6.8,2.2 L6.4,2.6 C4.4,5.1 2.7,7.3 2.4,11.5 C2.3,12.1 1.8,12.5 1.2,12.5 Z" id="Shape"/>
            </g>
            <g id="Stroke-20" transform="translate(47.000000, 105.000000)" fill="#2B2B2B">
                <path d="M2,7.9 C1.8,7.9 1.5,7.8 1.3,7.7 C0.8,7.3 0.7,6.6 1.1,6.1 C1.6,5.5 2.2,4.4 2.8,3.4 C3.5,2.2 4.2,1.1 4.6,0.6 C5,0.1 5.7,0.1 6.2,0.5 C6.7,0.9 6.7,1.6 6.3,2.1 C6,2.5 5.3,3.6 4.7,4.5 C4.1,5.6 3.4,6.7 2.8,7.4 C2.7,7.8 2.4,7.9 2,7.9 Z" id="Shape"/>
            </g>
            <g id="Stroke-22" transform="translate(54.000000, 108.000000)" fill="#2B2B2B">
                <path d="M1.4,9.7 C1.2,9.7 0.9,9.6 0.7,9.5 C0.2,9.1 0.1,8.4 0.5,7.9 C1.1,7.1 1.9,6.5 2.8,5.8 C4.1,4.8 5.7,3.5 7.4,1.2 C7.8,0.7 8.5,0.6 9,1 C9.5,1.4 9.6,2.1 9.2,2.6 C7.3,5.1 5.5,6.5 4.1,7.6 C3.3,8.2 2.7,8.7 2.3,9.2 C2.1,9.5 1.8,9.7 1.4,9.7 Z" id="Shape"/>
            </g>
            <g id="Stroke-24" transform="translate(60.000000, 108.000000)" fill="#2B2B2B">
                <path d="M1.9,13.5 C1.7,13.5 1.5,13.5 1.3,13.4 C0.7,13.3 0.3,12.7 0.4,12.1 C0.5,11.5 1.1,11.1 1.7,11.2 C3.4,11.5 7.1,6.5 8.9,1.6 C9.1,1 9.8,0.7 10.4,0.9 C11,1.1 11.3,1.8 11.1,2.4 C9.8,6 5.7,13.5 1.9,13.5 Z" id="Shape"/>
            </g>
            <g id="Stroke-26" transform="translate(94.000000, 44.000000)" fill="#2B2B2B">
                <path d="M1.2,10.9 C1,10.9 0.9,10.9 0.7,10.8 C0.1,10.5 -0.1,9.9 0.1,9.3 C1.3,6.6 1.9,4.1 1.8,1.9 C1.8,1.3 2.3,0.7 2.9,0.7 C3.5,0.7 4.1,1.2 4.1,1.8 C4.2,4.3 3.5,7.1 2.2,10.2 C2,10.7 1.6,10.9 1.2,10.9 Z" id="Shape"/>
            </g>
            <g id="Stroke-28" transform="translate(88.000000, 58.000000)" fill="#2B2B2B">
                <path d="M1.3,8.7 C1,8.7 0.7,8.6 0.5,8.3 C0.1,7.8 0.1,7.1 0.6,6.7 C1.7,5.7 3.1,2.4 3.3,1.7 C3.4,1.1 4,0.7 4.6,0.8 C5.2,0.9 5.6,1.5 5.5,2.1 C5.3,3.2 3.7,7.1 2.1,8.4 C1.9,8.6 1.6,8.7 1.3,8.7 Z" id="Shape"/>
            </g>
            <g id="Stroke-30" transform="translate(80.000000, 70.000000)" fill="#2B2B2B">
                <path d="M2,9.1 C1.7,9.1 1.4,9 1.2,8.8 C0.7,8.4 0.7,7.7 1.1,7.2 C2.2,6 4.1,2.9 4.5,1.6 C4.7,1 5.3,0.7 5.9,0.9 C6.5,1.1 6.8,1.7 6.6,2.3 C6,4 4,7.3 2.7,8.7 C2.7,9 2.3,9.1 2,9.1 Z" id="Shape"/>
            </g>
            <g id="Stroke-32" transform="translate(72.000000, 82.000000)" fill="#2B2B2B">
                <path d="M1.9,7.5 C1.5,7.5 1.2,7.3 1,7 C0.6,6.5 0.8,5.8 1.3,5.4 C1.8,5 4.8,1.7 5.1,1.1 C5.4,0.6 6.1,0.4 6.6,0.6 C7.1,0.9 7.4,1.5 7.1,2.1 C6.7,3 3.1,6.8 2.5,7.2 C2.3,7.5 2.1,7.5 1.9,7.5 Z" id="Shape"/>
            </g>
            <g id="Stroke-34" transform="translate(53.000000, 47.000000)" fill="#2B2B2B">
                <path d="M2.1,17.1 C1.9,17.1 1.7,17.1 1.5,17 C1,16.7 0.8,16 1.1,15.5 C3.8,10.7 4.6,6.5 4.8,1.4 C4.8,0.8 5.4,0.3 6,0.3 C6.6,0.3 7.1,0.9 7.1,1.5 C6.8,7 6,11.4 3.1,16.6 C2.9,16.9 2.5,17.1 2.1,17.1 Z" id="Shape"/>
            </g>
        </g>
    </g>
</svg>