<svg width="92" height="15" xmlns="http://www.w3.org/2000/svg" viewBox="0 0 92 15"><path d="M1.92 14.49H.64c-.11 0-.38 0-.38-.16 0-.1.06-.16.22-.21 1.17-.38 1.44-1.01 1.44-1.92V2.67c0-.85-.27-1.49-1.44-1.91C.32.76.26.66.26.6.26.38.53.44.64.44h10.59c2.4 0 4.38 1.91 4.38 4.3 0 2.4-1.98 4.32-4.38 4.32H5.88v3.25c.05.85.32 1.43 1.44 1.8.16.06.22.11.22.22 0 .16-.27.16-.38.16H1.92zm78.94-5.16h2.52l-2.52-4.26-.27-.43-2.24 4.69h2.51zm0-8.94h1.71l7.17 12.56c.21.32.48.64.8.8.27.2.59.26.86.37.1.05.21.1.21.21 0 .16-.27.16-.37.16h-6.37c-.1 0-.43 0-.43-.16 0-.1.11-.16.22-.21.32-.1.53-.27.64-.59.1-.37 0-.58-.27-1.06a88.74 88.74 0 00-1.12-2.3h-5.99l-.05.11c-.06.22-.48.96-.8 1.76-.43.85-.6 1.07-.49 1.5.06.31.32.47.64.58.11.05.17.1.17.2 0 .17-.27.17-.38.17h-2.94c-.1 0-.38 0-.38-.16 0-.1.06-.16.22-.21.27-.11.59-.16.85-.38.32-.16.6-.48.8-.8l.38-.8 4.07-8.46-.6-1A4.6 4.6 0 0077.77.96c-.27-.16-.54-.16-.8-.27-.16-.05-.22-.1-.16-.2 0-.12.1-.06.16-.12h3.9zM64.87 14.43h.21c9.85 0 9.74-14 0-14h-8.07c-.16 0-.43-.05-.43.17 0 .05.1.16.22.16 1.17.37 1.44 1 1.5 1.8v9.75c-.06.85-.33 1.43-1.5 1.8-.11.06-.22.11-.22.22 0 .16.27.16.43.16h5.19v-.05h2.67zm0-12.98c1.5 0 2.73 1.22 2.73 2.71v6.5a2.73 2.73 0 01-2.73 2.71H62.2V1.45h2.67zM44.49 9.33h2.52l-2.52-4.26-.26-.43-2.25 4.69h2.51zm0-8.94h1.77l7.16 12.56c.17.32.43.64.75.8.27.2.6.26.91.37.11.05.22.1.22.21 0 .16-.32.16-.43.16H48.5c-.11 0-.38 0-.38-.16 0-.1.05-.16.21-.21.27-.1.54-.27.6-.59.1-.37 0-.58-.22-1.06-.38-.8-.8-1.55-1.18-2.3h-5.99l-.05.11c-.06.22-.43.96-.8 1.76-.38.85-.6 1.07-.49 1.5.11.31.32.47.65.58.1.05.2.1.2.2 0 .17-.26.17-.42.17h-2.89c-.1 0-.43 0-.43-.16 0-.1.11-.16.22-.21.32-.11.59-.16.9-.38.28-.16.6-.48.76-.8l.37-.8 4.12-8.46-.59-1A5.07 5.07 0 0041.44.96c-.32-.16-.53-.16-.85-.27-.11-.05-.22-.1-.16-.2.05-.12.16-.06.21-.12h3.85zm-17.65 9.3c1.23.43 2.73.54 3.9.17l4.66 4 .38.31c.05.05.05.1.05.16 0 .16-.27.16-.38.16h-4.92l-3.69-3.03-3-2.4v3.3c.06.8.38 1.38 1.5 1.76.11.05.17.1.17.21 0 .16-.27.16-.38.16h-6.47c-.16 0-.43 0-.43-.16 0-.1.1-.16.22-.21 1.28-.43 1.44-1.07 1.5-2.08v-9.2c-.06-.96-.22-1.66-1.5-2.08-.11 0-.22-.1-.22-.16 0-.21.27-.16.43-.16h10.43a4.33 4.33 0 013.07 1.26 4.28 4.28 0 011.26 3.05 4.28 4.28 0 01-1.26 3.05 4.32 4.32 0 01-3.07 1.26h-3.37c.16.32.54.43.86.59.1 0 .16.05.26.05zm0-1.64h.43c1.4 0 2.57-1.5 2.57-3.4 0-1.87-1.18-3.36-2.57-3.36h-3.42v6.76h3zM8.93 1.29H5.88v6.76H9.4c1.44 0 2.56-1.49 2.56-3.4 0-1.87-1.12-3.36-2.56-3.36h-.48z"/></svg>
