<svg width="101" height="14" viewBox="0 0 101 14" xmlns="http://www.w3.org/2000/svg"><path d="M50.427 13.513c2.877-.012 5.042-1.462 5.046-4.074.017-2.331-2.414-3.004-4.604-3.43-1.795-.348-3.41-1.011-3.427-2.556 0-.039 0-.082.004-.124.092-1.21 1.491-1.879 2.789-1.883 1.256-.004 2.196.534 3.046 1.536l1.311-1.04C52.64.612 51.703.587 50.242.582c-.818-.001-2.037.2-3.03.772-.993.577-1.76 1.49-1.764 2.982v.06c.016 2.671 3.118 3.17 4.145 3.356 1.213.25 3.543.784 3.578 2.82-.02 1.362-1.52 2.084-2.738 2.086l-.02.001c-1.06-.002-2.718-.226-3.842-1.824l-1.434 1.104c1.146.973 2.493 1.578 5.292 1.574h-.002zm-33.929-.325h8.216v-.774h-5.766V7.23h4.626v-.722l-4.626.018V1.551h5.766V.785h-8.216zm59.015-6.155c.024 4.665 2.373 6.446 6.164 6.46 2.814-.003 4.135-.665 4.815-1.595.374-.52.476-.916.493-1.443h-1.642c-.093 1.408-1.315 2.544-2.946 2.546-.973 0-2.068-.148-2.916-.979-.846-.83-1.41-2.301-1.41-4.867.001-2.753.55-4.3 1.317-5.17C80.157 1.118 81.13.97 81.87.972c.76 0 1.524.25 2.09.77.543.498.921 1.246.957 2.253h2.112C86.948 2.165 85.815.614 81.885.59c-4.037.036-6.339 1.746-6.374 6.444h.002zM4.609 13.188h2.273L11.483.786h-1.202L6.479 11.519l-.162.459L2.684.785H.194zm30.237-5.431l3.322 5.431h2.495L37.29 7.683l-.107-.173.19-.07c1.148-.421 2.735-1.332 2.733-3.344-.008-1.997-1.502-3.29-5.513-3.31L29.905.785v12.403h2.448v-5.43h2.493zm-.816-.543l-1.677-.004V1.395h2.01c1.96 0 3.259 1.247 3.259 2.76-.004 1.501-1.329 3.055-3.577 3.059h-.015zm34.029 1.634l1.77 4.34h2.315L66.891.784h-2.288L58.89 13.188h1.084l1.988-4.245.044-.096h6.053zm-5.738-.7l2.737-5.89.16-.34 2.564 6.23h-5.46zm30.076 5.042h8.217v-.776h-5.77V7.228h4.628v-.72l-4.627.017V1.551h5.77V.785h-8.218V13.19z"/></svg>
