<?xml version="1.0" encoding="UTF-8" standalone="no"?>
<svg width="140px" height="140px" viewBox="0 0 140 140" version="1.1" xmlns="http://www.w3.org/2000/svg" xmlns:xlink="http://www.w3.org/1999/xlink">
    <!-- Generator: Sketch 47.1 (45422) - http://www.bohemiancoding.com/sketch -->
    <title>Elegant</title>
    <desc>Created with Sketch.</desc>
    <defs/>
    <g id="SVG-140x140" stroke="none" stroke-width="1" fill="none" fill-rule="evenodd">
        <g id="Elegant" fill-rule="nonzero">
            <g id="Fill-1" fill="#F6F7F8">
                <path d="M70,140 C108.6,140 140,108.6 140,70 C140,31.4 108.6,0 70,0 C31.4,0 0,31.4 0,70 C0,108.6 31.4,140 70,140" id="Shape"/>
            </g>
            <g id="Fill-2" transform="translate(21.000000, 15.000000)" fill="#FFFFFF">
                <path d="M46,1 C27.6,-1.8 -21.7,31.4 12.4,54.5 C15.2,56.4 39,64.7 39.2,54.7 C39.2,54.2 20.7,42.4 29.7,29.9 C37.7,18.8 59.7,18.5 45.9,1.5 L46,1" id="Shape"/>
            </g>
            <g id="Fill-3" transform="translate(51.000000, 87.000000)" fill="#FFFFFF">
                <path d="M21.8,4.7 C23.2,11 25.2,38.3 10.1,31 C1.2,26.7 -3.7,30.5 6.6,11.2 C8.5,7.6 20.5,-6.4 21.2,3.9 C21.2,4.1 21.7,4.5 21.8,4.7" id="Shape"/>
            </g>
            <g id="Stroke-4" transform="translate(17.000000, 21.000000)" fill="#2B2B2B">
                <path d="M53,106.4 C52.6,106.4 52.2,106.2 52,105.9 L40.7,88 C40.5,87.7 40.5,87.2 40.6,86.9 L51.1,65.2 C47.8,64.5 45.2,62.1 44.3,58.9 C42.9,60.5 40.8,61.5 38.4,61.5 C36.4,61.5 34.6,60.8 33.2,59.5 L39,71.9 C39.2,72.2 39.1,72.6 38.9,73 L31.8,84.5 C31.4,85.2 30.3,85.2 29.9,84.5 L22.8,73 C22.6,72.7 22.6,72.3 22.7,71.9 L29.5,56.8 C28.5,57.3 27.4,57.6 26.2,57.6 C22.5,57.6 19.4,54.7 19.1,51.1 C18.2,51.6 17.2,51.8 16.1,51.8 C12.6,51.8 9.7,48.9 9.7,45.4 C9.7,45 9.7,44.7 9.8,44.3 C9.4,44.4 9,44.4 8.6,44.4 C5.1,44.4 2.2,41.5 2.2,38 C2.2,36.3 2.9,34.7 4,33.5 C1.8,32.5 0.2,30.3 0.2,27.6 C0.2,24.2 2.8,21.4 6.2,21.2 C5.8,20.4 5.6,19.5 5.6,18.6 C5.6,15.1 8.5,12.2 12,12.2 C12.8,12.2 13.6,12.4 14.3,12.6 C14.3,9.1 17.2,6.3 20.7,6.3 C22.1,6.3 23.3,6.7 24.3,7.4 C25,4.6 27.5,2.6 30.5,2.6 C32.2,2.6 33.8,3.3 35,4.4 C36,2.2 38.2,0.6 40.8,0.6 C44.3,0.6 47.2,3.5 47.2,7 C47.2,10.5 44.3,13.4 40.8,13.4 C39.1,13.4 37.5,12.7 36.3,11.6 C35.3,13.8 33.1,15.4 30.5,15.4 C29.1,15.4 27.9,15 26.9,14.3 C26.2,17.1 23.7,19.1 20.7,19.1 C19.9,19.1 19.1,18.9 18.4,18.7 C18.4,22.1 15.7,24.8 12.4,25 C12.8,25.8 13,26.7 13,27.6 C13,29.3 12.3,30.9 11.2,32.1 C13.4,33.1 15,35.3 15,38 C15,38.4 15,38.7 14.9,39.1 C15.3,39 15.7,39 16.1,39 C19.3,39 21.9,41.3 22.4,44.3 C23.5,43.6 24.8,43.2 26.2,43.2 C29.3,43.2 32,45.2 33,47.9 C34.4,46.4 36.4,45.5 38.6,45.5 C42,45.5 44.9,47.7 46,50.8 C47.6,48.7 50.2,47.4 53,47.4 C55.8,47.4 58.4,48.8 60,50.8 C61.1,47.7 64,45.5 67.4,45.5 C69.6,45.5 71.6,46.4 73,47.9 C74,45.1 76.6,43.2 79.8,43.2 C81.2,43.2 82.5,43.6 83.6,44.3 C84.1,41.3 86.7,39 89.9,39 C90.3,39 90.7,39 91.1,39.1 C91,38.7 91,38.4 91,38 C91,35.4 92.6,33.1 94.8,32.1 C93.7,30.9 93,29.4 93,27.6 C93,26.7 93.2,25.8 93.6,25 C90.3,24.8 87.7,22 87.6,18.7 C86.9,19 86.1,19.1 85.3,19.1 C82.3,19.1 79.8,17 79.1,14.3 C78.1,15 76.8,15.4 75.4,15.4 C72.8,15.4 70.5,13.8 69.6,11.6 C68.4,12.7 66.9,13.4 65.1,13.4 C61.6,13.4 58.7,10.5 58.7,7 C58.7,3.5 61.6,0.6 65.1,0.6 C67.7,0.6 70,2.2 70.9,4.4 C72.1,3.3 73.6,2.6 75.4,2.6 C78.4,2.6 80.9,4.7 81.6,7.4 C82.6,6.7 83.9,6.3 85.2,6.3 C88.7,6.3 91.6,9.1 91.6,12.6 C92.3,12.3 93.1,12.2 93.9,12.2 C97.4,12.2 100.3,15.1 100.3,18.6 C100.3,19.5 100.1,20.4 99.7,21.2 C103,21.4 105.7,24.2 105.7,27.6 C105.7,30.2 104.1,32.5 101.9,33.5 C103,34.7 103.7,36.2 103.7,38 C103.7,41.5 100.8,44.4 97.3,44.4 C96.9,44.4 96.5,44.4 96.1,44.3 C96.2,44.7 96.2,45 96.2,45.4 C96.2,48.9 93.3,51.8 89.8,51.8 C88.7,51.8 87.7,51.5 86.8,51.1 C86.5,54.8 83.4,57.6 79.7,57.6 C78.5,57.6 77.4,57.3 76.4,56.8 L83.2,71.8 C83.4,72.1 83.3,72.5 83.1,72.9 L76,84.4 C75.6,85.1 74.5,85.1 74.1,84.4 L67.1,73 C66.9,72.7 66.9,72.3 67,71.9 L72.6,59.4 C71.2,60.6 69.4,61.4 67.4,61.4 C65.1,61.4 63,60.4 61.5,58.8 C60.6,62 58,64.5 54.7,65.1 L65.2,86.8 C65.4,87.2 65.3,87.6 65.1,87.9 L54,105.9 C53.8,106.2 53.4,106.4 53,106.4 Z M43,87.3 L53,103.2 L63,87.3 L57.2,75.3 L57.2,75.3 L53,66.7 L43,87.3 Z M69.3,72.3 L75.1,81.7 L80.9,72.3 L75.1,59.4 L69.3,72.3 Z M25,72.3 L30.8,81.7 L36.6,72.3 L30.8,59.4 L25,72.3 Z M53,62.9 L53,62.9 C53.1,62.9 53.3,62.9 53.4,63 C56.8,62.8 59.6,59.9 59.6,56.4 C59.6,52.8 56.6,49.8 53,49.8 C49.4,49.8 46.4,52.8 46.4,56.4 C46.4,59.9 49.1,62.8 52.6,63 C52.7,62.9 52.8,62.9 53,62.9 Z M67.4,48 C64.3,48 61.8,50.5 61.8,53.6 C61.8,56.7 64.3,59.2 67.4,59.2 C70.5,59.2 73,56.7 73,53.6 C73,53.2 73,52.8 72.9,52.5 C72.9,52.4 72.8,52.2 72.8,52.1 C72.1,49.7 70,48 67.4,48 Z M33.1,52.4 C33,52.8 33,53.2 33,53.5 C33,56.6 35.5,59.1 38.6,59.1 C41.7,59.1 44.2,56.6 44.2,53.5 C44.2,50.4 41.7,47.9 38.6,47.9 C36.1,47.9 33.9,49.6 33.2,51.9 C33.2,52.1 33.1,52.3 33.1,52.4 Z M75.1,51.9 C75.7,53.9 77.6,55.4 79.8,55.4 C82.5,55.4 84.7,53.2 84.7,50.5 C84.7,47.8 82.5,45.6 79.8,45.6 C77.1,45.6 74.9,47.8 74.9,50.5 C74.9,50.8 74.9,51.2 75,51.5 C75,51.6 75.1,51.7 75.1,51.9 Z M26.2,45.6 C23.5,45.6 21.3,47.8 21.3,50.5 C21.3,53.2 23.5,55.4 26.2,55.4 C28.4,55.4 30.3,53.9 30.9,51.9 C30.9,51.7 31,51.6 31,51.4 C31.1,51.1 31.1,50.8 31.1,50.5 C31.1,47.8 28.9,45.6 26.2,45.6 Z M89.9,41.4 C87.6,41.4 85.8,43.2 85.8,45.5 C85.8,47.8 87.6,49.6 89.9,49.6 C92.2,49.6 94,47.8 94,45.5 C94,44.4 93.6,43.4 92.9,42.7 C92.9,42.7 92.8,42.6 92.8,42.6 C92.1,41.8 91,41.4 89.9,41.4 Z M13,42.7 C12.3,43.4 11.9,44.4 11.9,45.5 C11.9,47.8 13.7,49.6 16,49.6 C18.3,49.6 20.1,47.8 20.1,45.5 C20.1,43.2 18.3,41.4 16,41.4 C14.9,41.4 13.9,41.8 13.2,42.5 C13.2,42.6 13.1,42.6 13,42.7 Z M94.6,41.1 C95.3,41.8 96.3,42.3 97.4,42.3 C99.7,42.3 101.5,40.5 101.5,38.2 C101.5,36.3 100.2,34.7 98.4,34.2 C98.2,34.2 98,34.1 97.9,34.1 C95.5,33.8 93.3,35.7 93.3,38.2 C93.3,39.3 93.7,40.3 94.4,41 C94.5,41 94.5,41 94.6,41.1 Z M7.5,34.1 C5.7,34.6 4.4,36.2 4.4,38.1 C4.4,40.4 6.2,42.2 8.5,42.2 C9.6,42.2 10.6,41.8 11.3,41.1 C11.4,41 11.4,40.9 11.5,40.9 C12.2,40.2 12.6,39.2 12.6,38.1 C12.6,35.8 10.8,34 8.5,34 C8.3,34 8.2,34 8,34 C7.9,34.1 7.7,34.1 7.5,34.1 Z M98.9,31.9 C99.1,31.9 99.2,31.9 99.4,31.9 C101.7,31.9 103.5,30.1 103.5,27.8 C103.5,25.5 101.7,23.7 99.4,23.7 C97.1,23.7 95.3,25.5 95.3,27.8 C95.3,29.7 96.6,31.3 98.4,31.8 C98.5,31.8 98.7,31.8 98.9,31.9 Z M6.6,23.7 C4.3,23.7 2.5,25.5 2.5,27.8 C2.5,30.1 4.3,31.9 6.6,31.9 C6.8,31.9 6.9,31.9 7.1,31.9 C7.3,31.9 7.5,31.8 7.7,31.8 C9.5,31.3 10.8,29.7 10.8,27.8 C10.7,25.5 8.9,23.7 6.6,23.7 Z M90.5,16.6 C90.1,17.2 89.9,18 89.9,18.8 C89.9,21.1 91.7,22.9 94,22.9 C96.3,22.9 98.1,21.1 98.1,18.8 C98.1,16.5 96.3,14.7 94,14.7 C92.6,14.7 91.4,15.4 90.7,16.4 C90.6,16.4 90.6,16.5 90.5,16.6 Z M12,14.6 C9.7,14.6 7.9,16.4 7.9,18.7 C7.9,21 9.7,22.8 12,22.8 C14.3,22.8 16.1,21 16.1,18.7 C16.1,17.9 15.9,17.2 15.5,16.5 C15.4,16.4 15.4,16.3 15.3,16.2 C14.6,15.3 13.4,14.6 12,14.6 Z M85.3,8.7 C83,8.7 81.2,10.5 81.2,12.8 C81.2,15.1 83,16.9 85.3,16.9 C86.7,16.9 87.9,16.2 88.6,15.2 C88.7,15.1 88.7,15 88.8,14.9 C89.2,14.3 89.4,13.5 89.4,12.7 C89.4,10.6 87.6,8.7 85.3,8.7 Z M17.4,15.3 C18.2,16.3 19.3,17 20.7,17 C23,17 24.8,15.2 24.8,12.9 C24.8,10.6 23,8.8 20.7,8.8 C18.4,8.8 16.6,10.6 16.6,12.9 C16.6,13.7 16.8,14.4 17.2,15.1 C17.3,15.1 17.3,15.2 17.4,15.3 Z M75.5,5.1 C73.2,5.1 71.4,6.9 71.4,9.2 C71.4,11.5 73.2,13.3 75.5,13.3 C77.8,13.3 79.6,11.5 79.6,9.2 C79.6,6.9 77.7,5.1 75.5,5.1 Z M30.5,5.1 C28.2,5.1 26.4,6.9 26.4,9.2 C26.4,11.5 28.2,13.3 30.5,13.3 C32.8,13.3 34.6,11.5 34.6,9.2 C34.6,9 34.6,8.7 34.5,8.5 C34.5,8.4 34.5,8.4 34.5,8.3 C34.2,6.4 32.5,5.1 30.5,5.1 Z M65.1,3.1 C62.8,3.1 61,4.9 61,7.2 C61,9.5 62.8,11.3 65.1,11.3 C67.4,11.3 69.2,9.5 69.2,7.2 C69.3,4.9 67.4,3.1 65.1,3.1 Z M36.8,8.1 C37.2,10 38.9,11.3 40.8,11.3 C43.1,11.3 44.9,9.5 44.9,7.2 C44.9,4.9 43.1,3.1 40.8,3.1 C38.5,3.1 36.7,4.9 36.7,7.2 C36.7,7.4 36.7,7.7 36.8,7.9 C36.8,7.9 36.8,8 36.8,8.1 Z" id="Shape"/>
            </g>
            <g id="Stroke-5" transform="translate(68.000000, 84.000000)" fill="#2B2B2B">
                <path d="M2,24.4 C1.4,24.4 0.9,23.9 0.9,23.3 L0.9,1.7 C0.9,1.1 1.4,0.6 2,0.6 C2.6,0.6 3.1,1.1 3.1,1.7 L3.1,23.3 C3.1,23.9 2.6,24.4 2,24.4 Z" id="Shape"/>
            </g>
        </g>
    </g>
</svg>