<?xml version="1.0" encoding="UTF-8" standalone="no"?>
<svg width="140px" height="140px" viewBox="0 0 140 140" version="1.1" xmlns="http://www.w3.org/2000/svg" xmlns:xlink="http://www.w3.org/1999/xlink">
    <!-- Generator: Sketch 47.1 (45422) - http://www.bohemiancoding.com/sketch -->
    <title>Everyday</title>
    <desc>Created with Sketch.</desc>
    <defs/>
    <g id="SVG-140x140" stroke="none" stroke-width="1" fill="none" fill-rule="evenodd">
        <g id="Everyday" fill-rule="nonzero">
            <g id="Group-3" transform="translate(0.000000, -0.000420)" fill="#F6F7F8">
                <g id="Fill-1">
                    <path d="M70,140 C108.6,140 140,108.6 140,70 C140,31.4 108.6,0 70,0 C31.4,0 0,31.4 0,70 C0,108.6 31.4,140 70,140" id="Shape"/>
                </g>
            </g>
            <g id="Fill-4" transform="translate(18.000000, 35.000000)" fill="#FFFFFF">
                <path d="M83,11.9 C82.5,18.2 85,53 80,55.3 C68.2,60.7 39.4,57.4 21.2,57.4 C-15.5,57.4 2.5,80.5 37.4,80.5 C53.3,80.5 98.2,85.8 102.7,68.6 C105.6,57.4 106.8,44.5 107,35.7 C107.1,24.3 103.9,13.6 100.5,7.7 C94.6,-2.2 84.1,-2 83,11.9" id="Shape"/>
            </g>
            <g id="Fill-6" transform="translate(14.000000, 27.000000)" fill="#FFFFFF">
                <path d="M91.8,8.5 C101.7,21.3 63.5,17.8 55.4,20.5 C33.7,27.8 59.5,59.1 20.6,72.9 C-2.4,81 -2.4,17.6 6,11.7 C11.6,7.8 18,3.6 28.2,2 C46.7,-0.9 71.7,0.9 84.1,2.1 C88.3,2.5 89.6,5.6 91.8,8.5" id="Shape"/>
            </g>
            <g id="Stroke-8" transform="translate(29.000000, 48.000000)" fill="#2B2B2B">
                <path d="M74.6,59.8 L1.8,59.8 C1.2,59.8 0.7,59.3 0.7,58.7 C0.7,58.1 1.2,57.6 1.8,57.6 L74.6,57.6 C81.5,57.6 87.2,52 87.2,45 L87.2,1.1 C87.2,0.5 87.7,0 88.3,0 C88.9,0 89.4,0.5 89.4,1.1 L89.4,45 C89.4,53.1 82.8,59.8 74.6,59.8 Z" id="Shape"/>
            </g>
            <g id="Stroke-10" transform="translate(21.000000, 35.000000)" fill="#2B2B2B">
                <path d="M82.6,67.2 L9.8,67.2 C4.7,67.2 0.6,63.1 0.6,58 L0.6,9.7 C0.6,4.6 4.7,0.5 9.8,0.5 L82.6,0.5 C87.7,0.5 91.8,4.6 91.8,9.7 L91.8,58 C91.8,63 87.7,67.2 82.6,67.2 Z M9.8,2.7 C6,2.7 2.8,5.8 2.8,9.7 L2.8,58 C2.8,61.8 5.9,65 9.8,65 L82.6,65 C86.4,65 89.6,61.9 89.6,58 L89.6,9.7 C89.6,5.9 86.5,2.7 82.6,2.7 L9.8,2.7 Z" id="Shape"/>
            </g>
            <g id="Stroke-12" transform="translate(36.000000, 40.000000)" fill="#2B2B2B">
                <path d="M6.4,12.5 C3.1,12.5 0.5,9.8 0.5,6.6 C0.5,3.3 3.2,0.7 6.4,0.7 C9.6,0.7 12.3,3.4 12.3,6.6 C12.4,9.8 9.7,12.5 6.4,12.5 Z M6.4,2.8 C4.4,2.8 2.7,4.4 2.7,6.5 C2.7,8.6 4.3,10.2 6.4,10.2 C8.5,10.2 10.1,8.6 10.1,6.5 C10.1,4.4 8.5,2.8 6.4,2.8 Z" id="Shape"/>
            </g>
            <g id="Stroke-14" transform="translate(41.000000, 30.000000)" fill="#2B2B2B">
                <path d="M1.4,15.9 C0.8,15.9 0.3,15.4 0.3,14.8 L0.3,1.5 C0.3,0.9 0.8,0.4 1.4,0.4 C2,0.4 2.5,0.9 2.5,1.5 L2.5,14.7 C2.5,15.4 2,15.9 1.4,15.9 Z" id="Shape"/>
            </g>
            <g id="Stroke-16" transform="translate(86.000000, 40.000000)" fill="#2B2B2B">
                <path d="M6.7,12.5 C3.4,12.5 0.8,9.8 0.8,6.6 C0.8,3.3 3.5,0.7 6.7,0.7 C10,0.7 12.6,3.4 12.6,6.6 C12.6,9.8 9.9,12.5 6.7,12.5 Z M6.7,2.8 C4.7,2.8 3,4.4 3,6.5 C3,8.6 4.6,10.2 6.7,10.2 C8.8,10.2 10.4,8.6 10.4,6.5 C10.4,4.4 8.7,2.8 6.7,2.8 Z" id="Shape"/>
            </g>
            <g id="Stroke-18" transform="translate(91.000000, 30.000000)" fill="#2B2B2B">
                <path d="M1.6,15.9 C1,15.9 0.5,15.4 0.5,14.8 L0.5,1.5 C0.5,0.9 1,0.4 1.6,0.4 C2.2,0.4 2.7,0.9 2.7,1.5 L2.7,14.7 C2.8,15.4 2.2,15.9 1.6,15.9 Z" id="Shape"/>
            </g>
            <g id="Stroke-20" transform="translate(61.000000, 40.000000)" fill="#2B2B2B">
                <path d="M6.2,12.5 C2.9,12.5 0.3,9.8 0.3,6.6 C0.3,3.3 3,0.7 6.2,0.7 C9.4,0.7 12.1,3.4 12.1,6.6 C12.1,9.8 9.5,12.5 6.2,12.5 Z M6.2,2.8 C4.2,2.8 2.5,4.4 2.5,6.5 C2.5,8.6 4.1,10.2 6.2,10.2 C8.2,10.2 9.9,8.6 9.9,6.5 C9.9,4.4 8.2,2.8 6.2,2.8 Z" id="Shape"/>
            </g>
            <g id="Stroke-22" transform="translate(66.000000, 30.000000)" fill="#2B2B2B">
                <path d="M1.2,15.9 C0.6,15.9 0.1,15.4 0.1,14.8 L0.1,1.5 C0.1,0.9 0.6,0.4 1.2,0.4 C1.8,0.4 2.3,0.9 2.3,1.5 L2.3,14.7 C2.3,15.4 1.8,15.9 1.2,15.9 Z" id="Shape"/>
            </g>
            <g id="Stroke-24" transform="translate(32.000000, 57.000000)" fill="#2B2B2B">
                <path d="M68.6,3.1 L1.8,3.1 C1.2,3.1 0.7,2.6 0.7,2 C0.7,1.4 1.2,0.9 1.8,0.9 L68.7,0.9 C69.3,0.9 69.8,1.4 69.8,2 C69.8,2.6 69.3,3.1 68.6,3.1 Z" id="Shape"/>
            </g>
            <g id="Stroke-26" transform="translate(32.000000, 69.000000)" fill="#2B2B2B">
                <path d="M68.6,2.4 L1.8,2.4 C1.2,2.4 0.7,1.9 0.7,1.3 C0.7,0.7 1.2,0.2 1.8,0.2 L68.7,0.2 C69.3,0.2 69.8,0.7 69.8,1.3 C69.8,1.9 69.3,2.4 68.6,2.4 Z" id="Shape"/>
            </g>
            <g id="Stroke-28" transform="translate(32.000000, 80.000000)" fill="#2B2B2B">
                <path d="M68.6,2.4 L1.8,2.4 C1.2,2.4 0.7,1.9 0.7,1.3 C0.7,0.7 1.2,0.2 1.8,0.2 L68.7,0.2 C69.3,0.2 69.8,0.7 69.8,1.3 C69.8,1.9 69.3,2.4 68.6,2.4 Z" id="Shape"/>
            </g>
            <g id="Stroke-30" transform="translate(32.000000, 91.000000)" fill="#2B2B2B">
                <path d="M68.6,2.6 L1.8,2.6 C1.2,2.6 0.7,2.1 0.7,1.5 C0.7,0.9 1.2,0.4 1.8,0.4 L68.7,0.4 C69.3,0.4 69.8,0.9 69.8,1.5 C69.8,2.1 69.3,2.6 68.6,2.6 Z" id="Shape"/>
            </g>
            <g id="Stroke-32" transform="translate(37.000000, 61.000000)" fill="#2B2B2B">
                <path d="M2.1,32.6 C1.8,32.6 1.5,32.5 1.3,32.3 C1.1,32.1 0.9,31.8 0.9,31.5 L1,1.2 C1,0.6 1.5,0.1 2.1,0.1 C2.1,0.1 2.1,0.1 2.1,0.1 C2.7,0.1 3.2,0.6 3.2,1.2 L3.1,31.2 C3.1,31.3 3.1,31.4 3.1,31.5 C3.2,32.1 2.7,32.6 2.1,32.6 Z" id="Shape"/>
            </g>
            <g id="Stroke-34" transform="translate(52.000000, 61.000000)" fill="#2B2B2B">
                <path d="M1.2,32.6 C0.9,32.6 0.6,32.5 0.4,32.3 C0.2,32.1 0,31.8 0,31.5 L0.1,1.2 C0.1,0.6 0.6,0.1 1.2,0.1 C1.2,0.1 1.2,0.1 1.2,0.1 C1.8,0.1 2.3,0.6 2.3,1.2 L2.2,31.2 C2.2,31.3 2.2,31.4 2.2,31.5 C2.3,32.1 1.9,32.6 1.2,32.6 Z" id="Shape"/>
            </g>
            <g id="Stroke-36" transform="translate(65.000000, 61.000000)" fill="#2B2B2B">
                <path d="M2.1,32.6 C1.8,32.6 1.5,32.5 1.3,32.3 C1.1,32.1 0.9,31.8 0.9,31.5 L1,1.2 C1,0.6 1.5,0.1 2.1,0.1 C2.1,0.1 2.1,0.1 2.1,0.1 C2.7,0.1 3.2,0.6 3.2,1.2 L3.1,31.2 C3.1,31.3 3.1,31.4 3.1,31.5 C3.1,32.1 2.7,32.6 2.1,32.6 Z" id="Shape"/>
            </g>
            <g id="Stroke-38" transform="translate(79.000000, 61.000000)" fill="#2B2B2B">
                <path d="M2.1,32.6 C1.8,32.6 1.5,32.5 1.3,32.3 C1.1,32.1 0.9,31.8 0.9,31.5 L1,1.2 C1,0.6 1.5,0.1 2.1,0.1 L2.1,0.1 C2.7,0.1 3.2,0.6 3.2,1.2 L3.1,31.2 C3.1,31.3 3.1,31.4 3.1,31.5 C3.2,32.1 2.8,32.6 2.1,32.6 Z" id="Shape"/>
            </g>
            <g id="Stroke-40" transform="translate(94.000000, 61.000000)" fill="#2B2B2B">
                <path d="M1.3,32.6 C1,32.6 0.7,32.5 0.5,32.3 C0.3,32.1 0.1,31.8 0.1,31.5 L0.2,1.2 C0.2,0.6 0.7,0.1 1.3,0.1 L1.3,0.1 C1.9,0.1 2.4,0.6 2.4,1.2 L2.3,31.2 C2.3,31.3 2.3,31.4 2.3,31.5 C2.4,32.1 1.9,32.6 1.3,32.6 Z" id="Shape"/>
            </g>
        </g>
    </g>
</svg>