<?xml version="1.0" encoding="UTF-8" standalone="no"?>
<svg width="140px" height="140px" viewBox="0 0 140 140" version="1.1" xmlns="http://www.w3.org/2000/svg" xmlns:xlink="http://www.w3.org/1999/xlink">
    <!-- Generator: Sketch 47.1 (45422) - http://www.bohemiancoding.com/sketch -->
    <title>Floral</title>
    <desc>Created with Sketch.</desc>
    <defs/>
    <g id="SVG-140x140" stroke="none" stroke-width="1" fill="none" fill-rule="evenodd">
        <g id="Floral" fill-rule="nonzero">
            <g id="Group-3" transform="translate(0.000000, -0.000280)" fill="#F6F7F8">
                <g id="Fill-1">
                    <path d="M70,140 C108.6,140 140,108.6 140,70 C140,31.4 108.6,0 70,0 C31.4,0 0,31.4 0,70 C0,108.6 31.4,140 70,140" id="Shape"/>
                </g>
            </g>
            <g id="Fill-4" transform="translate(33.000000, 19.000000)" fill="#FFFFFF">
                <path d="M31.3,1.6 L31,0.6 C40.3,11.6 25.2,47.7 48.4,47.7 C55.7,47.7 46,22.7 48.1,17 C49.4,13.5 69.3,-7.7 60,20 C52.2,42.7 76.7,51.8 47,65.8 C32.8,72.5 8.4,50.5 4.9,34.5 C0.2,12.9 -4.5,19.8 10.3,13.9 C15.6,-6 17.2,1.6 31.3,1.6" id="Shape"/>
            </g>
            <g id="Fill-6" transform="translate(21.000000, 66.000000)" fill="#FFFFFF">
                <path d="M0,9.7 C9.7,35.6 34.5,29 48.5,55.4 C50.4,59.1 73.6,52.4 81.4,38.9 C87.2,28.9 90.4,20.4 92.4,9.2 C95.3,-7.5 87.8,4.4 76.6,15.4 C67,24.8 60.1,26.9 54.6,41.1 C54.4,41.6 52.5,25.9 31.4,19.3 C18.9,15.4 17.5,12.7 2.7,10.7 C2.5,10.7 0.1,10 0,9.7" id="Shape"/>
            </g>
            <g id="Stroke-8" transform="translate(71.000000, 78.000000)" fill="#2B2B2B">
                <path d="M4.2,34.8 C4,34.8 3.9,34.8 3.7,34.7 C3.1,34.4 2.9,33.8 3.1,33.2 C8.7,20.8 4.1,8.2 0.4,2.7 C0.1,2.2 0.2,1.5 0.7,1.1 C1.2,0.8 1.9,0.9 2.3,1.4 C7.5,9.3 10.4,22.4 5.1,34.1 C5,34.6 4.6,34.8 4.2,34.8 Z" id="Shape"/>
            </g>
            <g id="Stroke-10" transform="translate(49.000000, 17.000000)" fill="#2B2B2B">
                <path d="M22.8,63.6 C20.3,63.6 17.8,63.2 15.3,62.3 C6.4,59.1 0.7,50.9 0.8,41.4 C0.8,34.2 3.8,27.3 6.9,19.9 C9.5,13.9 12.1,7.6 13,1.3 C13.1,0.8 13.4,0.4 13.9,0.4 C14.4,0.3 14.8,0.5 15.1,0.9 C16.2,2.7 18.2,5.3 20.4,8.2 C22.4,10.8 24.6,13.7 26.8,16.8 C29.8,11.8 40.2,5 49.6,5.4 C50,5.4 50.4,5.7 50.6,6.1 C50.8,6.5 50.7,6.9 50.5,7.3 C45.8,13.3 45.4,18.9 46.2,27.3 C47.2,37.2 47.5,46.8 41.3,54.5 C36.4,60.3 29.7,63.6 22.8,63.6 Z M14.8,4.3 C13.6,10 11.3,15.4 9,20.7 C6,27.9 3.1,34.6 3.1,41.4 C3.1,50 8.2,57.4 16.1,60.2 C22.7,62.6 32.3,61.9 39.6,52.9 C44.8,46.5 45.1,38.7 44,27.3 C43.3,20.4 43.1,14.1 47.4,7.6 C39.1,8.4 30.5,14.6 28.7,18.2 C28.6,18.4 28.5,18.5 28.3,18.7 C28.6,19.2 29,19.7 29.3,20.3 C37.1,32.1 39.3,41 36.3,47.4 C36,48 35.3,48.2 34.8,47.9 C34.2,47.6 34,47 34.3,46.4 C37,40.8 34.8,32.7 27.5,21.6 C24.7,17.3 21.6,13.2 18.8,9.6 C17.2,7.5 15.9,5.8 14.8,4.3 Z" id="Shape"/>
            </g>
            <g id="Stroke-12" transform="translate(30.000000, 31.000000)" fill="#2B2B2B">
                <path d="M19.6,42.3 C19.3,42.3 19,42.2 18.8,42 C13.5,37 11.6,29.5 9.7,22.2 C7.9,14.8 6.1,7.9 1,4.6 C0.7,4.4 0.5,4 0.5,3.6 C0.5,3.2 0.7,2.8 1,2.6 C5.2,-0.1 16.4,-0.1 22,7.7 C22.4,8.2 22.3,8.9 21.7,9.3 C21.2,9.7 20.5,9.6 20.1,9 C15.7,2.9 7.8,2.6 3.7,3.8 C8.3,7.8 10,14.5 11.8,21.5 C13.5,28.4 15.4,35.6 20.2,40.2 C20.7,40.6 20.7,41.3 20.2,41.8 C20.2,42.2 19.9,42.3 19.6,42.3 Z" id="Shape"/>
            </g>
            <g id="Stroke-14" transform="translate(44.000000, 22.000000)" fill="#2B2B2B">
                <path d="M1.9,13.8 C1.8,13.8 1.7,13.8 1.6,13.8 C1,13.6 0.6,13 0.8,12.4 L1,11.7 C1.9,8.3 2.6,5.6 4.2,1.6 C4.4,1.1 5,0.8 5.5,0.9 C9.3,1.8 14.3,3.9 17,6.5 C17.4,6.9 17.4,7.7 17,8.1 C16.6,8.5 15.8,8.5 15.4,8.1 C13.3,6 9.2,4.2 5.9,3.3 C4.6,6.7 3.9,9.2 3.1,12.2 L3,12.9 C2.9,13.5 2.4,13.8 1.9,13.8 Z" id="Shape"/>
            </g>
            <g id="Stroke-16" transform="translate(70.000000, 16.000000)" fill="#2B2B2B">
                <path d="M1.2,13.4 C1.1,13.4 1,13.4 0.8,13.3 C0.2,13.1 -0.1,12.4 0.1,11.9 C1.7,7.4 2.7,4.7 6.9,0.8 C7.1,0.6 7.4,0.5 7.7,0.5 C12.6,0.7 16.8,7.5 16.8,10.8 C16.8,11.4 16.3,11.9 15.7,11.9 C15.1,11.9 14.6,11.4 14.6,10.8 C14.6,8.9 11.4,3.5 8.1,2.8 C4.5,6.3 3.6,8.8 2.3,12.6 C2.1,13.1 1.7,13.4 1.2,13.4 Z" id="Shape"/>
            </g>
            <g id="Stroke-18" transform="translate(68.000000, 63.000000)" fill="#2B2B2B">
                <path d="M1.8,60.3 C1.2,60.3 0.7,59.9 0.7,59.3 C0.6,58.7 1.1,58.1 1.7,58.1 C31.2,55.5 48.4,38.4 52.7,7.3 C44.8,20.4 36.8,25.4 29,30.2 C25,32.7 21.2,35 17.4,38.4 C16.9,38.8 16.2,38.8 15.8,38.3 C15.4,37.8 15.4,37.1 15.9,36.7 C19.9,33.1 23.9,30.6 27.8,28.2 C36.2,23 44.9,17.6 53.4,1.3 C53.6,0.8 54.2,0.6 54.7,0.7 C55.2,0.9 55.6,1.3 55.5,1.9 C52.4,37.7 34.4,57.4 1.9,60.3 C1.9,60.3 1.8,60.3 1.8,60.3 Z" id="Shape"/>
            </g>
            <g id="Stroke-20" transform="translate(21.000000, 76.000000)" fill="#2B2B2B">
                <path d="M52.1,40.1 C52,40.1 52,40.1 51.9,40.1 C51.3,40 50.8,39.4 50.9,38.8 C53.2,23 40.7,19.1 26.2,14.7 C17.8,12.1 9.1,9.5 2.5,4.2 C4.2,16.2 15.5,26 26,30.2 C26.6,30.4 26.9,31.1 26.6,31.7 C26.4,32.3 25.7,32.6 25.1,32.3 C13.2,27.5 0.3,15.8 0,1.6 C0,1.1 0.3,0.7 0.7,0.5 C1.1,0.3 1.6,0.4 1.9,0.7 C8.3,6.8 17.7,9.7 26.8,12.5 C41.6,17 55.7,21.3 53.2,39.1 C53.1,39.7 52.6,40.1 52.1,40.1 Z" id="Shape"/>
            </g>
            <g id="Stroke-22" transform="translate(31.000000, 106.000000)" fill="#2B2B2B">
                <path d="M32.6,17.6 C19.9,17.6 13,13 1.8,5.6 L1,5.1 C0.6,4.9 0.5,4.5 0.5,4 C0.5,3.6 0.8,3.2 1.2,3.1 C10.4,-0.5 28.3,-2 36.4,4.6 C39.9,7.4 41.3,11.3 40.5,16.3 C40.4,16.8 40,17.2 39.5,17.2 C37.1,17.5 34.8,17.6 32.6,17.6 Z M4.2,4.5 C16.3,12.5 22.9,16.6 38.4,15.1 C38.8,11.5 37.6,8.5 35,6.4 C28.4,1 13.5,1.6 4.2,4.5 Z" id="Shape"/>
            </g>
            <g id="Stroke-24" transform="translate(70.000000, 99.000000)" fill="#2B2B2B">
                <path d="M1.8,22.6 C1.5,22.6 1.1,22.4 0.9,22.2 C0.5,21.7 0.6,21 1.1,20.6 C1.9,20 2.4,19.4 3,18.7 C4.3,17.1 5.8,15.4 10.2,13.6 C17.8,10.6 23,8.1 27.3,0.8 C27.6,0.3 28.3,0.1 28.9,0.4 C29.4,0.7 29.6,1.4 29.3,2 C24.7,9.9 18.8,12.7 11.1,15.7 C7.2,17.2 6,18.7 4.8,20.1 C4.2,20.9 3.5,21.6 2.5,22.4 C2.3,22.5 2,22.6 1.8,22.6 Z" id="Shape"/>
            </g>
            <g id="Stroke-26" transform="translate(44.000000, 94.000000)" fill="#2B2B2B">
                <path d="M17.4,15 C17.1,15 16.8,14.9 16.6,14.7 C15,13.1 12,11.1 9,9.2 C4.4,6.1 1.5,4.2 0.7,2.5 C0.4,1.9 0.7,1.3 1.3,1 C1.9,0.7 2.5,1 2.8,1.6 C3.3,2.8 7.2,5.3 10.2,7.3 C13.2,9.3 16.3,11.3 18.1,13.1 C18.5,13.5 18.5,14.3 18.1,14.7 C18,14.9 17.7,15 17.4,15 Z" id="Shape"/>
            </g>
            <g id="Stroke-28" transform="translate(59.000000, 56.000000)" fill="#2B2B2B">
                <path d="M14.3,16.6 C11,16.6 8,15.5 5.7,13.5 C2.6,10.7 0.8,6.3 0.8,1.6 C0.8,1 1.3,0.5 1.9,0.5 C1.9,0.5 1.9,0.5 1.9,0.5 C2.5,0.5 3,1 3,1.6 C3,5.7 4.5,9.5 7.2,11.8 C9.5,13.9 12.5,14.7 16,14.3 C16.6,14.2 17.2,14.7 17.3,15.3 C17.4,15.9 16.9,16.5 16.3,16.6 C15.6,16.6 14.9,16.6 14.3,16.6 Z" id="Shape"/>
            </g>
        </g>
    </g>
</svg>