<?xml version="1.0" encoding="UTF-8" standalone="no"?>
<svg width="140px" height="140px" viewBox="0 0 140 140" version="1.1" xmlns="http://www.w3.org/2000/svg" xmlns:xlink="http://www.w3.org/1999/xlink">
    <!-- Generator: Sketch 47.1 (45422) - http://www.bohemiancoding.com/sketch -->
    <title>Strong</title>
    <desc>Created with Sketch.</desc>
    <defs/>
    <g id="SVG-140x140" stroke="none" stroke-width="1" fill="none" fill-rule="evenodd">
        <g id="Strong" fill-rule="nonzero">
            <g id="Group-3" transform="translate(0.000000, -0.000280)" fill="#F6F7F8">
                <g id="Fill-1">
                    <path d="M70,140 C108.6,140 140,108.6 140,70 C140,31.4 108.6,0 70,0 C31.4,0 0,31.4 0,70 C0,108.6 31.4,140 70,140" id="Shape"/>
                </g>
            </g>
            <g id="Fill-4" transform="translate(98.000000, 30.000000)" fill="#FFFFFF">
                <path d="M6.5,0.3 C-10.7,0.3 13.2,39.4 6.6,56 C4.2,62 1.9,80.8 15.3,74.7 C26.2,69.8 24.6,10.6 18.7,5.6 C16.8,4.1 6.8,0.3 6.5,0.3" id="Shape"/>
            </g>
            <g id="Fill-6" transform="translate(78.000000, 57.000000)" fill="#FFFFFF">
                <path d="M1.3,0.6 C-0.5,2.6 0.9,77.4 13.5,41.5 C20.2,22.3 15.6,11.1 2,0.6 C1.7,0.3 1.5,0.3 1.3,0.6" id="Shape"/>
            </g>
            <g id="Fill-8" transform="translate(54.000000, 84.000000)" fill="#FFFFFF">
                <path d="M3.9,1.1 C-5.8,9.3 4.7,35.7 13.9,14.7 C17.2,6.8 6,-0.7 3.9,1.1" id="Shape"/>
            </g>
            <g id="Stroke-10" transform="translate(20.000000, 71.000000)" fill="#2B2B2B">
                <path d="M14.6,31.2 L6.1,31.2 C3.1,31.2 0.7,28.5 0.7,25.2 L0.7,7.7 C0.7,7.1 1.2,6.6 1.8,6.6 C2.4,6.6 2.9,7.1 2.9,7.7 L2.9,25.3 C2.9,27.4 4.3,29 6,29 L14.5,29 C16.2,29 17.6,27.3 17.6,25.3 L17.6,6.8 C17.6,4.7 16.2,3.1 14.5,3.1 L6,3.1 C5.4,3.1 4.9,2.6 4.9,2 C4.9,1.4 5.4,0.9 6,0.9 L14.5,0.9 C17.5,0.9 19.9,3.6 19.9,6.9 L19.9,25.3 C20,28.6 17.6,31.2 14.6,31.2 Z" id="Shape"/>
            </g>
            <g id="Stroke-12" transform="translate(45.000000, 57.000000)" fill="#2B2B2B">
                <path d="M14.8,45.2 L6.3,45.2 C3.3,45.2 0.9,42.5 0.9,39.2 L0.9,6.8 C0.9,3.5 3.3,0.8 6.3,0.8 L14.8,0.8 C17.8,0.8 20.2,3.5 20.2,6.8 L20.2,39.2 C20.2,42.6 17.8,45.2 14.8,45.2 Z M6.4,3.1 C4.7,3.1 3.3,4.8 3.3,6.8 L3.3,39.2 C3.3,41.2 4.7,42.9 6.4,42.9 L14.9,42.9 C16.6,42.9 18,41.2 18,39.2 L18,6.8 C18,4.8 16.6,3.1 14.9,3.1 L6.4,3.1 Z" id="Shape"/>
            </g>
            <g id="Stroke-14" transform="translate(71.000000, 46.000000)" fill="#2B2B2B">
                <path d="M14.1,56.2 L5.6,56.2 C2.6,56.2 0.2,53.5 0.2,50.2 L0.2,6.5 C0.2,3.2 2.6,0.5 5.6,0.5 L14.1,0.5 C17.1,0.5 19.5,3.2 19.5,6.5 L19.5,50.1 C19.5,53.5 17.1,56.2 14.1,56.2 Z M5.7,2.8 C4,2.8 2.6,4.5 2.6,6.5 L2.6,50.1 C2.6,52.1 4,53.8 5.7,53.8 L14.2,53.8 C15.9,53.8 17.3,52.1 17.3,50.1 L17.3,6.5 C17.3,4.5 15.9,2.8 14.2,2.8 L5.7,2.8 Z" id="Shape"/>
            </g>
            <g id="Stroke-16" transform="translate(96.000000, 35.000000)" fill="#2B2B2B">
                <path d="M14.4,67.2 L5.9,67.2 C2.9,67.2 0.5,64.5 0.5,61.2 L0.5,6.3 C0.5,3 2.9,0.3 5.9,0.3 L14.4,0.3 C17.4,0.3 19.8,3 19.8,6.3 L19.8,60.2 C19.8,60.8 19.3,61.3 18.7,61.3 C18.1,61.3 17.6,60.8 17.6,60.2 L17.6,6.3 C17.6,4.3 16.2,2.6 14.5,2.6 L6,2.6 C4.3,2.6 2.9,4.3 2.9,6.3 L2.9,61.1 C2.9,63.1 4.3,64.8 6,64.8 L14.5,64.8 C15.1,64.8 15.6,65.3 15.6,65.9 C15.6,66.5 15.1,67.2 14.4,67.2 Z" id="Shape"/>
            </g>
        </g>
    </g>
</svg>