<svg xmlns="http://www.w3.org/2000/svg" width="175" height="120" viewBox="0 0 175 120"><g fill="none" fill-rule="evenodd"><path fill="#FFF" d="M97.93 8.68c-11.77-4.06-16.31 6.37-16.31 15.95 0 4.37 1.03 22.74-5.32 23.68-3.2.47-9.94 2.12-4.07 5.83 8.36 5.29 12.37 4.89 22.53 3.29 5.3-.84 12.25-5.5 14.81-10.67 3.6-7.23 2.97-16.58 1.3-24.24-2.37-10.84 2.74-8.65-5.38-9.3-.33-.02-6.47-4.16-7.56-4.54"/><path fill="#FFF" d="M118.89 81.85c-3.08 4.56-21.58 13.74-26.92 7.69-10.8-12.23 21.47-29.11-8.84-24.75-13.27 1.91-38.9 12-36.25 28.83.72 4.5 4.66 5.61 10.08 5.4-.56 10.89 7.31 17.27 14.74 8.66 1.07-1.24 6.72-7.5 8.47-11.6.9-.06 1.8-.1 2.69-.1 17.64 0 15.38-1.52 29.96-6.69 12.56-4.44-1.77 4.2 6.2 4.2 1.1 0 2.23-.4 3.47-1.03 1.56.65 1.3 4.52 5.09 8.87 4.14 4.74 9.13 4.1 13.17 0 3.02-3.08 4.99-1.22 4.99-10.1 0-3.55-.33-6.24-1.22-8 .48-.06.97-.12 1.47-.16 3.13-.29 6.31-1.57 2.86-5.08-1.82-1.85-10.06-1.63-10.3-8.32-.22-6.24-2.12-16.05-4.91-21.61-1.38-2.74-2.46-5.29-1.54-7.39.5-1.14.56-12.2-8.84-6.15-8.11 5.23 1.59 6.1 2.37 8.9 2.71 9.74.97 22.12-2.39 31.4-.62 1.72-3.06 5.84-4.35 7.03"/><path fill="#E6E6E6" d="M43.06 117.73c5.68 2.28 14.67 2.33 24.35 2.24 20.17-.18 43.9-2.5 53.4-3.3 27.35-2.33-101.79-8.6-77.75 1.06"/><path fill="#101418" stroke="#101418" stroke-width=".2" d="M83.46 95.06a.27.27 0 0 1-.28-.26c0-.15.12-.27.27-.27h.63c4.85-.03 25.52-.14 37.64-7.74.13-.08.3-.05.39.08.08.12.05.28-.08.36-12.26 7.69-33.06 7.8-37.95 7.82h-.62M46.27 90.9a.27.27 0 1 1 .02.53c-1.16.05-2.3.16-3.43.26-1 .1-2 .19-3 .24.23.36.82 1.22 1.34 2.03.37.57.72 1.1.9 1.4l1.98-.18c.98-.1 2-.2 2.33-.2.15-.01.28.1.28.25s-.1.27-.25.28c-.32 0-1.33.1-2.31.2-.94.08-1.86.17-2.15.18h-.09a.26.26 0 0 1-.18-.14c-.12-.22-.52-.83-.96-1.5a25.69 25.69 0 0 1-1.52-2.56l.01-.09c.03-.1.13-.18.24-.19 1.12-.04 2.22-.14 3.33-.25 1.14-.1 2.29-.21 3.46-.26m3.58 15.8c.09 0 .16.06.16.15 0 .08-.08.14-.17.14-1.59-.02-3.27.14-4.83.3-1.48.14-2.85.27-3.97.23-.09 0-.16-.07-.15-.16 0-.08.08-.14.17-.14 1.08.05 2.45-.09 3.91-.23 1.57-.15 3.26-.32 4.88-.3m46-50.14a.28.28 0 0 1-.23-.3.27.27 0 0 1 .3-.26c11.47 1.25 12.47 5.5 11.85 11.6-.1.96-.24 1.94-.38 2.97-.3 2.2-.64 4.62-.65 7.17a14.82 14.82 0 0 0 2.74.98c.16.02.25.17.23.32a.27.27 0 0 1-.31.23c-.3-.05-1.2-.32-1.93-.6-.52-.2-.99-.41-1.17-.58a.28.28 0 0 1-.1-.22c0-2.63.34-5.1.66-7.38.14-1.03.27-2.01.37-2.94.59-5.78-.38-9.8-11.37-11m-59.87 7.39a.26.26 0 0 1 0-.38c.11-.1.3-.1.4 0 1.75 1.72 4.65 4.69 7.5 7.6 4.16 4.25 8.22 8.4 8.34 8.4.15.01.27.14.27.29-.01.15-.14.26-.3.26-.35-.02-4.48-4.25-8.71-8.58-2.85-2.91-5.75-5.87-7.5-7.59"/><path fill="#FEFEFE" d="M64.51 78.52c4.44-3.32 5.06-.08 3.48 2.13-2.58 3.62-2.57 5.73-2.17 7.14 2.15 7.72-18.84 3.83-1.3-9.27m8.58-4.95c-4.18.87-1.99 5.2 4.04 2.5 3.03-1.36-1.08-3.11-4.04-2.5"/><path fill="#E6E6E6" d="M82.94 59.42c-3.41-.33-9.9.1-12.82 1.8-3.54 2.05.75 2.14-3.32 3.94-.59.25-3.88 5.73 5.52 2 4.22-1.67 22.72-2 23.2-4.52 1.13-5.94-7.96-.73-12.5-3.2l-.08-.02z"/><path fill="#101418" stroke="#101418" stroke-width=".2" d="M84.12 58.97c.15-.03.3.06.32.21.03.15-.07.3-.21.33-1.11.23-2.47.5-3.92.66a23.1 23.1 0 0 1-4.55.14c-3-.25-5 .23-6.23 1.06a3.17 3.17 0 0 0-1.46 3.52c.2.88.77 1.7 1.57 2.23.12.08.16.26.07.38a.27.27 0 0 1-.37.08 4.36 4.36 0 0 1-1.8-2.56 3.72 3.72 0 0 1 1.69-4.12c1.32-.88 3.44-1.4 6.57-1.15 1.48.13 3.01.04 4.44-.13 1.45-.17 2.79-.43 3.88-.65m9.37 5.16a.27.27 0 0 1-.38-.1.28.28 0 0 1 .1-.38c.2-.12.44-.41.64-.8h.01c.2-.38.34-.84.37-1.32a2.5 2.5 0 0 0-.3-1.42l-.01-.02c-.24-.4-.62-.77-1.19-1.08a.28.28 0 0 1-.11-.38.27.27 0 0 1 .37-.11c.66.36 1.11.8 1.4 1.29v.02c.33.56.43 1.17.39 1.74a4 4 0 0 1-.44 1.53v.02c-.25.47-.57.84-.85 1m10.81-8.8c-.13.07-.3 0-.36-.13-.07-.13-.01-.3.12-.36 4.75-2.3 7.12-1.37 8.2.87 1.56 3.22.27 9.2-.3 11.83l-.22 1.03a4.25 4.25 0 0 0 1.8.13.27.27 0 0 1 .1.54 4.69 4.69 0 0 1-2.26-.21.27.27 0 0 1-.18-.18c-.05-.16.06-.66.22-1.43.56-2.58 1.82-8.42.35-11.47-.94-1.96-3.1-2.74-7.47-.62"/><path fill="#FCEAF2" d="M65.12 64.64c-1.17-1-4.19.35-4.84 2.6-1.33 4.53 1.76 5.93 4.62 3.02 1.7-1.72.4-5.46.22-5.62"/><path fill="#101418" stroke="#101418" stroke-width=".2" d="M67.97 65.15c.15 0 .28.11.28.27 0 .16-.11.29-.26.3l-.46-.01c-.29 0-.65-.02-1 0-.55.04-1.06.13-1.04.4.03.66.1 1.28.15 1.86.06.64.12 1.25.14 1.86 0 .15-.11.29-.26.3a.28.28 0 0 1-.29-.28c-.02-.6-.08-1.2-.14-1.82a45.6 45.6 0 0 1-.15-1.9c-.04-.72.73-.93 1.56-.98.36-.02.74-.01 1.04 0h.43"/><path fill="#101418" stroke="#101418" stroke-width=".2" d="M64.8 65.41c.11.07.17.23.11.38-.05.14-.2.2-.33.13-.75-.4-1.39-.2-1.82.27-.21.23-.38.54-.49.89v.02c-.11.34-.17.71-.16 1.08.03.92.46 1.84 1.43 2.22.13.05.2.22.15.36-.04.15-.19.23-.31.18-1.2-.48-1.72-1.6-1.76-2.74-.01-.44.05-.89.18-1.3v-.02c.14-.42.35-.8.62-1.1.57-.63 1.4-.89 2.37-.37"/><path fill="#FEFEFE" d="M137.54 58.82c-.8-3.87-7 2.8-1.59 6.79 2.92 2.14 1.75-5.98 1.59-6.8"/><path fill="#101418" stroke="#101418" stroke-width=".2" d="M129.64 41.42c-.06-.14 0-.3.14-.36a.3.3 0 0 1 .38.12c2.07 4.14 5.39 10.82 7.48 17.21 2.11 6.47 2.97 12.67.04 15.8a.3.3 0 0 1-.4.02.27.27 0 0 1-.02-.39c2.76-2.94 1.9-8.96-.17-15.26-2.08-6.37-5.38-13.02-7.45-17.14"/><path fill="#101418" stroke="#101418" stroke-width=".2" d="M137.27 58.49c.16-.03.3.08.33.23.03.16-.08.3-.24.33-1.3.2-1.96 1.1-2.14 2.1a3.75 3.75 0 0 0 .6 2.72c.42.55 1.02.85 1.7.6a.3.3 0 0 1 .37.18.28.28 0 0 1-.18.36c-.96.34-1.78-.06-2.35-.8a4.3 4.3 0 0 1-.71-3.15 2.99 2.99 0 0 1 2.62-2.57m-40.83-5.45a.27.27 0 0 1 .16-.35.3.3 0 0 1 .37.15c.17.39.33 1.02.3 1.65a2.41 2.41 0 0 1-.52 1.47c-.36.43-.92.75-1.78.84-.8.08-1.87-.03-3.3-.46a.27.27 0 0 1-.19-.34.3.3 0 0 1 .37-.18c1.33.4 2.33.5 3.06.43.68-.07 1.12-.31 1.39-.63.27-.32.38-.74.4-1.15.02-.55-.12-1.1-.26-1.43m-17.67-2.82a.15.15 0 0 1 .22 0c.06.07.06.17 0 .23-.45.43-1.24.78-2.07 1.01-1 .29-2.08.42-2.72.36a.16.16 0 0 1-.14-.17c0-.1.08-.16.17-.15a8.2 8.2 0 0 0 2.61-.35 4.84 4.84 0 0 0 1.93-.93m-.75 2.9c.09-.01.17.04.18.12.01.09-.05.16-.14.17-1.17.13-2.17.12-3.18-.08-1-.2-2.02-.59-3.23-1.22-.08-.04-.1-.13-.06-.2.04-.07.14-.1.22-.06 1.18.62 2.17 1 3.14 1.2.97.18 1.93.2 3.07.07"/><path fill="#E6E6E6" d="M59.98 98.28c-1.9 2.84-1.35 9.93 3.98 11.05 5.82 1.22 9.24-1.74 10.7-6.98 1.03-3.68.47-5.01 3.55-6.62 3.26-1.69 2.36-.22 2.4 4.62.04 5.9-5.05 13.21-11.18 14.42-5.72 1.13-11.08-1.91-13.92-6.76-.62-1.06-1.4-9.68 2.22-9.68.36 0 2.12.15 2.25-.05"/><path fill="#101418" stroke="#101418" stroke-width=".2" d="M59.15 98.52a.32.32 0 0 1 .4-.1c.15.07.2.24.12.37-.13.2-.24.42-.34.66a9.04 9.04 0 0 0-.08 5.3c.5 1.88 1.53 3.62 3.12 4.45.22.12.46.22.7.3.16.04.24.2.19.34-.06.14-.23.21-.38.16-.28-.09-.55-.2-.8-.33-1.76-.92-2.88-2.78-3.41-4.79a9.54 9.54 0 0 1 .1-5.6c.1-.28.23-.54.38-.76m17.66.98c0-.16.13-.28.28-.29.16 0 .28.13.28.29 0 .43 0 .85-.03 1.26-.2 2.9-1.21 5.61-2.87 7.6a8.8 8.8 0 0 1-7.62 3.3.28.28 0 0 1-.26-.3.28.28 0 0 1 .3-.27 8.27 8.27 0 0 0 7.16-3.1 12.82 12.82 0 0 0 2.73-7.27c.03-.4.04-.81.03-1.22"/><path fill="#E6E6E6" d="M126.9 91.34c0 7.86.8 11.34 9.18 11.34 6.33 0 9.76-13.15 3.6-16.61-2-1.12 8.32-5.98 7.27 7.02-.42 5.24-4.35 12.76-10.54 13.47-13.96 1.6-17.38-11.74-11.52-14.2.38-.16 2.02-.74 2.02-1.02"/><path fill="#101418" stroke="#101418" stroke-width=".2" d="M140.12 85.62a.29.29 0 0 1-.12-.38c.07-.14.24-.2.37-.13a7.16 7.16 0 0 1 2.9 2.83 9.88 9.88 0 0 1 1.25 4.34c.12 2.2-.26 4.26-1.03 6.03a10 10 0 0 1-3.51 4.34 9.33 9.33 0 0 1-4.27 1.5 8.24 8.24 0 0 1-4.27-.67c-.14-.07-.2-.23-.14-.38.06-.14.22-.2.36-.14 1.27.6 2.66.77 4 .64a8.77 8.77 0 0 0 4.01-1.42 9.45 9.45 0 0 0 3.31-4.1c.74-1.69 1.1-3.67.99-5.77a9.3 9.3 0 0 0-1.17-4.08 6.6 6.6 0 0 0-2.68-2.61"/><path fill="#101418" stroke="#101418" stroke-width=".2" d="M122.2 93.54c0-.15.13-.27.28-.26.15.01.27.15.26.3a19.9 19.9 0 0 0-.02 2.25c.19 3.6 1.4 6.3 3.2 8.14a10.13 10.13 0 0 0 6.67 2.97 11.9 11.9 0 0 0 9.92-4.46 17.1 17.1 0 0 0 3.08-5.61 17 17 0 0 0 .88-6.14c-.15-2.75-1.07-5.22-2.87-6.82a.29.29 0 0 1-.03-.4c.1-.1.27-.12.39-.02 1.92 1.7 2.9 4.32 3.05 7.21.1 2.05-.2 4.25-.9 6.35-.7 2.1-1.77 4.1-3.19 5.8a12.44 12.44 0 0 1-10.37 4.65 10.67 10.67 0 0 1-7-3.14c-1.9-1.93-3.18-4.75-3.37-8.5-.04-.74-.04-1.5.01-2.32"/><path fill="#E6E6E6" d="M63.84 98.48c-1.36 3.47-.32 6.69 3.81 6.55 2.79-.1 6.89-7.48 3.42-7.48-.83 0-7.03.41-7.23.93"/><path fill="#101418" stroke="#101418" stroke-width=".2" d="M71.78 97.94c-.06-.12-.03-.27.06-.35.1-.07.22-.04.28.08.23.45.3 1.16.27 1.86-.04.8-.22 1.6-.45 2.06-.06.12-.19.15-.28.08-.1-.08-.12-.24-.06-.35A5 5 0 0 0 72 99.5c.03-.6-.03-1.2-.2-1.56"/><path fill="#FEFEFE" d="M66.6 102.01c.8-.57 2.18-1.81 1.44-3.02-1.77-2.9-5.14 5.7-1.44 3.02"/><path fill="#101418" d="M55.93 99.28a.17.17 0 1 1 .1-.31c.7.23.58.52.42.96-.14.39-.35.94.35 1.77.35.41.09.84-.2 1.33-.39.62-.83 1.35.5 2.09.6.33.3.92-.04 1.54-.16.31-.33.63-.36.9-.05.35.18.64 1.11.76.78.1.72.55.67 1.07l-.03.33c0 .4.2.77 1.47.78.6 0 .82.53 1.03 1.06.09.21.17.43.28.58.22.31.58.41 1.4-.16.5-.34.8-.07 1.2.3.35.3.79.7 1.54.73.2.01.53-.2.89-.43.39-.26.8-.53 1.2-.6.86-.16 1.57.2 2.16.5.3.16.55.3.76.32.32.04.56-.24.7-1.32.06-.49.54-.53 1.16-.6.54-.05 1.2-.11 1.7-.52.2-.17.29-.6.38-1.04.07-.3.13-.62.24-.9.25-.63.52-.61.75-.6.18 0 .33 0 .44-1.63.03-.52.27-.76.56-1.04.43-.44 1-1.01 1.03-3.16v-.05c0-.02.02-.03.03-.05.02-.04.06-.08.12-.14.36-.38 1.54-1.64 1.12-3.16a.17.17 0 0 1 .11-.2c.1-.03.18.03.2.11.48 1.7-.8 3.06-1.19 3.48-.04.04-.06-.05-.06 0-.03 2.3-.65 2.92-1.13 3.4-.23.24-.43.44-.46.83-.13 1.97-.43 1.96-.78 1.94-.13 0-.27-.01-.43.4-.1.24-.16.54-.22.84-.1.5-.2.99-.5 1.23-.58.47-1.3.54-1.88.6-.47.04-.83.08-.86.3-.18 1.34-.55 1.68-1.07 1.6-.27-.03-.55-.17-.87-.34-.55-.27-1.2-.61-1.94-.47-.33.06-.73.31-1.1.55-.4.25-.77.5-1.07.48h-.01a2.65 2.65 0 0 1-1.74-.82c-.3-.26-.51-.46-.79-.27-1.04.73-1.53.55-1.86.08-.13-.19-.22-.42-.32-.65-.17-.42-.34-.84-.72-.85-1.56 0-1.8-.53-1.8-1.1l.02-.38c.04-.34.08-.65-.37-.7-1.18-.15-1.47-.59-1.4-1.13.04-.33.22-.68.4-1.01.25-.48.49-.93.17-1.1-1.64-.91-1.1-1.8-.63-2.56.23-.37.43-.71.24-.94-.83-.98-.59-1.63-.41-2.1.09-.24.15-.4-.21-.53"/><path fill="#101418" stroke="#101418" stroke-width=".2" d="M55.56 98a.27.27 0 0 1 .33-.2c.15.03.24.17.2.32-1.5 6.36.18 10.81 3.25 13.26 1.6 1.29 3.6 2.03 5.7 2.21 2.1.18 4.33-.2 6.4-1.16 4.67-2.17 8.57-7.26 8.7-15.44 0-.15.13-.27.28-.27.15 0 .27.13.27.27-.14 8.43-4.18 13.68-9.01 15.92-2.16 1-4.49 1.4-6.69 1.22-2.2-.19-4.3-.97-6-2.33-3.22-2.57-5-7.21-3.43-13.8"/><path fill="#FCEAF2" d="M82.61 69.74c-24-.4-44.03 33.01-14.28 24.44 5.31-1.53 8.24-5.75 9.45-11.14 3.48-15.54 18.54 5.2-6.83 12.7-11.22 3.31-25.62 2.56-22.04-6.27 6.4-15.8 22.55-21.23 31.12-21.78 7.38-.48 8.71 2.15 2.58 2.05"/><path fill="#101418" stroke="#101418" stroke-width=".2" d="M91.84 77.2v.24c.06 10.96-6.33 16.6-14.72 19.37-8.32 2.74-18.6 2.64-26.44 2.1a6.52 6.52 0 0 1-2.45-.6 4.07 4.07 0 0 1-2.25-3.03c-.26-1.3-.08-2.9.48-4.64v-.02a29.91 29.91 0 0 1 4.6-8.43c5.83-7.8 12.17-12.07 19.3-14.48 7.1-2.4 14.98-2.97 23.93-3.4 1.66-.07 2.5.2 2.82.85.33.61.12 1.5-.27 2.7-.37 1.1-1.1 2.7-2.03 4.42a55.52 55.52 0 0 1-2.97 4.92M53.18 89.53a.27.27 0 0 1-.36.14.28.28 0 0 1-.13-.37c3.63-7.94 12.58-14.6 20.98-17.72a27.63 27.63 0 0 1 9.25-1.91c2.8-.01 5.18.66 6.78 2.16a6.95 6.95 0 0 1 2.08 4.47 56.4 56.4 0 0 0 2.55-4.28 30.9 30.9 0 0 0 1.99-4.34c.35-1.05.54-1.82.3-2.27-.21-.42-.9-.6-2.3-.54-8.91.43-16.75.99-23.8 3.37-7.02 2.38-13.26 6.58-19.01 14.28a29.34 29.34 0 0 0-4.53 8.28 9.1 9.1 0 0 0-.46 4.38 3.53 3.53 0 0 0 1.95 2.62c.6.3 1.35.49 2.25.55 7.8.54 18 .64 26.23-2.07 8.17-2.7 14.4-8.19 14.35-18.83-.01-2.33-.73-4.04-1.97-5.2-1.5-1.4-3.74-2.04-6.41-2.03-2.7.01-5.84.68-9.06 1.88-8.28 3.08-17.1 9.63-20.68 17.43"/><path fill="#101418" stroke="#101418" stroke-width=".2" d="M86.79 79.56c0-.16.1-.29.25-.3.15 0 .27.12.28.27a8.52 8.52 0 0 1-.51 3.2 5.22 5.22 0 0 1-1.55 2.3.26.26 0 0 1-.37-.06.3.3 0 0 1 .05-.4 4.67 4.67 0 0 0 1.37-2.04 7.9 7.9 0 0 0 .48-2.97m-4.99 8.32c0-.16.11-.3.26-.3.15 0 .28.11.29.27.04 1.1-1.36 2.45-3.2 3.68-2.56 1.74-6 3.3-7.26 3.52a.28.28 0 0 1-.32-.23.29.29 0 0 1 .23-.33c1.2-.22 4.55-1.74 7.06-3.44 1.68-1.13 2.97-2.32 2.94-3.17"/><path fill="#FCEAF2" d="M131.84 74.62c-6.89 2.46-6.22 10.25-20.65 16.22-11.65 4.83-22.44 1.33-16.26 1.33 15.28 0 28.52-9.67 36.16-22.62 4.23-7.16 10.66 1.52.75 5.07m13.29 5.71c-1.79-2.76-8.75-2.36-11.52.25-3.68 3.48-2.86 6.02-8.3 8.38-1.37.6-.93 2.37 4.09-.4 4.6-2.54 9.46-6.03 14.76-5.87.55.02 1.72-1.2.97-2.36"/><path fill="#101418" d="M141.1 77.25c.12.05.16.17.09.26s-.23.12-.36.07a6.63 6.63 0 0 0-.9-.33c-.3-.08-.6-.12-.9-.1-.14.02-.27-.05-.29-.15-.02-.1.08-.2.22-.21.4-.05.79 0 1.16.1.35.1.68.23.98.36"/><path fill="#101418" stroke="#101418" stroke-width=".2" d="M136.76 77.6c.15-.02.3.1.32.25.02.16-.09.3-.24.32-3.14.45-4.65 2.7-6.11 4.88-.94 1.38-1.85 2.75-3.16 3.65a.28.28 0 0 1-.4-.08.29.29 0 0 1 .08-.4c1.22-.83 2.1-2.15 3.01-3.5 1.53-2.28 3.11-4.63 6.5-5.11m-10.07 14.28c.05-.14.18-.2.3-.13.1.06.16.22.1.35a8.04 8.04 0 0 0-.27 3.55c.14 1.36.52 2.79 1.1 3.99.07.12.03.29-.08.36-.1.07-.24.03-.3-.1a12.9 12.9 0 0 1-1.17-4.18 8.65 8.65 0 0 1 .32-3.84"/><path fill="#E6E6E6" d="M131.02 91.24c-1.4 3.76-.3 7.65 3.89 7.09 5.8-.77 5.67-6.48 2.42-8.99-2.17-1.68-5.2-1.12-6.31 1.9"/><path fill="#101418" stroke="#101418" stroke-width=".2" d="M133.34 89.64a.28.28 0 0 1-.38-.13.3.3 0 0 1 .13-.4 4.98 4.98 0 0 1 3.34-.62c.83.17 1.5.61 2.01 1.19.51.57.85 1.27 1.02 1.98.2.86.13 1.74-.21 2.41a.28.28 0 0 1-.39.12.3.3 0 0 1-.11-.4 3 3 0 0 0 .15-2 3.94 3.94 0 0 0-.87-1.71c-.43-.49-1-.86-1.71-1a4.45 4.45 0 0 0-2.98.56"/><path fill="#FEFEFE" d="M134.6 94.53c.8-.57 2.17-1.81 1.44-3.02-1.77-2.91-5.14 5.7-1.44 3.02"/><path fill="#101418" d="M137.08 91.25a.27.27 0 0 1 .18-.34c.15-.04.3.04.35.18.47 1.5.36 2.65-.15 3.56-.51.9-1.4 1.55-2.48 2.04-.14.07-.3 0-.36-.12-.07-.14 0-.3.13-.36a4.64 4.64 0 0 0 2.23-1.81c.44-.79.53-1.8.1-3.15"/><path fill="#FEFEFE" d="M124.49 81.6c-3.7 5.03.15 3.9 3.73 1.1 10.54-8.25.75-7.2-3.73-1.1"/><path fill="#101418" stroke="#101418" stroke-width=".2" d="M129.1 90.9c-4.1 2.65-7.46 4.83-13.35 3.96a.28.28 0 0 1-.07-.53c2.34-.97 4-4.06 5.84-7.52 2.83-5.29 6.1-11.4 13.05-12.4 3.15-.45 7.34.2 10.62 2.05 2.66 1.5 4.72 3.8 5.15 6.93v.11a.27.27 0 0 1-.34.19c-.3-.09-2.72.3-3.84.49l-.53.08c-8.08 1.16-12.64 4.12-16.53 6.63m-12.4 3.53c5.16.51 8.3-1.53 12.1-4 3.94-2.54 8.56-5.53 16.75-6.7l.52-.09c.96-.15 2.82-.45 3.68-.49-.5-2.77-2.4-4.82-4.83-6.2a17.27 17.27 0 0 0-10.27-1.98c-6.67.96-9.87 6.94-12.65 12.11-1.68 3.16-3.22 6.02-5.3 7.35m-43.26-31.1a.17.17 0 0 1-.2-.12.18.18 0 0 1 .11-.22c2.15-.6 3.53-.7 5.36-.84 1.55-.12 3.42-.26 6.36-.76 1.78-.3 3.62-.49 5.09-.36.86.08 1.59.26 2.11.6.55.35.87.86.86 1.58 0 .3-.06.62-.19.99a.17.17 0 0 1-.2.1.18.18 0 0 1-.11-.22c.11-.33.17-.62.17-.88 0-.57-.26-.99-.7-1.27a4.43 4.43 0 0 0-1.97-.55 21 21 0 0 0-5.01.35c-2.96.5-4.83.65-6.39.76-1.8.14-3.18.24-5.3.84m56.21-17.88a.16.16 0 0 1 .05-.23.17.17 0 0 1 .23.05c.54.78 2.14 3.63 3.32 6.07.8 1.66 1.4 3.14 1.35 3.68-.01.1-.09.16-.18.15a.16.16 0 0 1-.15-.18c.04-.47-.55-1.9-1.32-3.51a63.05 63.05 0 0 0-3.3-6.03m7.2 20.7c0-.1.04-.17.1-.17.07 0 .12.07.12.17v.87c.02 1.17.04 2.82-.05 3.44v.02l-.03.22c-.08.62-.22 1.79-.6 1.92-.05.02-.11-.04-.13-.13-.01-.1.03-.19.09-.2.23-.09.35-1.1.42-1.65 0-.1.02-.17.03-.24v-.01c.08-.6.06-2.21.05-3.36v-.88m-9.21-3.33c0-.1.07-.17.16-.17.1 0 .17.08.17.17 0 2.7-.66 5.57-1.68 8.34a41.83 41.83 0 0 1-4.72 9.03 27.13 27.13 0 0 1-10.73 9.25c-4.54 2.18-9.67 3.13-15.05 3.13a.17.17 0 0 1-.16-.16c0-.1.07-.17.16-.17 5.33 0 10.41-.95 14.9-3.1a26.8 26.8 0 0 0 10.61-9.14 41.5 41.5 0 0 0 4.68-8.95 24.3 24.3 0 0 0 1.66-8.23m-35.05 9.73a.16.16 0 0 1-.23.05.17.17 0 0 1-.04-.24l.13-.18c.95-1.4 2.02-2.96 2.02-4.1 0-1.04-.93-1.77-3.75-1.77-3.3 0-8.6.44-13.38 1.36-3.6.7-6.91 1.65-8.83 2.9a.16.16 0 0 1-.22-.06.17.17 0 0 1 .05-.23c1.95-1.26 5.3-2.24 8.94-2.94a78.88 78.88 0 0 1 13.44-1.36c3.07 0 4.08.86 4.08 2.1 0 1.25-1.1 2.85-2.08 4.3l-.13.17zM83.7 81.1c0-.09.07-.16.16-.16s.16.07.16.16c0 1.28-.54 2.52-1.33 3.62a13.5 13.5 0 0 1-3.66 3.36l-.11.07c-.15.1-.33.23-.52.27a.16.16 0 0 1-.18-.13.16.16 0 0 1 .12-.2c.12-.02.27-.12.4-.2l.12-.1c1.22-.76 2.6-1.9 3.58-3.27a5.97 5.97 0 0 0 1.26-3.42m-8.24 8.36a.17.17 0 0 1 .23.03c.06.08.04.18-.03.23-2.44 1.71-7.45 2.94-11.58 2.85a11.97 11.97 0 0 1-4.17-.73c-1.16-.47-2-1.2-2.3-2.22a4.3 4.3 0 0 1 .36-2.97c.44-1 1.05-1.9 1.77-2.69a12.1 12.1 0 0 1 2.7-2.17.17.17 0 0 1 .22.06c.05.07.03.17-.05.22a11.8 11.8 0 0 0-2.62 2.11 9.41 9.41 0 0 0-1.71 2.6c-.49 1.1-.57 2.01-.35 2.74.27.92 1.04 1.58 2.1 2.02 1.1.45 2.52.67 4.06.7 4.06.1 8.99-1.1 11.37-2.78m-22.12 1.6c0-.08.07-.15.16-.15.1 0 .16.07.16.16 0 2.97 2.4 3.69 5.22 3.69 1.48 0 3.08-.2 4.5-.38.81-.1 1.57-.19 2.22-.24.09 0 .17.06.17.15.01.08-.06.16-.15.17-.65.04-1.4.14-2.2.23-1.44.18-3.05.38-4.54.38-3 0-5.54-.78-5.54-4"/><path fill="#101418" stroke="#101418" stroke-width=".2" d="M123.03 87.53c0-.1.08-.17.17-.17.09 0 .16.08.16.17 0 .12-.11.35-.26.64-.3.6-.77 1.53-.58 2.04.18.49 1.03.62 3.4-.3 1.26-.48 2.59-1.38 4-2.33 1.7-1.16 3.52-2.4 5.55-3.11l.56-.2h.01c1.9-.68 3.85-1.37 5.83-1.68.09-.01.17.05.18.14.02.1-.05.18-.13.2-1.95.3-3.89.98-5.77 1.65h-.02l-.56.2c-1.98.7-3.8 1.93-5.48 3.07-1.42.97-2.76 1.88-4.06 2.38-2.6 1-3.57.76-3.82.1-.23-.65.27-1.66.6-2.31.13-.26.22-.45.22-.49"/><path fill="#FEFEFE" d="M64.1 99.29c-2.02 3.92.64 7.59-1.64 7.4-1.2-.1-3.44-7.48.82-7.48.12 0 .82.1.83.08M129 91.4c.37-1.35 1.24.22 1.24 1.94 0 3.85 4.04 6.83.18 6.69-1.16-.04-3.93-4.8-1.51-8.38.08-.12.06-.13.1-.25"/><path fill="#101418" stroke="#101418" stroke-width=".2" d="M130.83 91.93c.04-.14.2-.23.35-.19.15.04.24.19.2.33-.55 1.85-.44 3.23.04 4.18.3.58.74 1 1.26 1.26s1.13.37 1.76.33a4.6 4.6 0 0 0 2.97-1.46.3.3 0 0 1 .4-.02c.12.1.13.27.03.38a5.18 5.18 0 0 1-3.36 1.63 3.97 3.97 0 0 1-2.07-.39 3.37 3.37 0 0 1-1.5-1.5c-.54-1.06-.67-2.57-.08-4.55m-67 6.64a.3.3 0 0 1 .36-.17c.15.04.24.2.19.34-.68 1.96-.65 3.49-.2 4.57.29.68.74 1.19 1.29 1.52.54.34 1.19.5 1.86.5 1-.02 2.04-.4 2.92-1.16.12-.1.3-.1.41.02.11.11.1.28-.01.38a5.22 5.22 0 0 1-3.31 1.3 4.1 4.1 0 0 1-2.19-.58 3.73 3.73 0 0 1-1.5-1.78c-.5-1.2-.54-2.84.18-4.94m20-42.3c.1 0 .18.08.18.18 0 .09-.08.16-.18.16-.16 0-.34 0-.54.02-.84.03-1.99.08-2.54-.34a.16.16 0 0 1-.02-.24.19.19 0 0 1 .25-.02c.44.34 1.51.3 2.3.26l.55-.01"/><path fill="#FCEAF2" d="M96.97 2.7c-3.47 2.44-2.36 2.64-9.74 1.4-4.34-.74-11.38 5.13-8.25 9.83 1.87 2.79 19.26-6.69 21.39-12.35 1.27-3.38-3.24 1-3.4 1.11"/><path fill="#101418" stroke="#101418" stroke-width=".2" d="M93.8 7.53c-1.2-2.18-3.33-2.73-5.54-2.32-1.66.3-3.36 1.14-4.75 2.23a8.4 8.4 0 0 0-2.9 3.7 2.96 2.96 0 0 0 1.25 3.63c.13.08.16.25.07.38a.28.28 0 0 1-.38.06 3.46 3.46 0 0 1-1.47-4.23 8.94 8.94 0 0 1 3.08-3.97 11.93 11.93 0 0 1 5-2.34c2.42-.45 4.76.16 6.1 2.55 3.95-2.58 7.3-5.16 7.44-6.67a.28.28 0 0 1 .3-.25c.15.02.26.15.25.3-.28 3-11.11 9.3-17.05 12.76l-1.21.7a.28.28 0 0 1-.38-.09.27.27 0 0 1 .1-.37l1.2-.71c2.49-1.44 5.83-3.4 8.88-5.36m-32.34 95.84c.1 0 .17.07.17.16 0 .1-.07.17-.17.17-4.5.06-9.41.71-14.55 1.39-5.63.74-11.52 1.52-17.45 1.6a.17.17 0 0 1 0-.33c5.9-.08 11.79-.86 17.41-1.6 5.14-.68 10.06-1.33 14.6-1.39m58.75-4.99a.28.28 0 1 1 .01.56c-2.65.07-6.72.44-10.63 1-3.3.47-6.5 1.08-8.64 1.75a.28.28 0 0 1-.17-.53 60.2 60.2 0 0 1 8.73-1.77c3.93-.56 8.02-.94 10.7-1m-.76 2.5c.14.03.24.18.21.34-.03.16-.16.26-.3.23-.23-.04-1.04.07-2 .24-1.5.26-3.37.67-4 .83-.15.04-.29-.06-.32-.22-.04-.15.05-.31.2-.35.63-.16 2.5-.57 4.03-.83a9.64 9.64 0 0 1 2.18-.24"/><path fill="#FEFEFE" d="M18.53 91.92c-5.5-1.58-6.56 11.93 3.43 7.56 2.57-1.13.54-3.4.83-6.42.24-2.35-3.2-.84-4.26-1.14m11.2-2.35c-4.24 1.12-5.18 5.84-.56 7 .63.16-1.12 6.13 4.9 3.74 2.17-.86-.68-1.1 1.91-2.05 3.34-1.22.38-4.4.38-6.45 0-2.8-4.17-2.89-6.63-2.24m-20.2 3.75C7.11 90.51-.78 95 4.54 98.28c1.57.96 6.84-.07 5.1-4.84-.04-.1-.02 0-.13-.12"/><path fill="#101418" stroke="#101418" stroke-width=".2" d="M34.76 95.05c-.09.03-.18-.01-.21-.1-.03-.1 0-.2.09-.23 1.25-.55 1.75-1.44 1.78-2.32a2.9 2.9 0 0 0-.56-1.75 2.5 2.5 0 0 0-1.42-1.01c-.77-.18-1.63.13-2.34 1.25l-.02.06c-.03.09-.13.13-.21.1-.08-.04-.13-.14-.1-.23l.03-.07a.2.2 0 0 1 .02-.05c.8-1.27 1.8-1.6 2.68-1.4.63.14 1.2.56 1.6 1.13.41.56.66 1.27.64 1.98-.03 1.02-.6 2.03-1.98 2.64M31.5 92.3c.08.05.1.15.04.22a.19.19 0 0 1-.24.04 2.65 2.65 0 0 0-2.86-.18c-.38.22-.7.54-.94.9-.22.37-.36.78-.36 1.2-.01.81.48 1.64 1.71 2.12.1.04.13.13.1.21-.41.87-.5 1.6-.38 2.17.1.46.36.83.71 1.09.36.26.82.42 1.34.46.78.07 1.68-.11 2.54-.57.08-.04.2-.02.24.06.05.08.02.18-.06.22-.93.49-1.9.69-2.75.61a3.01 3.01 0 0 1-1.53-.53c-.41-.3-.7-.73-.83-1.27-.14-.6-.06-1.35.33-2.22-1.27-.55-1.78-1.46-1.77-2.36 0-.47.15-.93.41-1.34a3.02 3.02 0 0 1 4.3-.83m5 3.04a.17.17 0 0 1-.04-.22c.04-.07.13-.1.2-.05.54.4.83 1.07.9 1.76.03.4 0 .8-.1 1.15a2 2 0 0 1-.49.9c-.25.25-.56.37-.94.3-.07 0-.13-.09-.12-.17.02-.1.09-.15.17-.14.28.05.51-.04.7-.22.18-.18.32-.45.4-.76.09-.32.12-.68.09-1.03-.06-.6-.3-1.19-.77-1.52m-15.56 5.96l.19.14a.17.17 0 0 0-.2-.14m1.33-5.44a.17.17 0 0 1-.23.05.17.17 0 0 1-.05-.24c.9-1.29 1.04-2.2.79-2.77-.2-.45-.66-.7-1.2-.8a3.52 3.52 0 0 0-1.8.2c-.83.3-1.48.92-1.42 1.73a.17.17 0 0 1-.23.17c-.48-.2-.91-.04-1.23.32-.15.19-.28.41-.38.67-.1.26-.15.54-.16.83-.04.88.33 1.8 1.34 2.24.09.03.13.13.1.22-.2.45-.25.85-.18 1.2.06.33.21.6.43.84s.51.43.84.57c.62.26 1.36.35 2.05.21 1.33-.25 1.98-.87 2.15-1.58.1-.35.07-.73-.04-1.1-.11-.36-.3-.72-.57-1.03-.61-.74-1.58-1.2-2.5-.9a.17.17 0 0 1-.22-.12.17.17 0 0 1 .1-.2c1.09-.35 2.18.17 2.88 1.01.29.34.5.74.63 1.16.13.41.15.85.05 1.26-.2.83-.93 1.55-2.4 1.83H21c-.77.14-1.58.05-2.25-.23-.37-.16-.7-.38-.95-.66a2 2 0 0 1-.52-.99 2.3 2.3 0 0 1 .13-1.26 2.55 2.55 0 0 1-1.4-2.48c.02-.33.08-.65.19-.93.1-.3.26-.56.44-.77.36-.41.84-.63 1.38-.5.05-.86.75-1.5 1.63-1.83a3.85 3.85 0 0 1 1.98-.2c.65.1 1.2.43 1.44.99.3.67.16 1.69-.81 3.1M8.7 97a.17.17 0 0 1-.09-.2.16.16 0 0 1 .2-.1c.46.18.75 0 .87-.34.12-.3.12-.7.04-1.1-.09-.4-.27-.81-.54-1.1-.55-.59-1.48-.7-2.75.55-1.34 1.34-.94 2.76-.03 3.74.43.45.96.82 1.49 1.03.5.22 1 .3 1.38.19.52-.15.79-.7.49-1.78a.16.16 0 0 1-.1-.21.16.16 0 0 1 .2-.1c.06.01.1.04.14.08.03.04.05.08.06.13v.01c.37 1.31-.01 1.98-.7 2.18a2.5 2.5 0 0 1-1.6-.19 4.71 4.71 0 0 1-1.59-1.11c-1.03-1.1-1.48-2.7.04-4.2 1.44-1.43 2.54-1.26 3.2-.55.31.34.52.8.62 1.26.1.46.09.94-.05 1.3-.2.5-.61.78-1.28.51m13.8 9.77c.08 0 .14.1.14.21 0 .12-.07.2-.15.2l-3.01-.06c-.09 0-.15-.1-.15-.22 0-.11.07-.2.15-.2l3.01.07z"/><path fill="#FEFEFE" d="M107.3 23.58c-2.2-3.2-9.27-2.68-5.73 9.4 1.18 4.05-3.96 8.7 8.83 7.97 4.25-.24 2.51-13.88.64-17.08-.65-1.76-2.82-2.86-3.74-.29"/><path fill="#101418" stroke="#101418" stroke-width=".2" d="M105.9 14.2a.27.27 0 0 1-.33-.2.26.26 0 0 1 .22-.31c1.05-.2 2.18-.58 3.17-1 1.38-.59 2.49-1.23 2.77-1.5.1-.1.28-.11.39 0 .06.05.09.13.08.2a8.5 8.5 0 0 1-2.12 4.7 7.2 7.2 0 0 1-4.2 2.5.27.27 0 0 1-.3-.22.27.27 0 0 1 .22-.3 6.66 6.66 0 0 0 3.86-2.31 8.25 8.25 0 0 0 1.9-3.8c-.54.35-1.4.8-2.38 1.22-1.02.43-2.19.83-3.29 1.03m-6.15 1.68c.06.14 0 .3-.13.37-.14.07-.3 0-.36-.14-.07-.15-.22-.24-.42-.28-.32-.05-.73.01-1.16.16-.45.15-.92.4-1.31.7-.61.46-1.06 1.03-1.04 1.6 0 .15-.1.28-.25.29a.27.27 0 0 1-.28-.27c-.03-.78.52-1.52 1.25-2.08.45-.33.96-.6 1.46-.77a2.96 2.96 0 0 1 1.41-.18c.38.07.68.26.83.6"/><path fill="#FCEAF2" d="M91.37 7.4c.08.04.12.14.09.22a.16.16 0 0 1-.22.09c-.44-.2-.83-.37-1.26-.41-.43-.05-.93.02-1.6.3a.16.16 0 0 1-.22-.1.17.17 0 0 1 .1-.2c.73-.3 1.27-.39 1.75-.34.48.05.9.23 1.36.44"/><path fill="#101418" stroke="#101418" stroke-width=".2" d="M85.44 7.79c.1-.02.2.03.22.11.02.08-.03.17-.13.2a4.59 4.59 0 0 0-2.57 1.62 4.7 4.7 0 0 0-1.08 2.9c0 .08-.08.15-.18.15-.1 0-.18-.07-.18-.16a5 5 0 0 1 1.15-3.07 4.95 4.95 0 0 1 2.77-1.75"/><path fill="#FCEAF2" d="M86.53 28.2c-1.18 6.44-2.32 15.94 5.1 19.39 5.9 2.73-.76-4.57 7.53 2.12 4.75 3.84 4.77-2.31 6.62-.22.03.03 5.07 2.38 4.46-2.98 2.44-.77 8.65 1.33 6.6-3.65-.02-.04 11.43-4.9 5.02-5.86-9.77-1.46-11.29 3.8-24.51-2.2-7.73-3.52-5-12.73-10.86-6.78l.04.18z"/><path fill="#101418" stroke="#101418" stroke-width=".2" d="M108.45 46.05a.26.26 0 0 1-.08-.37.28.28 0 0 1 .39-.08c2.09 1.35 3.1 2.4 3.36 3.12.23.66-.05 1.1-.7 1.31-.52.18-1.32.19-2.28.03-2.96-.48-7.56-2.55-10.16-6.11a.26.26 0 0 1 .07-.38c.12-.08.3-.05.38.07 2.51 3.43 6.95 5.43 9.8 5.9.87.14 1.57.13 2.01-.02.32-.1.47-.32.36-.63-.22-.62-1.17-1.56-3.15-2.84"/><path fill="#101418" stroke="#101418" stroke-width=".2" d="M102.64 47.07a.26.26 0 0 1-.05-.37.3.3 0 0 1 .4-.06c1.63 1.17 2.43 2.23 2.56 2.98.1.59-.15 1.02-.69 1.24-.45.19-1.14.2-1.99-.01-2.43-.6-6.4-3.08-10.52-8.56a.26.26 0 0 1 .07-.38c.12-.09.3-.06.39.06 4.02 5.36 7.87 7.78 10.2 8.36.73.18 1.28.18 1.63.03.28-.11.4-.34.35-.65-.1-.63-.83-1.55-2.35-2.64"/><path fill="#101418" stroke="#101418" stroke-width=".2" d="M95.6 46.45a.28.28 0 0 1 .11-.37c.13-.07.3-.02.37.11.33.64.42 1.16.33 1.54a.94.94 0 0 1-.6.68c-.27.11-.62.13-1.03.06-1.11-.2-2.73-1.06-4.37-2.62-.54-.5-1.15-1.13-1.78-1.86a19.26 19.26 0 0 1-1.85-2.54 14.1 14.1 0 0 1-1.9-7.97 9.89 9.89 0 0 1 3.11-6.5c.1-.11.28-.1.38 0 .1.12.1.29-.01.4a9.35 9.35 0 0 0-2.95 6.15c-.25 3.11.88 6.08 1.83 7.63.57.94 1.19 1.76 1.8 2.47.6.71 1.2 1.32 1.73 1.82 1.56 1.48 3.08 2.3 4.1 2.48.31.05.57.04.75-.03a.42.42 0 0 0 .27-.3c.06-.25-.02-.64-.29-1.15m-10.95 5.39c.1-.01.18.06.19.15 0 .1-.07.17-.16.18-.07 0-.21.04-.4.1-.43.11-1.08.3-1.76.3-.1 0-.17-.08-.17-.17s.08-.17.17-.17a6.3 6.3 0 0 0 1.67-.29c.2-.05.36-.1.46-.1m-.9-7.37c.02-.08.1-.13.16-.11.07.02.11.1.1.19-.05.2-.17.55-.3.86-.1.24-.2.45-.31.57-.05.05-.14.05-.19-.01a.17.17 0 0 1 .01-.22c.08-.08.17-.26.26-.47.12-.3.23-.63.27-.81m3.2 2.47a.2.2 0 0 1 .28-.06c.1.06.12.19.06.28a2.9 2.9 0 0 1-.85.96c-.11.08-.25.18-.43.34a.21.21 0 0 1-.3-.02.2.2 0 0 1 .03-.28c.2-.18.34-.28.45-.36.24-.18.35-.26.76-.86m5.23 5c.09.03.14.12.11.21a.16.16 0 0 1-.2.12 3.3 3.3 0 0 0-1.2-.08c-.32.04-.63.13-.8.3a.16.16 0 0 1-.24-.02.17.17 0 0 1 .02-.23c.23-.22.6-.34.99-.38.47-.06.98-.01 1.32.09m9.27-26.4a.27.27 0 0 1 0-.26c.05-.07.12-.07.16 0 .49.8.53 1.48.6 2.4 0 .2.02.43.04.66 0 .1-.03.2-.1.21-.06.01-.11-.06-.12-.16l-.05-.67c-.06-.85-.1-1.47-.53-2.18m1.72 5.65c0-.08.1-.14.23-.14.12 0 .22.06.22.14v.13c0 .48 0 .73-.1 1.26-.02.08-.13.14-.25.13-.12-.01-.2-.09-.19-.17.1-.52.1-.76.1-1.22v-.13zm1.65-6.49a.17.17 0 1 1 .17-.28c.08.05.24.18.36.3.1.12.16.24.15.36 0 .09-.09.15-.18.15a.17.17 0 0 1-.15-.18.35.35 0 0 0-.07-.1c-.1-.11-.22-.2-.28-.25"/><path fill="#FCEAF2" d="M113.1 27.44c4.67.33 8.96-.41 13.3-2.06 3.17-1.19 1.01 5.3-2.11 5.4-.1 0 2.05 1.34-1.26 2.85-1.97.9-5.87-.56-7.1 1.08-.04.06-.74.4-.8.42-1.82.3-.74-.12-.94-3.33-.04-.54-1.5-4.4-1.09-4.36"/><path fill="#101418" stroke="#101418" stroke-width=".2" d="M113.28 29.32a.27.27 0 0 1 .04-.54l.73.07c2.84.28 4.92.49 12.6-1.85.4-.12.7-.13.9-.05.2.07.33.21.38.4.05.16.03.34-.04.54a4.03 4.03 0 0 1-1.23 1.57c-.83.7-2.03 1.4-3.36 1.86-1.14.4-2.37.63-3.54.55a.27.27 0 1 1 .03-.54c1.1.08 2.26-.14 3.33-.52 1.26-.44 2.4-1.1 3.19-1.76.58-.5.95-.98 1.07-1.33.04-.1.05-.18.03-.23 0-.01-.01-.03-.04-.03-.1-.04-.29-.03-.56.05-7.8 2.37-9.91 2.16-12.81 1.88l-.72-.07"/><path fill="#FCEAF2" d="M133.13 31.21c-3.2-.37 1.11 5.98 1.78 3.12.31-1.33-.55-2.97-1.78-3.12m4.3 2.27c1.97 7.52-2.6 9.86-6.84 5.02-5.83-6.65 4.07-15.69 6.85-5.02"/><path fill="#101418" stroke="#101418" stroke-width=".2" d="M126.3 32.37l-.26.31c.15 0 .26-.15.26-.3m-2.43-.72c-.16-.01-.28-.16-.27-.32.01-.17.15-.3.3-.28.96.06 1.6.26 1.97.55.27.2.4.46.43.75v.01c.01.27-.08.55-.27.82a5.25 5.25 0 0 1-2 1.55c-1.15.57-2.58 1-3.96 1.19-1.3.18-2.57.16-3.52-.15-.15-.05-.24-.22-.2-.38.05-.16.21-.25.36-.2.88.28 2.06.3 3.29.13 1.32-.18 2.69-.6 3.8-1.14a4.7 4.7 0 0 0 1.78-1.35.75.75 0 0 0 .16-.43c-.01-.11-.07-.22-.2-.32-.28-.21-.82-.37-1.67-.43"/><path fill="#101418" d="M135.96 35.35c0-.08.06-.14.14-.14.08 0 .15.06.15.14 0 .32-.33.64-.74.9-.56.36-1.31.62-1.6.62-.08 0-.15-.06-.15-.13 0-.08.07-.14.15-.14.25 0 .91-.24 1.43-.57.35-.22.62-.47.62-.68m0 2.49c.04-.11.13-.17.2-.12.07.05.1.18.08.3a.57.57 0 0 1-.1.17c-.2.29-.85.65-1.5.89-.64.24-1.3.38-1.56.22a.35.35 0 0 1-.1-.11.3.3 0 0 1 0-.31c.06-.08.15-.08.2.01h.01c.2.12.79-.01 1.39-.24a3.64 3.64 0 0 0 1.39-.81"/><path fill="#101418" d="M134.98 35.4c-.02-.1.05-.17.15-.19.1-.01.2.05.22.13.17.8.05 2.04-.4 3.07-.36.82-.94 1.52-1.76 1.78-.1.03-.2-.01-.25-.1-.03-.07.02-.16.12-.2.7-.21 1.2-.84 1.53-1.59.43-.98.54-2.15.39-2.9"/><path fill="#101418" stroke="#101418" stroke-width=".2" d="M130.99 31.7a.3.3 0 0 1-.4.11.26.26 0 0 1-.1-.37c.3-.51.68-.85 1.09-1.03.35-.16.72-.21 1.1-.17.36.04.74.16 1.1.35.95.5 1.87 1.5 2.47 2.68a6.9 6.9 0 0 1 .8 3.64c-.05.62-.22 1.2-.53 1.7-.32.5-.78.91-1.4 1.2-.7.3-1.59.45-2.7.36-.17-.01-.28-.14-.27-.3.01-.14.15-.25.31-.24 1.01.08 1.8-.05 2.4-.32a2.6 2.6 0 0 0 1.16-.98c.26-.42.4-.92.46-1.46.1-1.08-.2-2.3-.75-3.36a5.77 5.77 0 0 0-2.24-2.44c-.3-.16-.59-.26-.87-.29-.28-.03-.54 0-.79.12-.3.14-.6.4-.84.8m-22.92-7.9a.16.16 0 0 1 .08-.21c.09-.04.18 0 .22.08l.03.08c.35.79.52 1.17.48 2.17 0 .08-.08.15-.17.15a.16.16 0 0 1-.16-.17 3.63 3.63 0 0 0-.45-2.02l-.03-.08zm1 5.74c0-.09.07-.15.16-.15.1 0 .17.07.17.15-.01.2 0 .42.03.64.04.56.1 1.13-.23 1.63-.05.07-.15.1-.23.06-.08-.04-.1-.13-.06-.2.27-.43.23-.96.18-1.47l-.03-.66m-2.63-2.4a.15.15 0 0 1 .04-.21.17.17 0 0 1 .23.04c.48.67.47 1.27.46 1.98v.29c0 .08-.08.15-.17.15-.09 0-.16-.07-.16-.15v-.3c0-.65.01-1.2-.4-1.8m.2 7.77zm-.05-1.16a.17.17 0 0 1 .14-.2c.09-.01.17.05.19.14.05.38.08.82.05 1.25-.03.35-.1.7-.25 1a.16.16 0 0 1-.22.09.17.17 0 0 1-.08-.23c.12-.26.19-.57.21-.9.04-.39.01-.8-.04-1.15zm4.84.8c0-.1.08-.17.2-.17.11 0 .2.07.2.17l.01.18c.01.39.03 1.13-.1 1.26a.24.24 0 0 1-.3 0c-.07-.05-.08-.16 0-.23.02-.02 0-.68-.01-1.02v-.19zm-30.6-19.08c.07-.14.24-.2.37-.13.14.06.2.23.14.36-2.16 4.57-1.34 10.2-.55 15.6.27 1.85.53 3.66.67 5.4.61 7.37-.91 13.43-13.15 14.6 2.85 2.95 5.78 5 8.83 6.33a24.47 24.47 0 0 0 10 1.97c4.77-.02 8.89-.94 12.36-2.53a23 23 0 0 0 8.99-7.24c.09-.12.26-.15.38-.06.13.09.15.26.06.38a23.55 23.55 0 0 1-9.2 7.42 30.25 30.25 0 0 1-12.58 2.58 25 25 0 0 1-10.24-2.01 28.55 28.55 0 0 1-9.4-6.86.28.28 0 0 1-.08-.18.28.28 0 0 1 .26-.3c12.29-1 13.81-6.88 13.22-14.06-.14-1.73-.4-3.53-.67-5.36-.8-5.48-1.63-11.2.6-15.91m25.1-1.64c.1.11.1.29-.02.4-.11.1-.29.08-.39-.03a18.9 18.9 0 0 0-5.7-4.37 14.76 14.76 0 0 0-6.4-1.5.28.28 0 0 1-.27-.27c0-.16.12-.28.28-.28 2.4.02 4.62.58 6.64 1.56a19.46 19.46 0 0 1 5.86 4.5m7.86 22.94a.28.28 0 0 1-.3.25.28.28 0 0 1-.25-.3 29 29 0 0 0-.78-8.73 34.28 34.28 0 0 0-3.31-8.67.28.28 0 0 1 .1-.38c.14-.07.31-.02.38.11a34.88 34.88 0 0 1 3.37 8.81c.73 3.1 1 6.17.79 8.9"/><path fill="#E6E6E6" d="M122.17 41.28c-1.2-1.02-6.42 1.18-3.04 4.87 1.58 1.73 7.87.22 4.56-4.21-.34-.46-1.48-.63-1.52-.66"/><path fill="#101418" stroke="#101418" stroke-width=".2" d="M97.34 33.99a.26.26 0 0 1 .03-.38c.11-.1.29-.08.38.03 1.98 2.22 5.2 3.38 8.84 3.92 3.67.56 7.76.48 11.43.22 1.97-.14 3.16.11 3.71.56.5.4.54.93.21 1.49-.28.47-.86.97-1.68 1.41-2.43 1.32-7.07 2.21-12.23.54a.27.27 0 0 1-.17-.34c.05-.14.2-.22.35-.17 4.98 1.62 9.45.77 11.78-.5.73-.39 1.24-.82 1.48-1.21.18-.31.17-.6-.09-.81-.45-.37-1.51-.57-3.32-.44-3.7.26-7.83.34-11.55-.22-3.76-.56-7.1-1.77-9.17-4.1"/><path fill="#101418" stroke="#101418" stroke-width=".2" d="M115.38 43.25a.28.28 0 0 1-.22-.33.28.28 0 0 1 .32-.22c1.33.25 2.09.68 2.37 1.16.28.46.17.95-.24 1.4-.35.38-.94.74-1.72 1.02-2.44.87-6.79.99-11-1.4a.29.29 0 0 1-.12-.4.27.27 0 0 1 .38-.1c4.06 2.3 8.23 2.2 10.56 1.36.7-.24 1.2-.55 1.5-.87.23-.25.3-.5.17-.72-.2-.35-.84-.68-2-.9"/><path fill="#101418" stroke="#101418" stroke-width=".2" d="M122.58 42.31a2.36 2.36 0 0 0-4.02 1.63c0 .63.26 1.2.68 1.63a2.36 2.36 0 0 0 4.02-1.63 2.3 2.3 0 0 0-.68-1.63m-1.67-1.28a2.89 2.89 0 0 1 2.9 2.9 2.9 2.9 0 1 1-2.9-2.9"/><path fill="#101418" d="M121 43.24a.28.28 0 0 1-.28-.27c0-.15.12-.27.28-.28h.02c.34 0 .63.2.83.49.18.25.3.58.3.87v.04a1 1 0 0 1-.6.99 1.64 1.64 0 0 1-1.04.03c-.44-.14-.8-.47-.84-.9a.28.28 0 0 1 .26-.3c.15-.02.3.1.3.24.02.2.22.37.46.44.1.04.22.05.33.05.1 0 .2-.02.29-.06.15-.07.27-.22.27-.48v-.03c0-.2-.08-.42-.2-.6-.1-.13-.23-.23-.36-.23H121z"/><path fill="#101418" stroke="#101418" stroke-width=".2" d="M122.25 36.5l.33-.2a.28.28 0 0 0-.33.2m.46.71c-.01.16-.14.28-.3.27a.28.28 0 0 1-.26-.3c.02-.22.05-.45.1-.67v-.01a6.95 6.95 0 0 1 2.76-3.87 7.84 7.84 0 0 1 5.06-1.56c.36.02.73.08 1.1.16.13.03.22.16.22.3 0 .57.09 2.26.46 4.36.23 1.3.57 2.74 1.07 4.18a.3.3 0 0 1-.15.36c-1.17.64-2.6 1.13-4.14 1.5-1.73.4-3.61.65-5.4.76a.28.28 0 0 1-.29-.27c0-.15.11-.29.26-.3 1.76-.1 3.6-.35 5.31-.76 1.4-.33 2.71-.77 3.8-1.33a30.47 30.47 0 0 1-1.48-8.28 7.29 7.29 0 0 0-5.5 1.35 6.37 6.37 0 0 0-2.54 3.53c-.04.2-.07.4-.08.58m-50.15 77.8c-.09 0-.16-.06-.16-.13 0-.06.07-.12.16-.12 2.88 0 5.82-.14 8.86-.28 3.26-.15 6.62-.3 10.12-.3h.6c.09 0 .16.05.16.12 0 .07-.07.12-.16.12h-.6c-3.5 0-6.86.16-10.1.3-3.05.15-6 .29-8.88.29m4.97-1.73a.16.16 0 0 1-.16-.17c0-.1.08-.17.17-.17a57 57 0 0 0 4.63-.2c1.73-.1 3.55-.23 5-.23.08 0 .15.08.15.17 0 .1-.07.17-.16.17-1.44 0-3.25.12-4.97.23-1.8.12-3.53.23-4.66.2"/><path fill="#101418" stroke="#101418" stroke-width=".2" d="M89.91 85.13a.27.27 0 1 1 .54.11c-.27 1.32.08 2.4.88 3.2.9.91 2.36 1.5 4.19 1.76 1.85.27 4.07.18 6.45-.27 6.91-1.33 15.1-5.78 19.37-13.9a46.67 46.67 0 0 0 5-16.83c.6-5.84.12-11.73-1.53-16.98a.27.27 0 1 1 .52-.16 43.4 43.4 0 0 1 1.55 17.2 47.23 47.23 0 0 1-5.05 17.04c-4.36 8.27-12.71 12.82-19.77 14.17-2.42.46-4.7.55-6.62.28-1.94-.28-3.51-.92-4.5-1.92a3.91 3.91 0 0 1-1.03-3.7M83.63 17c.07-.07.2-.08.3-.04.08.05.1.14.04.21-.33.31-.63.82-.85 1.36a4.16 4.16 0 0 0-.35 1.58c0 .08-.1.15-.2.15-.12 0-.22-.06-.22-.14-.02-.45.13-1.08.37-1.67.23-.57.56-1.11.91-1.45m-2.11 6.75c0-.09.07-.17.15-.17.08 0 .15.08.15.17v.43c0 2.19 0 4.63.52 6.67.03.09-.02.18-.1.2-.08.03-.16-.02-.18-.1-.55-2.1-.54-4.56-.54-6.77v-.43zm6.1 8.27c.02-.09.11-.14.2-.12.1.02.15.1.13.2a8.46 8.46 0 0 0-.19 3.41c.17 1.16.58 2.36 1.2 3.64.05.08 0 .18-.08.21-.09.04-.19 0-.23-.08a12.6 12.6 0 0 1-1.23-3.72 8.73 8.73 0 0 1 .2-3.54m5.5 6.7c0-.1.09-.17.2-.17.1 0 .18.07.18.16a5 5 0 0 0 .87 1.97c.7 1.11 1.63 2.23 2.02 2.57.07.06.07.17 0 .23a.2.2 0 0 1-.26 0 15.1 15.1 0 0 1-2.09-2.64c-.5-.8-.9-1.6-.91-2.12m5.82 1.72c-.04-.09 0-.18.1-.22.08-.03.2 0 .23.08.3.58.62 1.08 1.07 1.55a8 8 0 0 0 1.82 1.39c.08.05.1.15.05.22a.2.2 0 0 1-.25.05 8.34 8.34 0 0 1-1.9-1.45 6.57 6.57 0 0 1-1.12-1.62m3.34.04a.18.18 0 0 1 .01-.23.14.14 0 0 1 .22.02l.03.05c.83 1.1 1.4 1.86 2.88 2.05.09.01.15.1.14.18-.01.1-.09.16-.17.15-1.6-.2-2.2-1-3.07-2.16v-.01l-.04-.05zm-11.64-6.75c0-.1.07-.17.16-.17.1 0 .17.08.17.17v.56c-.01.85-.02 1.3.25 2.38.02.09-.03.18-.12.2a.17.17 0 0 1-.2-.12c-.28-1.11-.27-1.58-.27-2.46v-.56m4.98 2.5c0-.1.07-.18.15-.18.08 0 .15.08.15.18 0 .2.05.54.14.91.1.39.23.8.37 1.15.04.1 0 .2-.07.24-.07.04-.16 0-.2-.08a9.3 9.3 0 0 1-.38-1.21c-.1-.4-.17-.78-.16-1.02m-4.44-9.26a.17.17 0 0 1 .23-.01c.07.05.08.15.02.22a5.5 5.5 0 0 0-.88 1.19c-.24.46-.4 1.01-.4 1.72 0 .08-.08.15-.17.15s-.17-.07-.17-.15a4 4 0 0 1 .44-1.86c.26-.5.6-.9.93-1.26"/><path fill="#DADADA" stroke="#DADADA" stroke-width=".2" d="M138.2 30.16a.16.16 0 0 1-.23.03.18.18 0 0 1-.03-.24c1.2-1.62 4.67-3.67 7.84-5.55 2.08-1.23 4.04-2.38 5.13-3.28a.16.16 0 0 1 .23.03c.06.07.04.18-.03.24-1.1.91-3.07 2.08-5.17 3.31-3.14 1.86-6.57 3.89-7.74 5.46m2.47.85a.16.16 0 0 1-.23 0 .17.17 0 0 1 0-.24c.06-.05 12.45-5.5 22.21-9.74a516.83 516.83 0 0 1 11.53-4.93c.08-.03.18.02.2.1a.17.17 0 0 1-.1.22c-.74.26-5.65 2.37-11.5 4.91-9.74 4.24-22.07 9.64-22.1 9.68m-.12 4.2a.16.16 0 0 1-.16-.16c0-.1.07-.17.16-.17 1.28 0 5.32-.54 9.85-1.22 6.2-.93 13.29-2.14 15.5-2.6.08-.02.17.04.19.13a.16.16 0 0 1-.13.2 398.7 398.7 0 0 1-15.51 2.6c-4.54.68-8.6 1.22-9.9 1.22m6.64 2.03c-.1 0-.17-.08-.17-.18 0-.1.08-.19.17-.19 1.6 0 3.25.05 4.9.1 1.58.04 3.16.09 4.71.09.1 0 .17.08.17.18s-.08.18-.17.18c-1.51 0-3.1-.04-4.72-.09-1.62-.04-3.25-.09-4.9-.09"/><path fill="#101418" stroke="#101418" stroke-width=".2" d="M40.73 78.45c.09 0 .16.08.16.19 0 .1-.08.19-.17.18-3.83-.08-9.7.21-15.35.8-4.77.5-9.37 1.23-12.47 2.13-.09.03-.18-.03-.2-.13-.02-.1.03-.2.12-.23 3.1-.91 7.73-1.64 12.52-2.14 5.66-.6 11.54-.88 15.39-.8m-8.36-3.33c.08-.03.18 0 .21.1.04.08 0 .17-.09.2-.36.16-1.58.27-3.02.34-2.19.12-4.9.16-5.83.14a.17.17 0 0 1 0-.33c.93.01 3.63-.03 5.81-.14 1.41-.07 2.6-.18 2.92-.3m7.72-9.72a.17.17 0 0 1 .03-.24.17.17 0 0 1 .24.03 31.05 31.05 0 0 0 3.67 3.8c1.54 1.42 3.12 2.88 4.45 4.75.36.52 1.58 1.48 2.38 2.1.44.35.76.6.8.68.03.09 0 .19-.1.23a.17.17 0 0 1-.21-.09l-.69-.54c-.82-.65-2.06-1.62-2.45-2.18-1.31-1.84-2.88-3.29-4.4-4.7a31.22 31.22 0 0 1-3.72-3.84m16.65-2.48c-.08-.03-.12-.12-.08-.2.03-.07.13-.11.21-.08.54.22 1.7 1.1 2.84 2.08a19.2 19.2 0 0 1 2.71 2.67c.05.07.02.16-.05.2a.17.17 0 0 1-.23-.05 19.06 19.06 0 0 0-2.65-2.6 15.31 15.31 0 0 0-2.75-2.02"/><path fill="#FEFEFE" d="M22.5 9.55c-2.39-.5-5.62.7-4.5 4.38 1.94 6.46.7 2.12-1.65 5.4-1.57 2.18 2.7 15.01 4.74 14.18 7.66-3.13 2.1-.83 1.91-11.03-.02-1.1.91-1.8.83-5.14 0-.44 2.7-5.33-.66-7.34-.15-.09-.53-.42-.68-.45m6.36-5.84l.21-.04c-6.5 1-2.97 2.07-2.96 4.9 0 .56 1.98 11 2.52 10.85 6.79-2.04 4.5-.64 2.4-4.6-2.1-3.96 6.9-12.56-.72-11-.48.09-1.31-.12-1.45-.11M45.92.54C44.47.02 40.9.14 40.9 3.02c0 .53.71 8.09 1.18 8.09 3.48 0 3.42-4.49 5.07-7.69.87-1.69.17-2.39-1.22-2.88m-3.94 15.55c-7.37 0-8.01 1.25-5.73 8.2 1.45 4.42-.65 9.26 6.4 7.04 2.56-.8-2.76-2.02-.42-7.27 1.64-3.68 1.48-5.17-.25-7.97m12.16-8.06c-.76-.34-7.32-.86-7.44 2.51-.09 2.27.93 10.83 3.77 11.22 6.82.94 1.53-2.36 3.27-10.82.16-.82.48-2.87.4-2.9m11.23 5.34c-.15-.1-6.62-1.8-6.93.94-.17 1.46-.37 12.46.62 12.9.44.2 6.85.93 6.85.18 0-3.68-3.32-3.6-.68-7.82 2.39-3.82 1.1-5.5.14-6.2"/><path fill="#101418" stroke="#101418" stroke-width=".2" d="M24.96 59.32c.1 0 .17.05.17.12 0 .07-.08.12-.17.12-.75 0-1.88.15-3 .3-.9.13-1.79.26-2.45.29-.1 0-.18-.05-.18-.12 0-.07.06-.12.16-.13.64-.03 1.52-.15 2.41-.28 1.13-.15 2.28-.31 3.06-.3m40.78.19c0 .22 0 .5.02.87 0 .08-.02.16-.08.22-.15.13-17.83 2.16-29.24 3.47l-9.26 1.06a.27.27 0 0 1-.27-.14 10.7 10.7 0 0 1-.1-1.3l-.02-.3v-.02c.04-.55 20.96-2.93 28.67-3.8l2.68-.31c.61-.08 1.54-.17 2.43-.25 1.07-.1 2.1-.2 2.52-.28l.38-.06c1.15-.18 1.66-.26 1.96-.1l.02.01c.3.18.3.45.29.93m-.54.71a9.54 9.54 0 0 1 0-.71c0-.3 0-.46-.03-.47h-.01c-.14-.08-.6 0-1.6.16l-.38.06c-.44.07-1.48.17-2.56.27l-2.41.26-2.7.3c-7.57.86-28.18 3.2-28.18 3.26l.02.32.03.9 9-1.03c10.85-1.25 27.4-3.14 28.82-3.32"/><path fill="#101418" stroke="#101418" stroke-width=".2" d="M57.54 61.4a.25.25 0 0 1 .04-.36c.12-.1.3-.08.4.04a115.8 115.8 0 0 0 5.16 4.41c.14.08.18.24.09.36a.31.31 0 0 1-.4.07 106.5 106.5 0 0 1-5.3-4.51m14.21 4.23c.11.02.17.1.15.2-.03.09-.13.14-.24.12-.49-.1-.79-.58-.88-1.13a2.53 2.53 0 0 1 0-.81c.05-.27.14-.53.27-.75.24-.4.64-.66 1.18-.63.1.01.19.1.18.18-.01.1-.1.16-.21.16-.36-.03-.63.16-.8.44-.12.19-.2.41-.23.65-.04.23-.04.48 0 .71.07.43.27.79.58.86"/><path fill="#FBE6EC" d="M64.48 39.58c0 .02 2.54 19.7-4.4 19.1-7.5-.66-6.59 2.31-15.3.8-3.15-.55-15.61 5.3-15.95.28-.03-.34-6.6-18.71-7.55-22.32-.22-.81-.55-1.7.03-2.29-.04 1.68 4.06 1.6 5.78.63 2.58-1.45 1.9 2.71 3.1.94 1.1-1.62-3.72-17.71 1.1-14.35 2.94 2.06 3.22-2.17 4.61 2.92.94 3.42.72.93.97 5.15.28 4.7 4.76 4.8 8.23 2.57 1.56-1 2.55 5.68 2.18-4.68-.2-5.82.4-.48 4.71-1.69 5.04-1.4 1.07.12 3.35 3.61 1.36 2.1 9-2.1 9 2.2 0 2.4.14 4.72.14 7.13"/><path fill="#101418" stroke="#101418" stroke-width=".2" d="M37.57 50.35c0-.1.06-.17.15-.18.1 0 .17.07.18.16.02.37.4 2.5.97 4.33.24.77.52 1.49.82 1.99.27.45.55.72.82.66.04 0 .09-.02.13-.05a.16.16 0 0 1 .23.07c.04.08.01.18-.07.22a.77.77 0 0 1-.22.09c-.43.09-.82-.25-1.17-.82-.31-.52-.6-1.26-.85-2.06a28.53 28.53 0 0 1-.99-4.41m14.26 5.1c-.1-.01-.17-.09-.16-.16.01-.08.1-.14.2-.13.3.03.58.12.9.23.65.22 1.46.48 2.81.17.1-.02.2.03.23.1.02.08-.03.16-.13.18-1.47.33-2.34.05-3.06-.19-.28-.1-.54-.18-.8-.2"/><path fill="#101418" d="M20.72 22.74c-.24.02-.48-.04-.67-.16-.31-.2-.5-.42-.62-.66a1.11 1.11 0 0 1 .05-1.04 1.27 1.27 0 0 1 1.02-.63c.23-.01.47.03.68.14.21.1.4.28.5.53.08.14.12.31.13.5.02.31-.04.56-.16.76-.1.18-.25.31-.41.4-.16.1-.34.15-.52.16m-.48-.5c.13.08.3.12.46.1.12 0 .25-.04.36-.1.1-.06.2-.15.27-.26.08-.14.12-.31.1-.53a.99.99 0 0 0-.08-.36.75.75 0 0 0-.34-.35.97.97 0 0 0-.84 0 .88.88 0 0 0-.36.34c-.06.1-.1.2-.1.32-.01.11 0 .23.06.35.08.17.23.34.47.5"/><path fill="#101418" stroke="#101418" stroke-width=".2" d="M16.43 23.15c.7 2.07 1.66 4.88 2.42 6.47l1.37-.5A90.03 90.03 0 0 1 27 26.77c-.25-1-1.04-3.64-1.75-5.74-.47-1.39-.9-2.5-1.05-2.65a4.6 4.6 0 0 0-1.58-.05c-1.29.12-2.93.53-4.3 1.06-1.33.5-2.38 1.1-2.56 1.64a.4.4 0 0 0-.02.12c.19.5.42 1.19.69 1.99m2.02 6.91a64.54 64.54 0 0 1-2.55-6.74l-.7-2.02a.27.27 0 0 1-.02-.06.88.88 0 0 1 .05-.37c.23-.7 1.41-1.42 2.88-1.98 1.42-.55 3.12-.97 4.46-1.1.75-.06 1.4-.04 1.83.1.06.01.1.05.14.1.3.32.76 1.49 1.24 2.88.8 2.35 1.7 5.4 1.83 6.07a.27.27 0 0 1-.25.33c-.71.04-4.67 1.51-6.95 2.35-.94.35-1.6.6-1.69.6a.28.28 0 0 1-.27-.16"/><path fill="#101418" stroke="#101418" stroke-width=".2" d="M16.86 21.32a.17.17 0 0 1 .07-.22c.08-.04.18 0 .22.08.2.42.41 1.24.64 2.15.3 1.19.64 2.53 1.06 3.35.26.53.55.82.86.66l.01-.01c.56-.3 1.22-.6 1.88-.81a7.09 7.09 0 0 1 1.7-.36c.09 0 .17.06.17.16 0 .09-.06.17-.15.18-.5.03-1.07.16-1.61.34-.66.21-1.3.5-1.84.79-.53.29-.96-.09-1.32-.8-.43-.84-.77-2.21-1.08-3.41-.22-.9-.42-1.7-.61-2.1m1.64 8.58a.28.28 0 0 1 .55-.12c.14.67.5 2.12.88 3.13.2.53.38.92.46.91.25-.02.76-.22 1.44-.5 1.15-.47 2.77-1.12 4.64-1.45.56-.1.66-.6.55-1.22-.14-.82-.6-1.83-.94-2.59-.15-.31-.27-.58-.34-.78a.28.28 0 0 1 .16-.36c.14-.06.3.02.36.16.07.2.19.45.32.75.36.78.84 1.84.99 2.72.16.95-.03 1.71-1 1.88-1.82.3-3.4.95-4.53 1.41-.73.3-1.27.52-1.62.54-.38.02-.72-.52-1.01-1.27-.4-1.05-.76-2.54-.9-3.21"/><path fill="#101418" d="M20.17 30.45c-.04-.09.02-.19.12-.22.1-.03.2.02.24.11.08.2.14.44.2.67h.01c.19.68.39 1.4.87 1.36.1 0 .2.07.2.16.01.1-.07.18-.18.19-.8.04-1.04-.8-1.26-1.62-.07-.24-.13-.46-.2-.65m1.68 3.23c.02-.1.1-.15.2-.13.09.02.14.1.12.2-.05.24 0 .43.12.58.17.21.48.36.87.45.41.09.9.12 1.4.1 1.19-.04 2.43-.36 2.75-.8a.17.17 0 0 1 .24-.03c.07.05.1.15.04.22-.39.51-1.74.89-3.02.94a5.85 5.85 0 0 1-1.49-.12c-.46-.1-.83-.29-1.05-.56a.95.95 0 0 1-.18-.85"/><path fill="#101418" stroke="#101418" stroke-width=".2" d="M34.96 57.68c.09.02.14.1.12.19a.16.16 0 0 1-.19.11 1.1 1.1 0 0 0-.3-.01 5.1 5.1 0 0 0-1.94.65c-.66.37-1.23.88-1.37 1.47-.03.1-.04.22-.03.33 0 .06.02.11.05.15v.01c.03.04.07.08.12.11.07.05.09.14.04.22a.16.16 0 0 1-.21.04.69.69 0 0 1-.21-.2l-.01-.01a.64.64 0 0 1-.1-.3c0-.14.01-.29.05-.43.16-.68.8-1.25 1.52-1.66.72-.4 1.53-.66 2.07-.7.15 0 .28 0 .4.03"/><path fill="#101418" stroke="#101418" stroke-width=".2" d="M21.52 33.73c.1-.12.27-.15.39-.06.12.1.15.27.06.39a1.7 1.7 0 0 0-.42 1.31c.06.58.32 1.38.8 2.65.74 1.9 1.7 4.61 2.73 7.57 1.36 3.92 2.82 8.27 3.97 11.71.18.53.34 1.08.48 1.58.58 1.96.97 3.3 2.35 3.2.82-.04 1.75-.18 2.59-.44.74-.22 1.4-.54 1.88-.97.44-.41.7-.94.66-1.6a2.8 2.8 0 0 0-.13-.65c-.82-2.59-2.33-6.83-3.86-11.16-1.93-5.44-3.91-11.03-4.66-13.67-.1-.37-.25-.67-.46-.87a.96.96 0 0 0-.64-.29.28.28 0 0 1-.27-.28c0-.15.14-.27.3-.26.4.02.74.18 1.01.45s.47.65.6 1.1c.74 2.63 2.72 8.2 4.64 13.64 1.54 4.34 3.05 8.6 3.87 11.18.09.27.14.53.15.78.06.84-.27 1.5-.83 2.02-.54.5-1.28.86-2.1 1.1-.89.28-1.86.42-2.72.47-1.82.12-2.26-1.4-2.91-3.6l-.48-1.56c-1.15-3.45-2.61-7.8-3.97-11.7-1.03-2.98-2-5.7-2.71-7.56-.5-1.32-.78-2.15-.84-2.79-.07-.7.1-1.15.52-1.7"/><path fill="#101418" d="M27.63 36.27c-.03-.08 0-.18.06-.21.05-.04.12 0 .14.08.06.2.14.6.24 1.06l.37 1.96c.02.09-.01.18-.07.2-.06.03-.12-.03-.14-.11a128.65 128.65 0 0 0-.6-2.98m5.47 16.26l-.01-.02.01.02m-3.8-11.27a.16.16 0 0 1 .08-.22c.08-.03.19 0 .22.09.63 1.3 1.69 4.65 2.6 7.56.45 1.42.87 2.72 1.19 3.65v.01c.03.04.03.05.03.14 0 .1-.06.17-.16.18a.17.17 0 0 1-.18-.16 176.1 176.1 0 0 1-1.2-3.73c-.91-2.89-1.97-6.23-2.59-7.52"/><path fill="#101418" stroke="#101418" stroke-width=".2" d="M24.3 33.02c0-.16.1-.3.25-.3.15-.01.27.1.28.26.14 2.16.62 4.8 1.33 7.36a35.4 35.4 0 0 0 3.3 8.16c1.78 3.3 3.73 6.9 3.96 12.19.01.15-.1.28-.25.29a.27.27 0 0 1-.28-.27c-.23-5.15-2.14-8.7-3.9-11.93l-.71-1.34a36 36 0 0 1-2.63-6.94 38.5 38.5 0 0 1-1.35-7.48"/><path fill="#101418" d="M29.65 7.78a1.15 1.15 0 0 1-.64-.27c-.28-.25-.44-.5-.51-.75a1.1 1.1 0 0 1 .2-1.02 1.25 1.25 0 0 1 1.1-.45c.24.03.47.1.66.25.2.14.35.34.42.6.05.16.07.33.05.52-.03.3-.13.54-.27.72-.13.16-.3.27-.47.33-.17.06-.36.08-.54.07m-.4-.57c.11.1.27.16.44.17.12.02.25 0 .37-.04a.7.7 0 0 0 .3-.21l.01-.01a.9.9 0 0 0 .18-.5 1 1 0 0 0-.03-.36.75.75 0 0 0-.28-.4.96.96 0 0 0-.84-.14.88.88 0 0 0-.4.28.7.7 0 0 0-.13.65c.04.18.16.37.38.56"/><path fill="#101418" stroke="#101418" stroke-width=".2" d="M25.18 7.97c.34 2.14.8 5.04 1.28 6.72l1.36-.29c2.06-.44 5.5-1.17 6.71-1.26a99.02 99.02 0 0 0-.76-5.9c-.23-1.43-.46-2.6-.58-2.76a4.18 4.18 0 0 0-1.47-.3 16 16 0 0 0-4.2.39c-1.32.3-2.4.73-2.65 1.23a.37.37 0 0 0-.03.1l.34 2.07zm.84 7.1c-.51-1.66-1-4.76-1.37-7.02l-.34-2.08V5.9c0-.12.04-.24.09-.35.33-.65 1.54-1.18 3-1.5 1.42-.33 3.08-.48 4.35-.4.71.04 1.32.16 1.7.36.06.03.1.07.12.12.23.36.49 1.58.72 3.03.4 2.42.76 5.56.8 6.23a.27.27 0 0 1-.3.28c-.69-.06-4.61.78-6.87 1.26-.93.2-1.59.34-1.67.33a.27.27 0 0 1-.23-.19z"/><path fill="#101418" stroke="#101418" stroke-width=".2" d="M26.8 6.33c-.03-.09.02-.18.11-.2.1-.03.2.02.22.1.14.44.23 1.24.32 2.13.12 1.16.26 2.48.56 3.31.2.54.45.86.8.75a15.19 15.19 0 0 1 1.92-.45c.1-.02.19.04.2.13.02.09-.04.17-.14.19a13.44 13.44 0 0 0-1.87.44c-.6.18-.98-.24-1.24-.95-.31-.87-.45-2.21-.58-3.4a12.7 12.7 0 0 0-.3-2.05m8.28 10.35c0 .16-.11.29-.26.29-.14 0-.26-.13-.26-.28-.01-.71-.23-1.66-.43-2.53l-.23-1.05c-.03-.15.06-.3.2-.33.15-.04.29.06.32.22.05.3.14.65.22 1.02.2.9.43 1.88.44 2.66m-8.29-2.09c0-.16.1-.3.25-.3.14 0 .27.11.27.27.04.69.15 2.21.36 3.29.11.57.22.99.3 1 .23.02.7-.1 1.33-.27h.01c1-.26 2.36-.62 3.96-.7.14 0 .27.11.27.27 0 .16-.1.3-.25.3a18.4 18.4 0 0 0-3.85.68h-.01c-.68.18-1.19.32-1.51.28-.36-.03-.6-.64-.76-1.44a28.12 28.12 0 0 1-.37-3.38"/><path fill="#101418" d="M28.45 15.45c-.01-.09.04-.17.1-.19.07-.01.14.05.15.14.03.2.04.42.06.65.04.65.08 1.35.4 1.38.07.01.12.1.12.18-.01.09-.07.15-.14.15-.53-.07-.59-.9-.64-1.68l-.05-.63m.92 3.24a.17.17 0 0 1 .21-.1c.09.04.13.13.1.21-.1.25-.09.45.02.6.11.16.33.29.6.37.3.1.65.15 1.03.16 1.09.04 2.32-.22 2.63-.6a.17.17 0 0 1 .23-.04c.07.06.08.16.03.23-.37.46-1.73.77-2.9.73-.41-.02-.8-.07-1.12-.18-.34-.1-.62-.27-.78-.5-.16-.23-.2-.53-.05-.88m8.92 26.6c.09.05.13.16.1.25-.04.1-.14.14-.23.1a1.12 1.12 0 0 0-.32-.07 5.25 5.25 0 0 0-2.23.4c-.78.32-1.5.81-1.75 1.48-.05.12-.08.25-.09.39 0 .07 0 .13.02.18.03.06.06.11.11.16a.2.2 0 0 1 .02.27.16.16 0 0 1-.25.01.82.82 0 0 1-.2-.3.81.81 0 0 1-.04-.36c.01-.17.05-.34.11-.5.3-.77 1.09-1.33 1.95-1.68a5.57 5.57 0 0 1 2.38-.42c.17.02.31.05.42.1"/><path fill="#101418" stroke="#101418" stroke-width=".2" d="M28.4 18.67c.1-.11.27-.1.37 0 .1.11.1.29 0 .4-.38.37-.57.7-.6 1.25-.04.59.1 1.43.36 2.78.4 2.01.91 4.9 1.44 8.02.69 4.11 1.42 8.71 2 12.37.09.6.15 1.15.21 1.66.25 2.05.42 3.46 1.76 3.58.93.09 2.02.09 2.99-.12.73-.15 1.4-.43 1.84-.87.1-.1.28-.1.38 0 .1.11.1.3 0 .4-.53.52-1.28.84-2.12 1.02-1.02.21-2.17.22-3.14.13-1.77-.17-1.97-1.76-2.25-4.07l-.21-1.65c-.57-3.6-1.3-8.18-2-12.35-.53-3.14-1.03-6.02-1.43-8.01a12.6 12.6 0 0 1-.37-2.93c.04-.7.28-1.14.76-1.61"/><path fill="#101418" d="M30.11 25.43c-.02-.08.02-.17.09-.19.06-.02.12.03.14.12.07.4.38 4.45.53 6.3l.07.88c0 .09-.05.17-.11.18-.07 0-.12-.06-.13-.15l-.07-.87c-.14-1.85-.45-5.88-.52-6.27"/><path fill="#101418" stroke="#101418" stroke-width=".2" d="M30.94 18.92a.27.27 0 1 1 .54-.1c.19 1 .54 2.55.96 4.4 1.61 7.19 4.3 19.15 3.22 24.24a.28.28 0 1 1-.54-.12c1.06-4.97-1.62-16.86-3.22-23.99-.42-1.87-.77-3.42-.96-4.43"/><path fill="#101418" d="M39.6 19.41a1.15 1.15 0 0 1-.64-.26c-.28-.25-.44-.5-.51-.75a1.1 1.1 0 0 1 .2-1.02 1.25 1.25 0 0 1 1.1-.45c.24.02.47.1.66.24.2.15.35.35.42.61.05.15.07.33.05.52-.03.3-.12.53-.26.7l-.01.02c-.13.15-.3.26-.47.33-.17.06-.36.08-.54.06m-.4-.56c.11.1.27.16.44.17.12.01.25 0 .37-.04a.71.71 0 0 0 .3-.22h.02a.9.9 0 0 0 .17-.5.98.98 0 0 0-.03-.37.76.76 0 0 0-.28-.4.94.94 0 0 0-.46-.17.94.94 0 0 0-.38.04.87.87 0 0 0-.4.27.7.7 0 0 0-.13.65c.04.18.17.38.38.57"/><path fill="#101418" stroke="#101418" stroke-width=".2" d="M35.13 19.6c.34 2.14.8 5.05 1.28 6.73l1.36-.3a82.14 82.14 0 0 1 6.71-1.26 99.57 99.57 0 0 0-.76-5.9c-.24-1.43-.46-2.6-.59-2.75a4.17 4.17 0 0 0-1.46-.3c-1.23-.07-2.84.08-4.2.39-1.32.3-2.4.73-2.65 1.23a.4.4 0 0 0-.03.1l.34 2.06zm.84 7.11c-.5-1.67-1-4.76-1.37-7.02l-.34-2.08v-.07a.9.9 0 0 1 .1-.35h-.01c.33-.65 1.54-1.18 3-1.5 1.42-.33 3.07-.49 4.35-.4.71.04 1.31.15 1.7.36.05.02.1.06.12.11.23.36.49 1.58.72 3.03.4 2.42.77 5.56.8 6.24a.27.27 0 0 1-.3.27c-.68-.05-4.61.79-6.86 1.27-.94.2-1.6.34-1.68.33a.27.27 0 0 1-.23-.19z"/><path fill="#101418" stroke="#101418" stroke-width=".2" d="M40.67 23.58l.18.13a.16.16 0 0 0-.18-.13m-3.92-5.62a.16.16 0 0 1 .1-.2c.1-.02.19.03.21.11.14.44.22 1.23.3 2.13.12 1.15.25 2.48.54 3.31.19.54.43.86.76.75.6-.2 1.3-.38 2-.48h.01a7.4 7.4 0 0 1 1.73-.08c.09 0 .15.08.14.17 0 .1-.08.16-.17.15-.51-.05-1.08-.01-1.65.07-.7.1-1.38.28-1.96.47-.56.19-.92-.23-1.17-.95-.3-.87-.43-2.2-.55-3.38a13.4 13.4 0 0 0-.3-2.07m0 9.1c0-.16.11-.3.27-.3.16 0 .3.11.3.27a25 25 0 0 0 .4 3.29c.12.57.24.99.32 1 .26.02.81-.11 1.55-.28 1.24-.29 3-.69 4.95-.71.59 0 .77-.5.76-1.15-.01-.84-.32-1.94-.55-2.76-.1-.33-.17-.62-.22-.84a.29.29 0 0 1 .56-.12l.22.81c.23.85.55 1.98.56 2.9.01.98-.3 1.72-1.32 1.73-1.9.02-3.61.42-4.84.7-.78.18-1.37.31-1.72.28-.4-.03-.66-.64-.83-1.44a25.94 25.94 0 0 1-.4-3.38"/><path fill="#101418" d="M38.4 27.92c-.01-.09.05-.17.15-.19.1-.01.2.05.21.14.04.2.06.44.08.67.05.53.1 1.08.34 1.3.03.04.18.08.68.04.36-.02.89-.09 1.63-.24.1-.02.2.04.22.13.02.08-.04.17-.14.2-.77.15-1.31.22-1.69.24-.64.05-.88-.06-.96-.14-.33-.31-.39-.92-.44-1.5a7.24 7.24 0 0 0-.08-.65m.91 3.24a.16.16 0 0 1 .21-.1c.08.04.12.13.1.22-.12.28-.07.5.07.66.14.14.35.25.62.33.28.08.6.12.95.12 1.1.02 2.37-.3 2.64-.81.05-.08.14-.1.22-.07.08.05.1.14.06.22-.33.62-1.72 1.01-2.93.99-.37-.01-.73-.06-1.03-.14a1.62 1.62 0 0 1-.76-.42c-.23-.25-.3-.58-.15-1"/><path fill="#101418" stroke="#101418" stroke-width=".2" d="M48.24 56.93c.1.04.13.15.1.25-.04.1-.14.14-.23.1a1.1 1.1 0 0 0-.32-.07 5.24 5.24 0 0 0-2.22.4h-.01c-.79.32-1.5.81-1.75 1.47-.05.13-.08.26-.09.4 0 .07 0 .13.02.18.03.06.06.11.12.16a.2.2 0 0 1 0 .27.16.16 0 0 1-.24.01.81.81 0 0 1-.2-.3.82.82 0 0 1-.04-.36c.01-.17.05-.34.11-.5.3-.77 1.08-1.33 1.94-1.68h.01a5.6 5.6 0 0 1 2.38-.42c.17.01.31.05.42.1"/><path fill="#101418" stroke="#101418" stroke-width=".2" d="M49.57 60.94a.27.27 0 0 1-.37-.1.28.28 0 0 1 .08-.37c.38-.24.67-.54.84-.93.15-.35.2-.79.13-1.3v-.02c-.4-2.72-1.19-7.2-2-11.76-1.03-5.73-2.08-11.61-2.39-14.36-.04-.38-.14-.7-.3-.94a.94.94 0 0 0-.6-.39.28.28 0 0 1 .12-.54c.4.08.7.3.92.6.22.32.36.73.41 1.2.31 2.75 1.36 8.62 2.38 14.34.81 4.58 1.61 9.06 2 11.77v.01c.1.63.03 1.17-.17 1.61-.22.5-.58.89-1.05 1.18M39.18 31.18c.1-.11.28-.1.39 0 .1.11.1.29 0 .4-.39.37-.58.7-.62 1.24a12 12 0 0 0 .37 2.77c.41 2.01.93 4.88 1.47 8a1069.27 1069.27 0 0 1 2.23 13.73c.17 1.26.33 2.4.62 3.08.06.14-.01.3-.15.36-.14.06-.3 0-.36-.15a14.7 14.7 0 0 1-.66-3.21 1055.07 1055.07 0 0 0-2.23-13.7c-.53-3.14-1.05-6.01-1.45-8a12.36 12.36 0 0 1-.38-2.91c.04-.7.29-1.14.77-1.61"/><path fill="#101418" d="M45.04 34.58a.16.16 0 0 1 .12-.2c.09-.02.18.04.2.12a87.23 87.23 0 0 1 .43 3.03.16.16 0 0 1-.14.17.16.16 0 0 1-.19-.14 88.5 88.5 0 0 0-.42-2.98m2.95 17.09l-.01-.02s.02.04 0 .02m-2.11-12.09c-.03-.09.03-.18.13-.2.1-.03.2.02.23.11.45 1.43 1 5.02 1.48 8.13.23 1.52.44 2.93.62 3.9 0 .02 0 0 0 0v.01c.02.05.02.05.01.15 0 .1-.1.16-.2.15-.1 0-.18-.09-.17-.18a167.94 167.94 0 0 1-.65-3.99c-.46-3.1-1-6.67-1.45-8.08"/><path fill="#101418" stroke="#101418" stroke-width=".2" d="M41.72 30.57a.28.28 0 0 1 .2-.34c.15-.03.3.06.33.21 1.43 6.32 1.99 11.37 2.5 16.05.47 4.25.9 8.19 1.93 12.48.04.15-.05.3-.2.34a.27.27 0 0 1-.32-.2 97.55 97.55 0 0 1-1.94-12.56 132.8 132.8 0 0 0-2.5-15.98"/><path fill="#101418" d="M50.38 8.92zm1.44 1.62l-1.12-.1a1.23 1.23 0 0 1-.3-.6.68.68 0 0 1 .23-.62c.12-.11.28-.18.44-.2a.99.99 0 0 1 .82.26c.11.11.2.26.22.44.01.1 0 .23-.03.36a.87.87 0 0 1-.26.46zm-.8.53a1.17 1.17 0 0 1-.6-.37 1.63 1.63 0 0 1-.4-.81 1.08 1.08 0 0 1 .36-.97c.17-.16.4-.26.64-.3a1.35 1.35 0 0 1 1.13.38c.17.17.3.4.33.66.03.16.02.33-.03.51-.07.3-.2.51-.38.67-.15.13-.33.2-.5.24h-.01c-.18.04-.37.03-.54-.01zm-.32-.62c.1.11.25.2.4.24.13.03.26.04.39.01.1-.02.2.05.22.16l-1-.41z"/><path fill="#101418" stroke="#101418" stroke-width=".2" d="M56.38 8.02l-.04.25a.27.27 0 0 0 .04-.25m-9.12 2.44c.02 2.14.04 5.05.26 6.76l1.43-.07c2.16-.1 5.77-.29 7-.18.08-1 .16-3.71.15-5.87-.02-1.44-.06-2.61-.17-2.8-.3-.2-.81-.37-1.44-.5a17.07 17.07 0 0 0-4.32-.28c-1.39.08-2.55.34-2.88.78a.35.35 0 0 0-.05.1l.02 2.06m-.25 7.06c-.25-1.7-.28-4.8-.3-7.05a86.3 86.3 0 0 0-.01-2.15.87.87 0 0 1 .15-.33c.44-.59 1.75-.91 3.28-1 1.49-.1 3.2 0 4.48.28.71.15 1.3.37 1.67.63.05.03.08.07.1.12.17.38.25 1.62.26 3.07a84.5 84.5 0 0 1-.17 6.2.27.27 0 0 1-.3.24h-.03c-.68-.17-4.8.04-7.17.16-.98.05-1.67.08-1.75.06a.27.27 0 0 1-.2-.23"/><path fill="#101418" stroke="#101418" stroke-width=".2" d="M48.43 9.62c0-.08.04-.16.1-.17.06-.02.11.04.12.13.05.44.01 1.22-.02 2.09-.05 1.14-.1 2.43 0 3.27.06.54.19.89.42.83.06-.01.12.05.13.13 0 .09-.03.17-.1.18-.38.1-.58-.36-.67-1.09a24.2 24.2 0 0 1 0-3.33c.03-.86.06-1.63.02-2.04m-.78 8.64a.26.26 0 0 1 .3-.23c.14.02.25.14.24.28-.07.61-.17 1.98-.12 2.96.03.52.08.9.16.92.23.06.76.02 1.46-.02a22.4 22.4 0 0 1 4.68.05c.54.07.78-.33.86-.91.11-.75 0-1.76-.1-2.51-.04-.3-.07-.57-.08-.78-.01-.14.1-.26.25-.26.15-.01.28.1.28.24l.08.74c.1.78.23 1.83.1 2.64-.13.87-.53 1.48-1.47 1.35-1.75-.24-3.4-.13-4.56-.05-.75.05-1.32.09-1.63.01-.36-.09-.52-.66-.56-1.39a22 22 0 0 1 .11-3.04"/><path fill="#101418" d="M48.41 18.74c0-.08.08-.15.17-.15.09 0 .16.07.17.15 0 .2-.02.42-.04.64-.04.63-.1 1.3.31 1.4.09.01.14.1.12.18-.02.09-.11.14-.2.12-.68-.16-.61-.97-.56-1.73.02-.21.04-.43.03-.6m1.05 4.1c.05-.08.15-.11.22-.06.08.06.1.17.06.26-.37.71-.25 1.18.11 1.45.46.33 1.26.42 2.03.32.76-.1 1.49-.39 1.8-.79.2-.25.2-.58-.14-.96a.22.22 0 0 1 0-.27.14.14 0 0 1 .22 0c.5.55.49 1.07.16 1.5-.37.46-1.17.79-2 .9-.84.1-1.71 0-2.23-.38-.53-.39-.72-1.03-.23-1.97"/><path fill="#101418" stroke="#101418" stroke-width=".2" d="M54.08 49.55c.07.04.1.13.05.2-.04.06-.14.08-.22.04a4.11 4.11 0 0 0-1.84-.14c-.65.06-1.33.22-1.82.5-.07.04-.17.03-.22-.04-.04-.06-.02-.15.05-.19a5 5 0 0 1 1.96-.55c.86-.08 1.7 0 2.04.18"/><path fill="#101418" stroke="#101418" stroke-width=".2" d="M49.43 53.95a.28.28 0 0 1-.2-.34.27.27 0 0 1 .34-.2c.76.2 1.66.35 2.51.36.75.01 1.46-.09 2.02-.37.53-.26.93-.68 1.1-1.34a3 3 0 0 0 .07-.66c.03-2.76-.07-7.33-.17-12-.13-5.85-.26-11.86-.14-14.64a2.1 2.1 0 0 0-.16-.99.93.93 0 0 0-.51-.47.28.28 0 0 1-.16-.36c.05-.14.21-.22.35-.16.37.14.63.4.8.75.17.34.23.77.21 1.25-.1 2.77.02 8.77.15 14.62.1 4.67.2 9.24.17 12 0 .3-.04.56-.1.8-.2.83-.7 1.38-1.38 1.7-.64.32-1.43.44-2.25.43-.9-.01-1.84-.17-2.65-.38m-.8-31.16a.26.26 0 0 1 .37.07c.09.13.06.3-.06.39-.43.31-.67.61-.78 1.14-.13.58-.12 1.43-.06 2.8.06 1.4.11 3.18.16 5.2.04 2.32.08 4.94.1 7.54 0 .15-.11.28-.26.28a.27.27 0 0 1-.27-.28c-.03-2.59-.06-5.2-.11-7.54-.04-1.99-.1-3.78-.16-5.17-.06-1.42-.06-2.31.07-2.95.15-.69.45-1.08 1-1.48"/><path fill="#101418" d="M54.23 27.07c0-.09.08-.16.2-.17.13 0 .23.06.24.15.02.19.02.6.01 1.06-.02.74-.07 1.61-.09 1.96 0 .09-.1.16-.22.15-.13 0-.22-.07-.22-.16.03-.35.07-1.22.1-1.95 0-.45 0-.85-.02-1.04m-.07 5c-.02-.09.06-.17.17-.18.11-.01.22.05.23.14.22 1.44.14 4.99.07 8.05l-.01.79c0 .09-.1.16-.2.16-.12 0-.2-.08-.2-.17v-.78c.07-3.05.15-6.59-.06-8"/><path fill="#101418" stroke="#101418" stroke-width=".2" d="M51.85 22.95c.04-.15.2-.24.36-.2.16.04.25.19.21.33-.55 2.06-.9 4.67-.97 7.29a31.33 31.33 0 0 0 .84 8.65c.82 3.63 1.72 7.61.26 12.61-.04.15-.2.24-.36.2-.16-.04-.25-.2-.21-.34 1.42-4.88.54-8.79-.26-12.36l-.33-1.48a31.83 31.83 0 0 1-.53-7.3c.08-2.66.43-5.3 1-7.4"/><path fill="#101418" d="M62.26 16.22a.2.2 0 0 1-.05.26l.05-.26zm.25.63a1.18 1.18 0 0 1-.56-.4v-.01a1.6 1.6 0 0 1-.33-.85 1.06 1.06 0 0 1 .43-.91l.01-.01c.2-.14.43-.22.67-.24a1.36 1.36 0 0 1 1.1.47c.16.19.26.42.27.7.01.15-.01.32-.07.5-.1.27-.25.47-.43.6l-.01.02c-.16.12-.35.18-.54.2-.18.02-.37 0-.54-.07zm-.25-.63a.9.9 0 0 0 .75.31.7.7 0 0 0 .36-.13.87.87 0 0 0 .3-.43.95.95 0 0 0 .05-.36.76.76 0 0 0-.18-.45.98.98 0 0 0-.8-.34.87.87 0 0 0-.45.16l-.02.01a.68.68 0 0 0-.27.58c.01.19.09.4.26.64v.01z"/><path fill="#101418" stroke="#101418" stroke-width=".2" d="M58.42 16.17c-.18 2.25-.44 5.3-.37 7.12l1.5.05c2.27.09 6.05.23 7.33.44.17-1.04.51-3.87.7-6.15a15 15 0 0 0 .09-2.94 4.6 4.6 0 0 0-1.46-.67c-1.27-.39-2.98-.65-4.48-.68-1.45-.04-2.7.12-3.08.56a.38.38 0 0 0-.06.1c-.03.54-.1 1.3-.17 2.17m-.92 7.4v-.01c-.11-1.82.16-5.07.35-7.44l.17-2.19.01-.07c.04-.12.1-.23.2-.33.5-.58 1.9-.8 3.51-.76 1.56.04 3.33.3 4.64.71.73.23 1.33.5 1.69.8.04.05.07.1.08.15.15.41.12 1.72 0 3.25a89.3 89.3 0 0 1-.77 6.5.28.28 0 0 1-.37.21c-.68-.23-5-.4-7.48-.48a24.09 24.09 0 0 1-1.84-.1.28.28 0 0 1-.2-.25"/><path fill="#101418" stroke="#101418" stroke-width=".2" d="M59.66 14.61c0-.1.06-.17.15-.18.08 0 .16.07.16.17.03.5-.09 1.35-.22 2.31-.17 1.25-.36 2.68-.29 3.63.05.61.2 1 .53.98a11.45 11.45 0 0 1 2.32.05c.08 0 .15.1.14.19-.02.1-.1.16-.18.15a9.17 9.17 0 0 0-2.25-.04c-.57.05-.81-.48-.87-1.3-.08-1 .12-2.44.29-3.7.12-.95.24-1.8.22-2.26m-1.8 9.2a.27.27 0 0 1 .32-.23c.14.03.24.18.21.33-.12.67-.35 2.17-.38 3.25-.02.58 0 1.01.06 1.04.23.08.76.1 1.45.1 1.2.02 2.86.05 4.63.5.53.13.8-.3.94-.93.18-.82.15-1.94.12-2.78v-.86c0-.16.12-.28.27-.27.15 0 .26.13.26.3v.82c.03.87.06 2.04-.13 2.92-.21.94-.66 1.58-1.58 1.35a19.57 19.57 0 0 0-4.51-.48 6.16 6.16 0 0 1-1.62-.14c-.35-.13-.45-.77-.42-1.58.03-1.13.27-2.66.39-3.34"/><path fill="#101418" d="M59.34 24.54c.01-.08.1-.14.2-.13.1 0 .18.07.18.16l-.1.6c-.1.48-.2.97-.02 1.22 0 .02.07.05.26.1.17.04.41.08.76.11.1 0 .18.08.17.17-.01.08-.1.14-.2.13a5.95 5.95 0 0 1-.83-.13c-.31-.07-.44-.17-.49-.23-.24-.34-.13-.89-.02-1.41.04-.2.08-.4.1-.59m-.22 4.9c-.02-.08.05-.16.14-.17.1-.02.19.03.2.1.11.4 1.05.58 2.1.57.42 0 .86-.04 1.27-.1.41-.08.79-.18 1.09-.3.47-.2.74-.47.62-.8-.03-.07.03-.15.12-.17.1-.02.2.02.22.1.18.47-.18.85-.8 1.11-.33.14-.74.25-1.17.33-.44.07-.9.11-1.36.11-1.2.02-2.28-.24-2.43-.79"/><path fill="#101418" stroke="#101418" stroke-width=".2" d="M61.55 55.63c.07.07.09.19.04.27-.05.1-.15.11-.23.05a1 1 0 0 0-.27-.16c-.48-.2-1.29-.3-2.07-.2-.78.1-1.52.4-1.88 1-.07.12-.12.24-.16.38a.48.48 0 0 0-.02.2c.01.05.03.12.07.18.05.1.03.21-.04.27-.08.06-.17.04-.22-.05a.95.95 0 0 1-.1-.72l.01-.01c.05-.17.12-.33.2-.47.43-.7 1.25-1.05 2.1-1.16.83-.12 1.7 0 2.21.21.15.06.27.13.36.21"/><path fill="#101418" stroke="#101418" stroke-width=".2" d="M59.05 27.77c.13-.08.3-.03.37.1s.03.3-.1.37c-.45.27-.71.55-.87 1.07-.17.56-.24 1.4-.3 2.77-.08 2.05-.26 4.95-.49 8.1-.3 4.18-.66 8.78-.96 12.42a48 48 0 0 1-.17 1.66c-.24 2.04-.4 3.44.85 3.88.75.27 1.63.5 2.48.59.74.07 1.46.04 2.05-.18.55-.22.98-.6 1.2-1.23v-.01c.07-.2.11-.4.13-.65.26-2.7.56-7.24.85-11.87.38-5.8.76-11.76 1.11-14.5.05-.4.03-.73-.08-1a.93.93 0 0 0-.46-.51.28.28 0 0 1-.13-.37c.07-.14.23-.2.36-.13.36.18.6.46.74.81.13.36.17.79.1 1.26-.34 2.72-.73 8.68-1.1 14.48-.3 4.62-.59 9.15-.85 11.89-.03.28-.08.53-.16.76v.02c-.28.8-.83 1.3-1.53 1.56a5.1 5.1 0 0 1-2.28.22c-.9-.1-1.82-.34-2.6-.61-1.68-.6-1.49-2.18-1.22-4.48.06-.5.12-1.05.17-1.64.3-3.65.67-8.26.97-12.41.22-3.16.4-6.07.48-8.08.06-1.42.13-2.3.33-2.92.2-.67.54-1.03 1.11-1.37"/><path fill="#101418" d="M63.61 32.88c0-.1.08-.16.17-.16.09 0 .16.07.16.16 0 .2-.04.6-.09 1.07l-.24 1.95a.16.16 0 0 1-.19.14.16.16 0 0 1-.14-.18 90.84 90.84 0 0 0 .33-2.98m-1.14 17.1v-.03.03zm1.23-12.1c0-.1.08-.17.2-.17.1 0 .2.07.2.16.06 1.47-.39 5.04-.77 8.14-.2 1.5-.37 2.9-.46 3.9v.01c0 .04 0 .05-.03.14-.04.09-.15.13-.26.1-.1-.03-.16-.12-.12-.21v-.07c.1-.97.28-2.38.47-3.9.38-3.1.83-6.65.77-8.1z"/><path fill="#101418" stroke="#101418" stroke-width=".2" d="M61.94 27.9c.06-.14.21-.2.34-.15.14.06.2.22.15.36-2.44 6.2-2.2 13.73-2.02 19.7.13 4.45.24 8.06-.8 9.72a.26.26 0 0 1-.36.08.29.29 0 0 1-.08-.39c.96-1.51.85-5.04.71-9.39-.18-6.02-.41-13.61 2.06-19.93"/><path fill="#101418" stroke="#101418" stroke-width=".3" d="M40.42 5.94c.01.1-.06.17-.15.18a.16.16 0 0 1-.17-.16 28.67 28.67 0 0 1-.03-3.05c.03-.77.17-1.3.52-1.7.34-.38.88-.61 1.7-.76.68-.13 1.48-.17 2.25-.14.83.04 1.64.16 2.2.33.61.18.99.44 1.23.9.23.44.32 1.05.38 1.97 0 .09-.06.17-.15.17a.16.16 0 0 1-.17-.15 4.86 4.86 0 0 0-.35-1.84c-.19-.37-.5-.58-1.03-.74a9.2 9.2 0 0 0-2.13-.3c-.74-.04-1.52 0-2.18.12-.74.14-1.22.34-1.51.67-.29.32-.4.8-.43 1.48a40.2 40.2 0 0 0 .02 3.02"/><path fill="#101418" stroke="#101418" stroke-width=".2" d="M29.92 55.16c.09-.01.17.05.18.14a.16.16 0 0 1-.13.18c-1.75.27-3.88.7-6.13 1.14-4.28.85-8.97 1.8-12.12 1.85l-.52.01a.16.16 0 0 1-.17-.15c0-.1.07-.17.16-.17h.52c3.13-.07 7.8-1 12.07-1.85 2.26-.46 4.4-.89 6.14-1.15"/><path fill="#FFF" d="M22.4 40.92c-.01 0-.78-.05-.54.94.32 1.26 1.99 3.35 2.7 3.33 10.31-.34 27.04.32 36.77-2.24 4.78-1.26 3.84-2.45 4.85-5.36 1.09-3.14-.32-6.07-.26-4.38.13 3.35-7.32 5.53-10.55 6.03-2.76.43-5.6-.3-9.65.48-1.18.23-3.28.25-5.54.61-6.5 1.05-15.53 2.34-17.79.59"/><path fill="#101418" stroke="#101418" stroke-width=".2" d="M22.04 38.1c.13-.07.3-.03.38.1.08.13.03.3-.1.37-.41.24-.65.45-.74.62-.06.12-.04.23.06.33.14.15.4.28.71.4 1.07.39 2.71.55 3.12.56 3.78.12 8.14-.5 12.7-1.13 1.43-.2 2.9-.41 4.42-.6 3.46-.44 5.96-.56 8.1-.66 2.07-.1 3.79-.19 5.68-.53 3.7-.66 6.71-1.77 8.36-3.1.5-.4.86-.83 1.08-1.26.2-.42.28-.84.2-1.28-.08-.4-.3-.83-.66-1.26a.26.26 0 0 1 .03-.37c.12-.1.3-.08.4.03.42.5.68 1 .77 1.5.1.56.01 1.1-.25 1.62-.25.5-.67.98-1.22 1.42-1.71 1.4-4.81 2.55-8.61 3.23a43.2 43.2 0 0 1-5.76.53c-2.12.1-4.62.22-8.05.66-1.44.18-2.94.39-4.42.6-4.57.64-8.96 1.26-12.79 1.13-.43 0-2.16-.18-3.3-.6a2.47 2.47 0 0 1-.92-.53c-.25-.27-.33-.58-.14-.93.14-.26.44-.54.95-.84"/><path fill="#101418" stroke="#101418" stroke-width=".2" d="M66.45 32.24a.28.28 0 0 1 .18-.34c.15-.05.3.04.34.19.67 2.35.46 3.1.2 4.07a7.91 7.91 0 0 0-.32 2.67c.13 4.48-10.75 5.66-21.5 5.98-3.64.11-7.27.13-10.44.14-3.32.01-6.14.02-7.95.14l-.26.02c-2.05.14-3.73.25-3.97-1.17-.03-.18-.2-.86-.42-1.43-.12-.31-.26-.57-.38-.67a.28.28 0 0 1-.06-.39.27.27 0 0 1 .38-.06c.22.17.42.52.57.9.25.62.42 1.36.45 1.56.16.92 1.62.82 3.4.7l.26-.01c1.8-.12 4.63-.13 7.98-.15 3.16-.01 6.78-.03 10.42-.13 10.48-.32 21.08-1.4 20.97-5.41-.05-1.44.16-2.19.34-2.84.24-.88.43-1.57-.2-3.77"/><path fill="#101418" d="M64.65 36.94c.05-.07.15-.09.22-.03s.09.17.03.24c-.3.43-1.08.9-1.93 1.3-1.1.5-2.33.89-2.84.92-.1 0-.17-.07-.17-.17s.06-.18.15-.18c.48-.03 1.67-.4 2.73-.9.81-.37 1.54-.8 1.8-1.18m-.8 1.67c.04-.08.14-.1.2-.04.07.05.09.16.04.24-.17.26-.48.5-.84.71-.5.3-1.07.55-1.43.67-.08.03-.16-.02-.19-.11-.02-.1.02-.19.1-.22.35-.12.9-.35 1.38-.64.32-.19.6-.4.73-.61M23.6 43c-.09-.02-.13-.1-.11-.2.02-.08.1-.14.19-.11 1.03.3 1.5.3 2.37.3l.6-.01c.08 0 .15.07.15.16 0 .1-.07.17-.15.17h-.6c-.9.01-1.38.02-2.45-.3"/><path fill="#101418" stroke="#101418" stroke-width=".2" d="M22.39 43.3c.15 0 .26.14.25.28 0 .15-.14.26-.29.25-.44-.03-.8-.19-1.15-.34-.7-.3-1.28-.56-2.15 1.29-.85 1.8-2.32 1.67-4.21 1.51-1.47-.12-3.21-.27-5.08.54-.14.05-.3 0-.36-.14-.06-.13 0-.3.14-.35 2-.86 3.82-.71 5.35-.58 1.67.14 2.97.25 3.66-1.2 1.1-2.34 1.9-1.98 2.88-1.56.3.14.62.28.96.3"/><path fill="#101418" stroke="#101418" stroke-width=".2" d="M23.98 44.36a.28.28 0 1 1 .09.55c-.56.1-.59.6-.63 1.19-.1 1.44-.21 3.3-5.36 3.07-1.41-.06-2.17-.23-2.68-.36-.98-.23-1-.23-3.85 1.65-2.15 1.4-3.96.9-5.69.42-1.69-.46-3.3-.91-5.03.7l-.04.08v.02a.28.28 0 1 1-.5-.24v-.02a1.25 1.25 0 0 1 .16-.25c1.96-1.82 3.72-1.33 5.56-.82 1.61.44 3.3.9 5.23-.36 3.06-2 3.07-2 4.28-1.72.5.12 1.23.29 2.58.35 4.6.2 4.7-1.35 4.78-2.56.06-.83.1-1.54 1.1-1.7"/></g></svg>